<?xml version="1.0" encoding="utf-8" standalone="no"?>
<!DOCTYPE svg PUBLIC "-//W3C//DTD SVG 1.1//EN"
  "http://www.w3.org/Graphics/SVG/1.1/DTD/svg11.dtd">
<!-- Created with matplotlib (https://matplotlib.org/) -->
<svg height="318.371484pt" version="1.1" viewBox="0 0 291.24 318.371484" width="291.24pt" xmlns="http://www.w3.org/2000/svg" xmlns:xlink="http://www.w3.org/1999/xlink">
 <defs>
  <style type="text/css">
*{stroke-linecap:butt;stroke-linejoin:round;}
  </style>
 </defs>
 <g id="figure_1">
  <g id="patch_1">
   <path d="M 0 318.371484 
L 291.24 318.371484 
L 291.24 0 
L 0 0 
z
" style="fill:#ffffff;"/>
  </g>
  <g id="axes_1">
   <g id="patch_2">
    <path d="M 61.92 156.419297 
L 229.32 156.419297 
L 229.32 17.819297 
L 61.92 17.819297 
z
" style="fill:#ffffff;"/>
   </g>
   <g id="matplotlib.axis_1">
    <g id="xtick_1">
     <g id="line2d_1">
      <defs>
       <path d="M 0 0 
L 0 -2.5 
" id="mc22e2df464" style="stroke:#000000;stroke-width:0.8;"/>
      </defs>
      <g>
       <use style="stroke:#000000;stroke-width:0.8;" x="61.92" xlink:href="#mc22e2df464" y="156.419297"/>
      </g>
     </g>
     <g id="text_1">
      <!-- 0 -->
      <defs>
       <path d="M 31.78125 66.40625 
Q 24.171875 66.40625 20.328125 58.90625 
Q 16.5 51.421875 16.5 36.375 
Q 16.5 21.390625 20.328125 13.890625 
Q 24.171875 6.390625 31.78125 6.390625 
Q 39.453125 6.390625 43.28125 13.890625 
Q 47.125 21.390625 47.125 36.375 
Q 47.125 51.421875 43.28125 58.90625 
Q 39.453125 66.40625 31.78125 66.40625 
z
M 31.78125 74.21875 
Q 44.046875 74.21875 50.515625 64.515625 
Q 56.984375 54.828125 56.984375 36.375 
Q 56.984375 17.96875 50.515625 8.265625 
Q 44.046875 -1.421875 31.78125 -1.421875 
Q 19.53125 -1.421875 13.0625 8.265625 
Q 6.59375 17.96875 6.59375 36.375 
Q 6.59375 54.828125 13.0625 64.515625 
Q 19.53125 74.21875 31.78125 74.21875 
z
" id="DejaVuSans-48"/>
      </defs>
      <g transform="translate(59.056875 166.757891)scale(0.09 -0.09)">
       <use xlink:href="#DejaVuSans-48"/>
      </g>
     </g>
    </g>
    <g id="xtick_2">
     <g id="line2d_2">
      <g>
       <use style="stroke:#000000;stroke-width:0.8;" x="95.4" xlink:href="#mc22e2df464" y="156.419297"/>
      </g>
     </g>
     <g id="text_2">
      <!-- 90 -->
      <defs>
       <path d="M 10.984375 1.515625 
L 10.984375 10.5 
Q 14.703125 8.734375 18.5 7.8125 
Q 22.3125 6.890625 25.984375 6.890625 
Q 35.75 6.890625 40.890625 13.453125 
Q 46.046875 20.015625 46.78125 33.40625 
Q 43.953125 29.203125 39.59375 26.953125 
Q 35.25 24.703125 29.984375 24.703125 
Q 19.046875 24.703125 12.671875 31.3125 
Q 6.296875 37.9375 6.296875 49.421875 
Q 6.296875 60.640625 12.9375 67.421875 
Q 19.578125 74.21875 30.609375 74.21875 
Q 43.265625 74.21875 49.921875 64.515625 
Q 56.59375 54.828125 56.59375 36.375 
Q 56.59375 19.140625 48.40625 8.859375 
Q 40.234375 -1.421875 26.421875 -1.421875 
Q 22.703125 -1.421875 18.890625 -0.6875 
Q 15.09375 0.046875 10.984375 1.515625 
z
M 30.609375 32.421875 
Q 37.25 32.421875 41.125 36.953125 
Q 45.015625 41.5 45.015625 49.421875 
Q 45.015625 57.28125 41.125 61.84375 
Q 37.25 66.40625 30.609375 66.40625 
Q 23.96875 66.40625 20.09375 61.84375 
Q 16.21875 57.28125 16.21875 49.421875 
Q 16.21875 41.5 20.09375 36.953125 
Q 23.96875 32.421875 30.609375 32.421875 
z
" id="DejaVuSans-57"/>
      </defs>
      <g transform="translate(89.67375 166.757891)scale(0.09 -0.09)">
       <use xlink:href="#DejaVuSans-57"/>
       <use x="63.623047" xlink:href="#DejaVuSans-48"/>
      </g>
     </g>
    </g>
    <g id="xtick_3">
     <g id="line2d_3">
      <g>
       <use style="stroke:#000000;stroke-width:0.8;" x="128.88" xlink:href="#mc22e2df464" y="156.419297"/>
      </g>
     </g>
     <g id="text_3">
      <!-- 99 -->
      <g transform="translate(123.15375 166.757891)scale(0.09 -0.09)">
       <use xlink:href="#DejaVuSans-57"/>
       <use x="63.623047" xlink:href="#DejaVuSans-57"/>
      </g>
     </g>
    </g>
    <g id="xtick_4">
     <g id="line2d_4">
      <g>
       <use style="stroke:#000000;stroke-width:0.8;" x="162.36" xlink:href="#mc22e2df464" y="156.419297"/>
      </g>
     </g>
     <g id="text_4">
      <!-- 99.9 -->
      <defs>
       <path d="M 10.6875 12.40625 
L 21 12.40625 
L 21 0 
L 10.6875 0 
z
" id="DejaVuSans-46"/>
      </defs>
      <g transform="translate(152.340469 166.757891)scale(0.09 -0.09)">
       <use xlink:href="#DejaVuSans-57"/>
       <use x="63.623047" xlink:href="#DejaVuSans-57"/>
       <use x="127.246094" xlink:href="#DejaVuSans-46"/>
       <use x="159.033203" xlink:href="#DejaVuSans-57"/>
      </g>
     </g>
    </g>
    <g id="xtick_5">
     <g id="line2d_5">
      <g>
       <use style="stroke:#000000;stroke-width:0.8;" x="195.84" xlink:href="#mc22e2df464" y="156.419297"/>
      </g>
     </g>
     <g id="text_5">
      <!-- 99.99 -->
      <g transform="translate(182.957344 166.757891)scale(0.09 -0.09)">
       <use xlink:href="#DejaVuSans-57"/>
       <use x="63.623047" xlink:href="#DejaVuSans-57"/>
       <use x="127.246094" xlink:href="#DejaVuSans-46"/>
       <use x="159.033203" xlink:href="#DejaVuSans-57"/>
       <use x="222.65625" xlink:href="#DejaVuSans-57"/>
      </g>
     </g>
    </g>
    <g id="xtick_6">
     <g id="line2d_6">
      <g>
       <use style="stroke:#000000;stroke-width:0.8;" x="229.32" xlink:href="#mc22e2df464" y="156.419297"/>
      </g>
     </g>
     <g id="text_6">
      <!-- 99.999 -->
      <g transform="translate(213.574219 166.757891)scale(0.09 -0.09)">
       <use xlink:href="#DejaVuSans-57"/>
       <use x="63.623047" xlink:href="#DejaVuSans-57"/>
       <use x="127.246094" xlink:href="#DejaVuSans-46"/>
       <use x="159.033203" xlink:href="#DejaVuSans-57"/>
       <use x="222.65625" xlink:href="#DejaVuSans-57"/>
       <use x="286.279297" xlink:href="#DejaVuSans-57"/>
      </g>
     </g>
    </g>
    <g id="text_7">
     <!-- Reliability [% demand met] -->
     <defs>
      <path d="M 44.390625 34.1875 
Q 47.5625 33.109375 50.5625 29.59375 
Q 53.5625 26.078125 56.59375 19.921875 
L 66.609375 0 
L 56 0 
L 46.6875 18.703125 
Q 43.0625 26.03125 39.671875 28.421875 
Q 36.28125 30.8125 30.421875 30.8125 
L 19.671875 30.8125 
L 19.671875 0 
L 9.8125 0 
L 9.8125 72.90625 
L 32.078125 72.90625 
Q 44.578125 72.90625 50.734375 67.671875 
Q 56.890625 62.453125 56.890625 51.90625 
Q 56.890625 45.015625 53.6875 40.46875 
Q 50.484375 35.9375 44.390625 34.1875 
z
M 19.671875 64.796875 
L 19.671875 38.921875 
L 32.078125 38.921875 
Q 39.203125 38.921875 42.84375 42.21875 
Q 46.484375 45.515625 46.484375 51.90625 
Q 46.484375 58.296875 42.84375 61.546875 
Q 39.203125 64.796875 32.078125 64.796875 
z
" id="DejaVuSans-82"/>
      <path d="M 56.203125 29.59375 
L 56.203125 25.203125 
L 14.890625 25.203125 
Q 15.484375 15.921875 20.484375 11.0625 
Q 25.484375 6.203125 34.421875 6.203125 
Q 39.59375 6.203125 44.453125 7.46875 
Q 49.3125 8.734375 54.109375 11.28125 
L 54.109375 2.78125 
Q 49.265625 0.734375 44.1875 -0.34375 
Q 39.109375 -1.421875 33.890625 -1.421875 
Q 20.796875 -1.421875 13.15625 6.1875 
Q 5.515625 13.8125 5.515625 26.8125 
Q 5.515625 40.234375 12.765625 48.109375 
Q 20.015625 56 32.328125 56 
Q 43.359375 56 49.78125 48.890625 
Q 56.203125 41.796875 56.203125 29.59375 
z
M 47.21875 32.234375 
Q 47.125 39.59375 43.09375 43.984375 
Q 39.0625 48.390625 32.421875 48.390625 
Q 24.90625 48.390625 20.390625 44.140625 
Q 15.875 39.890625 15.1875 32.171875 
z
" id="DejaVuSans-101"/>
      <path d="M 9.421875 75.984375 
L 18.40625 75.984375 
L 18.40625 0 
L 9.421875 0 
z
" id="DejaVuSans-108"/>
      <path d="M 9.421875 54.6875 
L 18.40625 54.6875 
L 18.40625 0 
L 9.421875 0 
z
M 9.421875 75.984375 
L 18.40625 75.984375 
L 18.40625 64.59375 
L 9.421875 64.59375 
z
" id="DejaVuSans-105"/>
      <path d="M 34.28125 27.484375 
Q 23.390625 27.484375 19.1875 25 
Q 14.984375 22.515625 14.984375 16.5 
Q 14.984375 11.71875 18.140625 8.90625 
Q 21.296875 6.109375 26.703125 6.109375 
Q 34.1875 6.109375 38.703125 11.40625 
Q 43.21875 16.703125 43.21875 25.484375 
L 43.21875 27.484375 
z
M 52.203125 31.203125 
L 52.203125 0 
L 43.21875 0 
L 43.21875 8.296875 
Q 40.140625 3.328125 35.546875 0.953125 
Q 30.953125 -1.421875 24.3125 -1.421875 
Q 15.921875 -1.421875 10.953125 3.296875 
Q 6 8.015625 6 15.921875 
Q 6 25.140625 12.171875 29.828125 
Q 18.359375 34.515625 30.609375 34.515625 
L 43.21875 34.515625 
L 43.21875 35.40625 
Q 43.21875 41.609375 39.140625 45 
Q 35.0625 48.390625 27.6875 48.390625 
Q 23 48.390625 18.546875 47.265625 
Q 14.109375 46.140625 10.015625 43.890625 
L 10.015625 52.203125 
Q 14.9375 54.109375 19.578125 55.046875 
Q 24.21875 56 28.609375 56 
Q 40.484375 56 46.34375 49.84375 
Q 52.203125 43.703125 52.203125 31.203125 
z
" id="DejaVuSans-97"/>
      <path d="M 48.6875 27.296875 
Q 48.6875 37.203125 44.609375 42.84375 
Q 40.53125 48.484375 33.40625 48.484375 
Q 26.265625 48.484375 22.1875 42.84375 
Q 18.109375 37.203125 18.109375 27.296875 
Q 18.109375 17.390625 22.1875 11.75 
Q 26.265625 6.109375 33.40625 6.109375 
Q 40.53125 6.109375 44.609375 11.75 
Q 48.6875 17.390625 48.6875 27.296875 
z
M 18.109375 46.390625 
Q 20.953125 51.265625 25.265625 53.625 
Q 29.59375 56 35.59375 56 
Q 45.5625 56 51.78125 48.09375 
Q 58.015625 40.1875 58.015625 27.296875 
Q 58.015625 14.40625 51.78125 6.484375 
Q 45.5625 -1.421875 35.59375 -1.421875 
Q 29.59375 -1.421875 25.265625 0.953125 
Q 20.953125 3.328125 18.109375 8.203125 
L 18.109375 0 
L 9.078125 0 
L 9.078125 75.984375 
L 18.109375 75.984375 
z
" id="DejaVuSans-98"/>
      <path d="M 18.3125 70.21875 
L 18.3125 54.6875 
L 36.8125 54.6875 
L 36.8125 47.703125 
L 18.3125 47.703125 
L 18.3125 18.015625 
Q 18.3125 11.328125 20.140625 9.421875 
Q 21.96875 7.515625 27.59375 7.515625 
L 36.8125 7.515625 
L 36.8125 0 
L 27.59375 0 
Q 17.1875 0 13.234375 3.875 
Q 9.28125 7.765625 9.28125 18.015625 
L 9.28125 47.703125 
L 2.6875 47.703125 
L 2.6875 54.6875 
L 9.28125 54.6875 
L 9.28125 70.21875 
z
" id="DejaVuSans-116"/>
      <path d="M 32.171875 -5.078125 
Q 28.375 -14.84375 24.75 -17.8125 
Q 21.140625 -20.796875 15.09375 -20.796875 
L 7.90625 -20.796875 
L 7.90625 -13.28125 
L 13.1875 -13.28125 
Q 16.890625 -13.28125 18.9375 -11.515625 
Q 21 -9.765625 23.484375 -3.21875 
L 25.09375 0.875 
L 2.984375 54.6875 
L 12.5 54.6875 
L 29.59375 11.921875 
L 46.6875 54.6875 
L 56.203125 54.6875 
z
" id="DejaVuSans-121"/>
      <path id="DejaVuSans-32"/>
      <path d="M 8.59375 75.984375 
L 29.296875 75.984375 
L 29.296875 69 
L 17.578125 69 
L 17.578125 -6.203125 
L 29.296875 -6.203125 
L 29.296875 -13.1875 
L 8.59375 -13.1875 
z
" id="DejaVuSans-91"/>
      <path d="M 72.703125 32.078125 
Q 68.453125 32.078125 66.03125 28.46875 
Q 63.625 24.859375 63.625 18.40625 
Q 63.625 12.0625 66.03125 8.421875 
Q 68.453125 4.78125 72.703125 4.78125 
Q 76.859375 4.78125 79.265625 8.421875 
Q 81.6875 12.0625 81.6875 18.40625 
Q 81.6875 24.8125 79.265625 28.4375 
Q 76.859375 32.078125 72.703125 32.078125 
z
M 72.703125 38.28125 
Q 80.421875 38.28125 84.953125 32.90625 
Q 89.5 27.546875 89.5 18.40625 
Q 89.5 9.28125 84.9375 3.921875 
Q 80.375 -1.421875 72.703125 -1.421875 
Q 64.890625 -1.421875 60.34375 3.921875 
Q 55.8125 9.28125 55.8125 18.40625 
Q 55.8125 27.59375 60.375 32.9375 
Q 64.9375 38.28125 72.703125 38.28125 
z
M 22.3125 68.015625 
Q 18.109375 68.015625 15.6875 64.375 
Q 13.28125 60.75 13.28125 54.390625 
Q 13.28125 47.953125 15.671875 44.328125 
Q 18.0625 40.71875 22.3125 40.71875 
Q 26.5625 40.71875 28.96875 44.328125 
Q 31.390625 47.953125 31.390625 54.390625 
Q 31.390625 60.6875 28.953125 64.34375 
Q 26.515625 68.015625 22.3125 68.015625 
z
M 66.40625 74.21875 
L 74.21875 74.21875 
L 28.609375 -1.421875 
L 20.796875 -1.421875 
z
M 22.3125 74.21875 
Q 30.03125 74.21875 34.609375 68.875 
Q 39.203125 63.53125 39.203125 54.390625 
Q 39.203125 45.171875 34.640625 39.84375 
Q 30.078125 34.515625 22.3125 34.515625 
Q 14.546875 34.515625 10.03125 39.859375 
Q 5.515625 45.21875 5.515625 54.390625 
Q 5.515625 63.484375 10.046875 68.84375 
Q 14.59375 74.21875 22.3125 74.21875 
z
" id="DejaVuSans-37"/>
      <path d="M 45.40625 46.390625 
L 45.40625 75.984375 
L 54.390625 75.984375 
L 54.390625 0 
L 45.40625 0 
L 45.40625 8.203125 
Q 42.578125 3.328125 38.25 0.953125 
Q 33.9375 -1.421875 27.875 -1.421875 
Q 17.96875 -1.421875 11.734375 6.484375 
Q 5.515625 14.40625 5.515625 27.296875 
Q 5.515625 40.1875 11.734375 48.09375 
Q 17.96875 56 27.875 56 
Q 33.9375 56 38.25 53.625 
Q 42.578125 51.265625 45.40625 46.390625 
z
M 14.796875 27.296875 
Q 14.796875 17.390625 18.875 11.75 
Q 22.953125 6.109375 30.078125 6.109375 
Q 37.203125 6.109375 41.296875 11.75 
Q 45.40625 17.390625 45.40625 27.296875 
Q 45.40625 37.203125 41.296875 42.84375 
Q 37.203125 48.484375 30.078125 48.484375 
Q 22.953125 48.484375 18.875 42.84375 
Q 14.796875 37.203125 14.796875 27.296875 
z
" id="DejaVuSans-100"/>
      <path d="M 52 44.1875 
Q 55.375 50.25 60.0625 53.125 
Q 64.75 56 71.09375 56 
Q 79.640625 56 84.28125 50.015625 
Q 88.921875 44.046875 88.921875 33.015625 
L 88.921875 0 
L 79.890625 0 
L 79.890625 32.71875 
Q 79.890625 40.578125 77.09375 44.375 
Q 74.3125 48.1875 68.609375 48.1875 
Q 61.625 48.1875 57.5625 43.546875 
Q 53.515625 38.921875 53.515625 30.90625 
L 53.515625 0 
L 44.484375 0 
L 44.484375 32.71875 
Q 44.484375 40.625 41.703125 44.40625 
Q 38.921875 48.1875 33.109375 48.1875 
Q 26.21875 48.1875 22.15625 43.53125 
Q 18.109375 38.875 18.109375 30.90625 
L 18.109375 0 
L 9.078125 0 
L 9.078125 54.6875 
L 18.109375 54.6875 
L 18.109375 46.1875 
Q 21.1875 51.21875 25.484375 53.609375 
Q 29.78125 56 35.6875 56 
Q 41.65625 56 45.828125 52.96875 
Q 50 49.953125 52 44.1875 
z
" id="DejaVuSans-109"/>
      <path d="M 54.890625 33.015625 
L 54.890625 0 
L 45.90625 0 
L 45.90625 32.71875 
Q 45.90625 40.484375 42.875 44.328125 
Q 39.84375 48.1875 33.796875 48.1875 
Q 26.515625 48.1875 22.3125 43.546875 
Q 18.109375 38.921875 18.109375 30.90625 
L 18.109375 0 
L 9.078125 0 
L 9.078125 54.6875 
L 18.109375 54.6875 
L 18.109375 46.1875 
Q 21.34375 51.125 25.703125 53.5625 
Q 30.078125 56 35.796875 56 
Q 45.21875 56 50.046875 50.171875 
Q 54.890625 44.34375 54.890625 33.015625 
z
" id="DejaVuSans-110"/>
      <path d="M 30.421875 75.984375 
L 30.421875 -13.1875 
L 9.71875 -13.1875 
L 9.71875 -6.203125 
L 21.390625 -6.203125 
L 21.390625 69 
L 9.71875 69 
L 9.71875 75.984375 
z
" id="DejaVuSans-93"/>
     </defs>
     <g transform="translate(77.114531 180.228047)scale(0.1 -0.1)">
      <use xlink:href="#DejaVuSans-82"/>
      <use x="69.419922" xlink:href="#DejaVuSans-101"/>
      <use x="130.943359" xlink:href="#DejaVuSans-108"/>
      <use x="158.726562" xlink:href="#DejaVuSans-105"/>
      <use x="186.509766" xlink:href="#DejaVuSans-97"/>
      <use x="247.789062" xlink:href="#DejaVuSans-98"/>
      <use x="311.265625" xlink:href="#DejaVuSans-105"/>
      <use x="339.048828" xlink:href="#DejaVuSans-108"/>
      <use x="366.832031" xlink:href="#DejaVuSans-105"/>
      <use x="394.615234" xlink:href="#DejaVuSans-116"/>
      <use x="433.824219" xlink:href="#DejaVuSans-121"/>
      <use x="493.003906" xlink:href="#DejaVuSans-32"/>
      <use x="524.791016" xlink:href="#DejaVuSans-91"/>
      <use x="563.804688" xlink:href="#DejaVuSans-37"/>
      <use x="658.824219" xlink:href="#DejaVuSans-32"/>
      <use x="690.611328" xlink:href="#DejaVuSans-100"/>
      <use x="754.087891" xlink:href="#DejaVuSans-101"/>
      <use x="815.611328" xlink:href="#DejaVuSans-109"/>
      <use x="913.023438" xlink:href="#DejaVuSans-97"/>
      <use x="974.302734" xlink:href="#DejaVuSans-110"/>
      <use x="1037.681641" xlink:href="#DejaVuSans-100"/>
      <use x="1101.158203" xlink:href="#DejaVuSans-32"/>
      <use x="1132.945312" xlink:href="#DejaVuSans-109"/>
      <use x="1230.357422" xlink:href="#DejaVuSans-101"/>
      <use x="1291.880859" xlink:href="#DejaVuSans-116"/>
      <use x="1331.089844" xlink:href="#DejaVuSans-93"/>
     </g>
    </g>
   </g>
   <g id="matplotlib.axis_2">
    <g id="ytick_1">
     <g id="line2d_7">
      <defs>
       <path d="M 0 0 
L 2.5 0 
" id="mdb78396799" style="stroke:#000000;stroke-width:0.8;"/>
      </defs>
      <g>
       <use style="stroke:#000000;stroke-width:0.8;" x="61.92" xlink:href="#mdb78396799" y="156.419297"/>
      </g>
     </g>
     <g id="text_8">
      <!-- 0.00 -->
      <g transform="translate(38.380937 159.838594)scale(0.09 -0.09)">
       <use xlink:href="#DejaVuSans-48"/>
       <use x="63.623047" xlink:href="#DejaVuSans-46"/>
       <use x="95.410156" xlink:href="#DejaVuSans-48"/>
       <use x="159.033203" xlink:href="#DejaVuSans-48"/>
      </g>
     </g>
    </g>
    <g id="ytick_2">
     <g id="line2d_8">
      <g>
       <use style="stroke:#000000;stroke-width:0.8;" x="61.92" xlink:href="#mdb78396799" y="139.094297"/>
      </g>
     </g>
     <g id="text_9">
      <!-- 0.05 -->
      <defs>
       <path d="M 10.796875 72.90625 
L 49.515625 72.90625 
L 49.515625 64.59375 
L 19.828125 64.59375 
L 19.828125 46.734375 
Q 21.96875 47.46875 24.109375 47.828125 
Q 26.265625 48.1875 28.421875 48.1875 
Q 40.625 48.1875 47.75 41.5 
Q 54.890625 34.8125 54.890625 23.390625 
Q 54.890625 11.625 47.5625 5.09375 
Q 40.234375 -1.421875 26.90625 -1.421875 
Q 22.3125 -1.421875 17.546875 -0.640625 
Q 12.796875 0.140625 7.71875 1.703125 
L 7.71875 11.625 
Q 12.109375 9.234375 16.796875 8.0625 
Q 21.484375 6.890625 26.703125 6.890625 
Q 35.15625 6.890625 40.078125 11.328125 
Q 45.015625 15.765625 45.015625 23.390625 
Q 45.015625 31 40.078125 35.4375 
Q 35.15625 39.890625 26.703125 39.890625 
Q 22.75 39.890625 18.8125 39.015625 
Q 14.890625 38.140625 10.796875 36.28125 
z
" id="DejaVuSans-53"/>
      </defs>
      <g transform="translate(38.380937 142.513594)scale(0.09 -0.09)">
       <use xlink:href="#DejaVuSans-48"/>
       <use x="63.623047" xlink:href="#DejaVuSans-46"/>
       <use x="95.410156" xlink:href="#DejaVuSans-48"/>
       <use x="159.033203" xlink:href="#DejaVuSans-53"/>
      </g>
     </g>
    </g>
    <g id="ytick_3">
     <g id="line2d_9">
      <g>
       <use style="stroke:#000000;stroke-width:0.8;" x="61.92" xlink:href="#mdb78396799" y="121.769297"/>
      </g>
     </g>
     <g id="text_10">
      <!-- 0.10 -->
      <defs>
       <path d="M 12.40625 8.296875 
L 28.515625 8.296875 
L 28.515625 63.921875 
L 10.984375 60.40625 
L 10.984375 69.390625 
L 28.421875 72.90625 
L 38.28125 72.90625 
L 38.28125 8.296875 
L 54.390625 8.296875 
L 54.390625 0 
L 12.40625 0 
z
" id="DejaVuSans-49"/>
      </defs>
      <g transform="translate(38.380937 125.188594)scale(0.09 -0.09)">
       <use xlink:href="#DejaVuSans-48"/>
       <use x="63.623047" xlink:href="#DejaVuSans-46"/>
       <use x="95.410156" xlink:href="#DejaVuSans-49"/>
       <use x="159.033203" xlink:href="#DejaVuSans-48"/>
      </g>
     </g>
    </g>
    <g id="ytick_4">
     <g id="line2d_10">
      <g>
       <use style="stroke:#000000;stroke-width:0.8;" x="61.92" xlink:href="#mdb78396799" y="104.444297"/>
      </g>
     </g>
     <g id="text_11">
      <!-- 0.15 -->
      <g transform="translate(38.380937 107.863594)scale(0.09 -0.09)">
       <use xlink:href="#DejaVuSans-48"/>
       <use x="63.623047" xlink:href="#DejaVuSans-46"/>
       <use x="95.410156" xlink:href="#DejaVuSans-49"/>
       <use x="159.033203" xlink:href="#DejaVuSans-53"/>
      </g>
     </g>
    </g>
    <g id="ytick_5">
     <g id="line2d_11">
      <g>
       <use style="stroke:#000000;stroke-width:0.8;" x="61.92" xlink:href="#mdb78396799" y="87.119297"/>
      </g>
     </g>
     <g id="text_12">
      <!-- 0.20 -->
      <defs>
       <path d="M 19.1875 8.296875 
L 53.609375 8.296875 
L 53.609375 0 
L 7.328125 0 
L 7.328125 8.296875 
Q 12.9375 14.109375 22.625 23.890625 
Q 32.328125 33.6875 34.8125 36.53125 
Q 39.546875 41.84375 41.421875 45.53125 
Q 43.3125 49.21875 43.3125 52.78125 
Q 43.3125 58.59375 39.234375 62.25 
Q 35.15625 65.921875 28.609375 65.921875 
Q 23.96875 65.921875 18.8125 64.3125 
Q 13.671875 62.703125 7.8125 59.421875 
L 7.8125 69.390625 
Q 13.765625 71.78125 18.9375 73 
Q 24.125 74.21875 28.421875 74.21875 
Q 39.75 74.21875 46.484375 68.546875 
Q 53.21875 62.890625 53.21875 53.421875 
Q 53.21875 48.921875 51.53125 44.890625 
Q 49.859375 40.875 45.40625 35.40625 
Q 44.1875 33.984375 37.640625 27.21875 
Q 31.109375 20.453125 19.1875 8.296875 
z
" id="DejaVuSans-50"/>
      </defs>
      <g transform="translate(38.380937 90.538594)scale(0.09 -0.09)">
       <use xlink:href="#DejaVuSans-48"/>
       <use x="63.623047" xlink:href="#DejaVuSans-46"/>
       <use x="95.410156" xlink:href="#DejaVuSans-50"/>
       <use x="159.033203" xlink:href="#DejaVuSans-48"/>
      </g>
     </g>
    </g>
    <g id="ytick_6">
     <g id="line2d_12">
      <g>
       <use style="stroke:#000000;stroke-width:0.8;" x="61.92" xlink:href="#mdb78396799" y="69.794297"/>
      </g>
     </g>
     <g id="text_13">
      <!-- 0.25 -->
      <g transform="translate(38.380937 73.213594)scale(0.09 -0.09)">
       <use xlink:href="#DejaVuSans-48"/>
       <use x="63.623047" xlink:href="#DejaVuSans-46"/>
       <use x="95.410156" xlink:href="#DejaVuSans-50"/>
       <use x="159.033203" xlink:href="#DejaVuSans-53"/>
      </g>
     </g>
    </g>
    <g id="ytick_7">
     <g id="line2d_13">
      <g>
       <use style="stroke:#000000;stroke-width:0.8;" x="61.92" xlink:href="#mdb78396799" y="52.469297"/>
      </g>
     </g>
     <g id="text_14">
      <!-- 0.30 -->
      <defs>
       <path d="M 40.578125 39.3125 
Q 47.65625 37.796875 51.625 33 
Q 55.609375 28.21875 55.609375 21.1875 
Q 55.609375 10.40625 48.1875 4.484375 
Q 40.765625 -1.421875 27.09375 -1.421875 
Q 22.515625 -1.421875 17.65625 -0.515625 
Q 12.796875 0.390625 7.625 2.203125 
L 7.625 11.71875 
Q 11.71875 9.328125 16.59375 8.109375 
Q 21.484375 6.890625 26.8125 6.890625 
Q 36.078125 6.890625 40.9375 10.546875 
Q 45.796875 14.203125 45.796875 21.1875 
Q 45.796875 27.640625 41.28125 31.265625 
Q 36.765625 34.90625 28.71875 34.90625 
L 20.21875 34.90625 
L 20.21875 43.015625 
L 29.109375 43.015625 
Q 36.375 43.015625 40.234375 45.921875 
Q 44.09375 48.828125 44.09375 54.296875 
Q 44.09375 59.90625 40.109375 62.90625 
Q 36.140625 65.921875 28.71875 65.921875 
Q 24.65625 65.921875 20.015625 65.03125 
Q 15.375 64.15625 9.8125 62.3125 
L 9.8125 71.09375 
Q 15.4375 72.65625 20.34375 73.4375 
Q 25.25 74.21875 29.59375 74.21875 
Q 40.828125 74.21875 47.359375 69.109375 
Q 53.90625 64.015625 53.90625 55.328125 
Q 53.90625 49.265625 50.4375 45.09375 
Q 46.96875 40.921875 40.578125 39.3125 
z
" id="DejaVuSans-51"/>
      </defs>
      <g transform="translate(38.380937 55.888594)scale(0.09 -0.09)">
       <use xlink:href="#DejaVuSans-48"/>
       <use x="63.623047" xlink:href="#DejaVuSans-46"/>
       <use x="95.410156" xlink:href="#DejaVuSans-51"/>
       <use x="159.033203" xlink:href="#DejaVuSans-48"/>
      </g>
     </g>
    </g>
    <g id="ytick_8">
     <g id="line2d_14">
      <g>
       <use style="stroke:#000000;stroke-width:0.8;" x="61.92" xlink:href="#mdb78396799" y="35.144297"/>
      </g>
     </g>
     <g id="text_15">
      <!-- 0.35 -->
      <g transform="translate(38.380937 38.563594)scale(0.09 -0.09)">
       <use xlink:href="#DejaVuSans-48"/>
       <use x="63.623047" xlink:href="#DejaVuSans-46"/>
       <use x="95.410156" xlink:href="#DejaVuSans-51"/>
       <use x="159.033203" xlink:href="#DejaVuSans-53"/>
      </g>
     </g>
    </g>
    <g id="ytick_9">
     <g id="line2d_15">
      <g>
       <use style="stroke:#000000;stroke-width:0.8;" x="61.92" xlink:href="#mdb78396799" y="17.819297"/>
      </g>
     </g>
     <g id="text_16">
      <!-- 0.40 -->
      <defs>
       <path d="M 37.796875 64.3125 
L 12.890625 25.390625 
L 37.796875 25.390625 
z
M 35.203125 72.90625 
L 47.609375 72.90625 
L 47.609375 25.390625 
L 58.015625 25.390625 
L 58.015625 17.1875 
L 47.609375 17.1875 
L 47.609375 0 
L 37.796875 0 
L 37.796875 17.1875 
L 4.890625 17.1875 
L 4.890625 26.703125 
z
" id="DejaVuSans-52"/>
      </defs>
      <g transform="translate(38.380937 21.238594)scale(0.09 -0.09)">
       <use xlink:href="#DejaVuSans-48"/>
       <use x="63.623047" xlink:href="#DejaVuSans-46"/>
       <use x="95.410156" xlink:href="#DejaVuSans-52"/>
       <use x="159.033203" xlink:href="#DejaVuSans-48"/>
      </g>
     </g>
    </g>
    <g id="text_17">
     <!-- Cost of electricity [$/kWh] -->
     <defs>
      <path d="M 64.40625 67.28125 
L 64.40625 56.890625 
Q 59.421875 61.53125 53.78125 63.8125 
Q 48.140625 66.109375 41.796875 66.109375 
Q 29.296875 66.109375 22.65625 58.46875 
Q 16.015625 50.828125 16.015625 36.375 
Q 16.015625 21.96875 22.65625 14.328125 
Q 29.296875 6.6875 41.796875 6.6875 
Q 48.140625 6.6875 53.78125 8.984375 
Q 59.421875 11.28125 64.40625 15.921875 
L 64.40625 5.609375 
Q 59.234375 2.09375 53.4375 0.328125 
Q 47.65625 -1.421875 41.21875 -1.421875 
Q 24.65625 -1.421875 15.125 8.703125 
Q 5.609375 18.84375 5.609375 36.375 
Q 5.609375 53.953125 15.125 64.078125 
Q 24.65625 74.21875 41.21875 74.21875 
Q 47.75 74.21875 53.53125 72.484375 
Q 59.328125 70.75 64.40625 67.28125 
z
" id="DejaVuSans-67"/>
      <path d="M 30.609375 48.390625 
Q 23.390625 48.390625 19.1875 42.75 
Q 14.984375 37.109375 14.984375 27.296875 
Q 14.984375 17.484375 19.15625 11.84375 
Q 23.34375 6.203125 30.609375 6.203125 
Q 37.796875 6.203125 41.984375 11.859375 
Q 46.1875 17.53125 46.1875 27.296875 
Q 46.1875 37.015625 41.984375 42.703125 
Q 37.796875 48.390625 30.609375 48.390625 
z
M 30.609375 56 
Q 42.328125 56 49.015625 48.375 
Q 55.71875 40.765625 55.71875 27.296875 
Q 55.71875 13.875 49.015625 6.21875 
Q 42.328125 -1.421875 30.609375 -1.421875 
Q 18.84375 -1.421875 12.171875 6.21875 
Q 5.515625 13.875 5.515625 27.296875 
Q 5.515625 40.765625 12.171875 48.375 
Q 18.84375 56 30.609375 56 
z
" id="DejaVuSans-111"/>
      <path d="M 44.28125 53.078125 
L 44.28125 44.578125 
Q 40.484375 46.53125 36.375 47.5 
Q 32.28125 48.484375 27.875 48.484375 
Q 21.1875 48.484375 17.84375 46.4375 
Q 14.5 44.390625 14.5 40.28125 
Q 14.5 37.15625 16.890625 35.375 
Q 19.28125 33.59375 26.515625 31.984375 
L 29.59375 31.296875 
Q 39.15625 29.25 43.1875 25.515625 
Q 47.21875 21.78125 47.21875 15.09375 
Q 47.21875 7.46875 41.1875 3.015625 
Q 35.15625 -1.421875 24.609375 -1.421875 
Q 20.21875 -1.421875 15.453125 -0.5625 
Q 10.6875 0.296875 5.421875 2 
L 5.421875 11.28125 
Q 10.40625 8.6875 15.234375 7.390625 
Q 20.0625 6.109375 24.8125 6.109375 
Q 31.15625 6.109375 34.5625 8.28125 
Q 37.984375 10.453125 37.984375 14.40625 
Q 37.984375 18.0625 35.515625 20.015625 
Q 33.0625 21.96875 24.703125 23.78125 
L 21.578125 24.515625 
Q 13.234375 26.265625 9.515625 29.90625 
Q 5.8125 33.546875 5.8125 39.890625 
Q 5.8125 47.609375 11.28125 51.796875 
Q 16.75 56 26.8125 56 
Q 31.78125 56 36.171875 55.265625 
Q 40.578125 54.546875 44.28125 53.078125 
z
" id="DejaVuSans-115"/>
      <path d="M 37.109375 75.984375 
L 37.109375 68.5 
L 28.515625 68.5 
Q 23.6875 68.5 21.796875 66.546875 
Q 19.921875 64.59375 19.921875 59.515625 
L 19.921875 54.6875 
L 34.71875 54.6875 
L 34.71875 47.703125 
L 19.921875 47.703125 
L 19.921875 0 
L 10.890625 0 
L 10.890625 47.703125 
L 2.296875 47.703125 
L 2.296875 54.6875 
L 10.890625 54.6875 
L 10.890625 58.5 
Q 10.890625 67.625 15.140625 71.796875 
Q 19.390625 75.984375 28.609375 75.984375 
z
" id="DejaVuSans-102"/>
      <path d="M 48.78125 52.59375 
L 48.78125 44.1875 
Q 44.96875 46.296875 41.140625 47.34375 
Q 37.3125 48.390625 33.40625 48.390625 
Q 24.65625 48.390625 19.8125 42.84375 
Q 14.984375 37.3125 14.984375 27.296875 
Q 14.984375 17.28125 19.8125 11.734375 
Q 24.65625 6.203125 33.40625 6.203125 
Q 37.3125 6.203125 41.140625 7.25 
Q 44.96875 8.296875 48.78125 10.40625 
L 48.78125 2.09375 
Q 45.015625 0.34375 40.984375 -0.53125 
Q 36.96875 -1.421875 32.421875 -1.421875 
Q 20.0625 -1.421875 12.78125 6.34375 
Q 5.515625 14.109375 5.515625 27.296875 
Q 5.515625 40.671875 12.859375 48.328125 
Q 20.21875 56 33.015625 56 
Q 37.15625 56 41.109375 55.140625 
Q 45.0625 54.296875 48.78125 52.59375 
z
" id="DejaVuSans-99"/>
      <path d="M 41.109375 46.296875 
Q 39.59375 47.171875 37.8125 47.578125 
Q 36.03125 48 33.890625 48 
Q 26.265625 48 22.1875 43.046875 
Q 18.109375 38.09375 18.109375 28.8125 
L 18.109375 0 
L 9.078125 0 
L 9.078125 54.6875 
L 18.109375 54.6875 
L 18.109375 46.1875 
Q 20.953125 51.171875 25.484375 53.578125 
Q 30.03125 56 36.53125 56 
Q 37.453125 56 38.578125 55.875 
Q 39.703125 55.765625 41.0625 55.515625 
z
" id="DejaVuSans-114"/>
      <path d="M 33.796875 -14.703125 
L 28.90625 -14.703125 
L 28.859375 0 
Q 23.734375 0.09375 18.609375 1.1875 
Q 13.484375 2.296875 8.296875 4.5 
L 8.296875 13.28125 
Q 13.28125 10.15625 18.375 8.5625 
Q 23.484375 6.984375 28.90625 6.9375 
L 28.90625 29.203125 
Q 18.109375 30.953125 13.203125 35.15625 
Q 8.296875 39.359375 8.296875 46.6875 
Q 8.296875 54.640625 13.625 59.21875 
Q 18.953125 63.8125 28.90625 64.5 
L 28.90625 75.984375 
L 33.796875 75.984375 
L 33.796875 64.65625 
Q 38.328125 64.453125 42.578125 63.6875 
Q 46.828125 62.9375 50.875 61.625 
L 50.875 53.078125 
Q 46.828125 55.125 42.546875 56.25 
Q 38.28125 57.375 33.796875 57.5625 
L 33.796875 36.71875 
Q 44.875 35.015625 50.09375 30.609375 
Q 55.328125 26.21875 55.328125 18.609375 
Q 55.328125 10.359375 49.78125 5.59375 
Q 44.234375 0.828125 33.796875 0.09375 
z
M 28.90625 37.59375 
L 28.90625 57.625 
Q 23.25 56.984375 20.265625 54.390625 
Q 17.28125 51.8125 17.28125 47.515625 
Q 17.28125 43.3125 20.03125 40.96875 
Q 22.796875 38.625 28.90625 37.59375 
z
M 33.796875 28.21875 
L 33.796875 7.078125 
Q 39.984375 7.90625 43.140625 10.59375 
Q 46.296875 13.28125 46.296875 17.671875 
Q 46.296875 21.96875 43.28125 24.5 
Q 40.28125 27.046875 33.796875 28.21875 
z
" id="DejaVuSans-36"/>
      <path d="M 25.390625 72.90625 
L 33.6875 72.90625 
L 8.296875 -9.28125 
L 0 -9.28125 
z
" id="DejaVuSans-47"/>
      <path d="M 9.078125 75.984375 
L 18.109375 75.984375 
L 18.109375 31.109375 
L 44.921875 54.6875 
L 56.390625 54.6875 
L 27.390625 29.109375 
L 57.625 0 
L 45.90625 0 
L 18.109375 26.703125 
L 18.109375 0 
L 9.078125 0 
z
" id="DejaVuSans-107"/>
      <path d="M 3.328125 72.90625 
L 13.28125 72.90625 
L 28.609375 11.28125 
L 43.890625 72.90625 
L 54.984375 72.90625 
L 70.3125 11.28125 
L 85.59375 72.90625 
L 95.609375 72.90625 
L 77.296875 0 
L 64.890625 0 
L 49.515625 63.28125 
L 33.984375 0 
L 21.578125 0 
z
" id="DejaVuSans-87"/>
      <path d="M 54.890625 33.015625 
L 54.890625 0 
L 45.90625 0 
L 45.90625 32.71875 
Q 45.90625 40.484375 42.875 44.328125 
Q 39.84375 48.1875 33.796875 48.1875 
Q 26.515625 48.1875 22.3125 43.546875 
Q 18.109375 38.921875 18.109375 30.90625 
L 18.109375 0 
L 9.078125 0 
L 9.078125 75.984375 
L 18.109375 75.984375 
L 18.109375 46.1875 
Q 21.34375 51.125 25.703125 53.5625 
Q 30.078125 56 35.796875 56 
Q 45.21875 56 50.046875 50.171875 
Q 54.890625 44.34375 54.890625 33.015625 
z
" id="DejaVuSans-104"/>
     </defs>
     <g transform="translate(32.30125 152.350547)rotate(-90)scale(0.1 -0.1)">
      <use xlink:href="#DejaVuSans-67"/>
      <use x="69.824219" xlink:href="#DejaVuSans-111"/>
      <use x="131.005859" xlink:href="#DejaVuSans-115"/>
      <use x="183.105469" xlink:href="#DejaVuSans-116"/>
      <use x="222.314453" xlink:href="#DejaVuSans-32"/>
      <use x="254.101562" xlink:href="#DejaVuSans-111"/>
      <use x="315.283203" xlink:href="#DejaVuSans-102"/>
      <use x="350.488281" xlink:href="#DejaVuSans-32"/>
      <use x="382.275391" xlink:href="#DejaVuSans-101"/>
      <use x="443.798828" xlink:href="#DejaVuSans-108"/>
      <use x="471.582031" xlink:href="#DejaVuSans-101"/>
      <use x="533.105469" xlink:href="#DejaVuSans-99"/>
      <use x="588.085938" xlink:href="#DejaVuSans-116"/>
      <use x="627.294922" xlink:href="#DejaVuSans-114"/>
      <use x="668.408203" xlink:href="#DejaVuSans-105"/>
      <use x="696.191406" xlink:href="#DejaVuSans-99"/>
      <use x="751.171875" xlink:href="#DejaVuSans-105"/>
      <use x="778.955078" xlink:href="#DejaVuSans-116"/>
      <use x="818.164062" xlink:href="#DejaVuSans-121"/>
      <use x="877.34375" xlink:href="#DejaVuSans-32"/>
      <use x="909.130859" xlink:href="#DejaVuSans-91"/>
      <use x="948.144531" xlink:href="#DejaVuSans-36"/>
      <use x="1011.767578" xlink:href="#DejaVuSans-47"/>
      <use x="1045.458984" xlink:href="#DejaVuSans-107"/>
      <use x="1103.369141" xlink:href="#DejaVuSans-87"/>
      <use x="1202.246094" xlink:href="#DejaVuSans-104"/>
      <use x="1265.625" xlink:href="#DejaVuSans-93"/>
     </g>
    </g>
   </g>
   <g id="line2d_16">
    <path clip-path="url(#pbdc3c2c0e6)" d="M 292.24 156.337386 
L 61.92 156.419297 
L 61.92 156.419297 
L 61.92 156.419297 
L 61.92 156.419297 
L 61.92 156.419297 
L 61.92 156.419297 
L 61.92 156.419297 
L 61.92 156.419297 
L 61.92 156.419297 
L 61.92 156.419297 
L 61.92 156.419297 
" style="fill:none;stroke:#000000;stroke-dasharray:3.7,1.6;stroke-dashoffset:0;"/>
   </g>
   <g id="line2d_17">
    <path clip-path="url(#pbdc3c2c0e6)" d="M 292.24 127.110035 
L 268.406294 127.110053 
L 268.226803 127.110325 
L 268.077882 127.110531 
L 267.993048 127.110637 
L 267.9126 127.110728 
L 267.827781 127.110815 
L 234.502636 127.224196 
L 234.486446 127.224324 
L 234.478283 127.224382 
L 234.463273 127.224474 
L 231.976151 127.240221 
L 231.968949 127.240263 
L 226.68539 127.273224 
L 226.564998 127.27404 
L 225.686719 127.279494 
L 225.65086 127.279705 
L 216.94908 127.343248 
L 211.722821 127.395684 
L 211.460303 127.398455 
L 211.395582 127.399082 
L 206.442824 127.449702 
L 203.557991 127.484731 
L 202.527336 127.49694 
L 202.000983 127.50303 
L 200.682683 127.518174 
L 199.185083 127.534491 
L 197.65338 127.550905 
L 197.289756 127.55454 
L 196.555673 127.561507 
L 195.551964 127.570627 
L 193.0238 127.592461 
L 190.689105 127.614092 
L 186.598477 127.657509 
L 183.697846 127.692005 
L 182.032988 127.712565 
L 178.05733 127.764935 
L 175.039352 127.810248 
L 172.645037 127.849135 
L 168.587048 127.920589 
L 167.290704 127.945607 
L 165.60234 127.977285 
L 162.68704 128.035229 
L 160.098578 128.090691 
L 157.070471 128.161136 
L 154.801682 128.217233 
L 151.892687 128.294191 
L 149.194514 128.370679 
L 146.292133 128.460261 
L 143.930167 128.53788 
L 140.595529 128.656861 
L 137.818538 128.766075 
L 134.689012 128.899385 
L 130.639365 129.098212 
L 125.936633 129.374902 
L 120.977223 129.737446 
L 114.339245 130.383703 
L 105.229212 131.745954 
L 91.09949 136.030437 
L 89.281421 136.85644 
L 87.424288 137.706478 
L 85.040774 138.832272 
L 82.232833 140.250928 
L 78.63892 142.258883 
L 76.101073 143.84471 
L 73.819146 145.32766 
L 61.92 156.419297 
L 61.92 156.419297 
L 61.92 156.419297 
L 61.92 156.419297 
L 61.92 156.419297 
L 61.92 156.419297 
L 61.92 156.419297 
L 61.92 156.419297 
L 61.92 156.419297 
L 61.92 156.419297 
L 61.92 156.419297 
L 61.92 156.419297 
L 61.92 156.419297 
L 61.92 156.419297 
L 61.92 156.419297 
L 61.92 156.419297 
" style="fill:none;stroke:#0d0887;stroke-dasharray:3.7,1.6;stroke-dashoffset:0;"/>
   </g>
   <g id="line2d_18">
    <path clip-path="url(#pbdc3c2c0e6)" d="M 292.24 111.373444 
L 207.746781 111.374673 
L 198.92136 111.761684 
L 188.303754 112.594105 
L 188.303754 112.594105 
L 188.303754 112.594105 
L 186.978414 112.697243 
L 186.978414 112.697243 
L 186.978414 112.697243 
L 181.562988 113.09984 
L 181.562988 113.09984 
L 172.79109 113.906415 
L 164.825167 115.050185 
L 163.521715 115.286855 
L 163.466166 115.29646 
L 158.624976 116.163596 
L 158.369327 116.209075 
L 157.670587 116.329253 
L 155.554177 116.696555 
L 155.137431 116.762259 
L 154.705167 116.826658 
L 148.816889 117.797153 
L 146.324775 118.268209 
L 144.303647 118.693683 
L 142.803436 119.011248 
L 141.128925 119.352894 
L 139.661006 119.664188 
L 136.12086 120.41266 
L 133.347514 121.074969 
L 130.673853 121.769766 
L 128.702275 122.30016 
L 125.462269 123.218358 
L 123.998731 123.649802 
L 121.16994 124.527472 
L 119.709871 124.996791 
L 117.523676 125.700827 
L 115.56831 126.353664 
L 113.62047 127.012708 
L 111.831232 127.627586 
L 109.883078 128.309239 
L 107.520536 129.14777 
L 104.890994 130.144187 
L 102.481656 131.107983 
L 100.508842 131.933451 
L 98.358694 132.853439 
L 96.693364 133.581921 
L 94.733097 134.44415 
L 92.807999 135.304831 
L 91.109338 136.070154 
L 89.333412 136.875201 
L 87.415933 137.751063 
L 85.120097 138.832463 
L 82.273425 140.265729 
L 78.685443 142.263862 
L 76.134947 143.852808 
L 73.855442 145.329751 
L 61.92 156.419297 
L 61.92 156.419297 
L 61.92 156.419297 
L 61.92 156.419297 
L 61.92 156.419297 
L 61.92 156.419297 
L 61.92 156.419297 
L 61.92 156.419297 
L 61.92 156.419297 
L 61.92 156.419297 
L 61.92 156.419297 
L 61.92 156.419297 
L 61.92 156.419297 
L 61.92 156.419297 
L 61.92 156.419297 
L 61.92 156.419297 
" style="fill:none;stroke:#5302a3;stroke-dasharray:3.7,1.6;stroke-dashoffset:0;"/>
   </g>
   <g id="line2d_19">
    <path clip-path="url(#pbdc3c2c0e6)" d="M 292.24 90.949448 
L 172.481055 90.972438 
L 172.481055 90.972438 
L 172.481055 90.972438 
L 171.111971 91.441242 
L 171.111971 91.441242 
L 171.111971 91.441242 
L 169.48123 91.858707 
L 161.274388 94.721844 
L 156.165387 97.061767 
L 153.742365 98.288365 
L 152.004451 99.273807 
L 152.004451 99.273807 
L 146.14245 102.693837 
L 146.14245 102.693837 
L 144.695173 103.537159 
L 144.695173 103.537159 
L 144.151159 103.812816 
L 140.392504 105.723321 
L 140.020031 105.91253 
L 134.646819 108.896255 
L 133.580509 109.558456 
L 132.003689 110.515069 
L 130.736569 111.275126 
L 129.860476 111.764981 
L 129.373204 112.023955 
L 128.094584 112.65637 
L 124.873089 114.357407 
L 122.481006 115.690519 
L 121.149971 116.458647 
L 119.878621 117.184847 
L 118.97462 117.671954 
L 116.697677 118.873742 
L 114.036001 120.387703 
L 112.589683 121.22359 
L 111.015532 122.109682 
L 108.735183 123.455408 
L 107.781329 124.011022 
L 105.985039 125.04827 
L 104.394448 125.958001 
L 102.650906 126.964284 
L 100.82246 128.016316 
L 98.494838 129.411346 
L 97.536324 129.982931 
L 95.475025 131.179053 
L 92.796998 132.825217 
L 90.473272 134.338433 
L 87.883465 136.127683 
L 86.466037 137.124838 
L 85.142499 138.033695 
L 83.703349 139.002623 
L 82.343183 139.905983 
L 80.983331 140.787654 
L 79.511081 141.724298 
L 77.968025 142.69719 
L 76.134947 143.852808 
L 73.855442 145.329751 
L 61.92 156.419297 
L 61.92 156.419297 
L 61.92 156.419297 
L 61.92 156.419297 
L 61.92 156.419297 
L 61.92 156.419297 
L 61.92 156.419297 
L 61.92 156.419297 
L 61.92 156.419297 
L 61.92 156.419297 
L 61.92 156.419297 
L 61.92 156.419297 
L 61.92 156.419297 
L 61.92 156.419297 
L 61.92 156.419297 
L 61.92 156.419297 
" style="fill:none;stroke:#8b0aa5;stroke-dasharray:3.7,1.6;stroke-dashoffset:0;"/>
   </g>
   <g id="line2d_20">
    <path clip-path="url(#pbdc3c2c0e6)" d="M 292.24 75.162322 
L 221.805934 75.162659 
L 221.805934 75.162659 
L 221.805934 75.162659 
L 221.805934 75.162659 
L 221.805934 75.162659 
L 178.057365 76.908908 
L 178.057365 76.908908 
L 168.468738 78.270788 
L 168.468738 78.270788 
L 156.070832 81.062899 
L 152.169149 82.472428 
L 150.609762 83.060044 
L 150.609762 83.060044 
L 147.862093 84.039042 
L 146.948491 84.362362 
L 143.161699 85.744355 
L 143.046202 85.787084 
L 142.50839 85.970229 
L 141.317461 86.360363 
L 136.97394 87.952581 
L 134.588444 88.888428 
L 132.332125 89.813351 
L 129.178685 91.224709 
L 128.042 91.750594 
L 124.752718 93.376223 
L 122.933631 94.280066 
L 121.802967 94.848109 
L 118.526012 96.526499 
L 117.39273 97.127476 
L 114.869906 98.526706 
L 113.08893 99.515102 
L 111.683736 100.289812 
L 109.660057 101.428585 
L 106.590678 103.239097 
L 103.967799 104.898326 
L 101.36867 106.668055 
L 99.346181 108.103911 
L 96.808831 109.986463 
L 94.183671 112.083937 
L 92.375145 113.575368 
L 90.574195 115.064655 
L 88.543619 116.771501 
L 86.96234 118.129394 
L 70.996595 141.896642 
L 69.264257 145.901617 
L 69.113356 146.227307 
L 68.935329 146.574894 
L 68.737498 146.922337 
L 68.530054 147.25172 
L 68.263115 147.63534 
L 67.907327 148.10048 
L 61.92 156.419297 
L 61.92 156.419297 
L 61.92 156.419297 
L 61.92 156.419297 
L 61.92 156.419297 
L 61.92 156.419297 
L 61.92 156.419297 
L 61.92 156.419297 
L 61.92 156.419297 
L 61.92 156.419297 
L 61.92 156.419297 
L 61.92 156.419297 
L 61.92 156.419297 
L 61.92 156.419297 
L 61.92 156.419297 
L 61.92 156.419297 
L 61.92 156.419297 
L 61.92 156.419297 
" style="fill:none;stroke:#b83289;stroke-dasharray:3.7,1.6;stroke-dashoffset:0;"/>
   </g>
   <g id="line2d_21">
    <path clip-path="url(#pbdc3c2c0e6)" d="M 214.867499 58.50693 
L 214.867499 58.50693 
L 209.06902 62.59044 
L 209.06902 62.59044 
L 200.328547 70.017092 
L 200.328547 70.017092 
L 200.328547 70.017092 
L 198.415334 71.742821 
L 198.415334 71.742821 
L 192.982848 76.676824 
L 192.723455 76.918106 
L 192.723455 76.918106 
L 192.389319 77.179996 
L 190.998377 78.19992 
L 190.606487 78.488483 
L 185.626992 82.426423 
L 183.304278 84.503653 
L 182.743862 84.993456 
L 182.56476 85.137311 
L 181.778527 85.693586 
L 180.693283 86.444303 
L 179.067443 87.530227 
L 178.47296 87.911264 
L 177.950697 88.21434 
L 177.400984 88.511965 
L 175.515363 89.54367 
L 173.864967 90.428893 
L 170.956743 92.060034 
L 168.26017 93.711187 
L 166.116587 95.102227 
L 163.480852 96.860876 
L 162.361654 97.612049 
L 161.030819 98.480221 
L 159.394153 99.555203 
L 157.190811 101.045179 
L 154.772604 102.73625 
L 153.139882 103.908849 
L 151.633202 104.979614 
L 151.016488 105.400581 
L 149.554178 106.339259 
L 148.17734 107.209636 
L 146.685155 108.153753 
L 144.322987 109.687246 
L 143.076447 110.493144 
L 141.379737 111.570807 
L 140.15402 112.324982 
L 138.972522 113.038927 
L 137.287222 114.035424 
L 135.63441 115.019958 
L 134.491764 115.687356 
L 133.350091 116.331496 
L 131.802632 117.175544 
L 130.206959 118.049454 
L 129.236566 118.568169 
L 128.020783 119.195081 
L 126.649314 119.88341 
L 124.834767 120.781827 
L 123.339307 121.522691 
L 121.898134 122.223805 
L 120.308003 122.98777 
L 118.82329 123.698442 
L 117.389278 124.374391 
L 115.890353 125.068541 
L 114.44184 125.731059 
L 113.009326 126.377013 
L 111.340728 127.125491 
L 109.769955 127.827445 
L 108.167304 128.539366 
L 106.712736 129.176568 
L 105.032025 129.904339 
L 103.277365 130.672766 
L 101.414474 131.492366 
L 99.727252 132.245355 
L 98.154122 132.941206 
L 96.693364 133.581921 
L 94.733097 134.44415 
L 92.807999 135.304831 
L 91.109338 136.070154 
L 89.333412 136.875201 
L 87.415933 137.751063 
L 85.120097 138.832463 
L 82.273425 140.265729 
L 78.685443 142.263862 
L 76.134947 143.852808 
L 73.855442 145.329751 
L 61.92 156.419297 
L 61.92 156.419297 
L 61.92 156.419297 
L 61.92 156.419297 
L 61.92 156.419297 
L 61.92 156.419297 
L 61.92 156.419297 
L 61.92 156.419297 
L 61.92 156.419297 
L 61.92 156.419297 
L 61.92 156.419297 
L 61.92 156.419297 
L 61.92 156.419297 
L 61.92 156.419297 
L 61.92 156.419297 
L 61.92 156.419297 
" style="fill:none;stroke:#db5c68;stroke-dasharray:3.7,1.6;stroke-dashoffset:0;"/>
   </g>
   <g id="line2d_22">
    <path clip-path="url(#pbdc3c2c0e6)" d="M 72.416905 -1 
L 72.408774 2.207159 
L 72.378421 12.749022 
L 72.357115 19.359774 
L 72.320384 29.532922 
L 72.299785 34.617815 
L 72.261469 43.059946 
L 72.214533 52.473352 
L 72.180604 58.388958 
L 72.121234 67.77852 
L 72.083981 73.005579 
L 72.03696 78.983891 
L 71.974686 85.951474 
L 71.927753 90.687474 
L 71.872356 95.742145 
L 71.819937 99.950042 
L 71.763702 104.059781 
L 71.715966 107.162799 
L 71.674333 109.57773 
L 71.60122 113.332695 
L 71.540255 116.143937 
L 71.46113 119.38243 
L 71.384189 122.242676 
L 71.312654 124.610795 
L 71.211558 127.576738 
L 71.128936 129.763418 
L 71.036536 131.981214 
L 70.948162 133.902894 
L 70.879445 135.219232 
L 70.809946 136.406429 
L 70.759737 137.174512 
L 70.70883 137.874223 
L 70.640416 138.715331 
L 70.567113 139.521801 
L 70.484481 140.334084 
L 70.421578 140.890185 
L 70.340641 141.5331 
L 70.272471 142.018332 
L 70.20159 142.469602 
L 70.111726 142.981868 
L 70.029534 143.402552 
L 69.939461 143.815328 
L 69.862243 144.132957 
L 69.765373 144.490246 
L 69.647572 144.879377 
L 69.53464 145.214591 
L 69.401758 145.570489 
L 69.264257 145.901617 
L 69.113356 146.227307 
L 68.935329 146.574894 
L 68.737498 146.922337 
L 68.530054 147.25172 
L 68.263115 147.63534 
L 67.907327 148.10048 
L 61.92 156.419297 
L 61.92 156.419297 
L 61.92 156.419297 
L 61.92 156.419297 
L 61.92 156.419297 
L 61.92 156.419297 
L 61.92 156.419297 
L 61.92 156.419297 
L 61.92 156.419297 
L 61.92 156.419297 
L 61.92 156.419297 
L 61.92 156.419297 
L 61.92 156.419297 
L 61.92 156.419297 
L 61.92 156.419297 
L 61.92 156.419297 
L 61.92 156.419297 
L 61.92 156.419297 
" style="fill:none;stroke:#f48849;stroke-dasharray:3.7,1.6;stroke-dashoffset:0;"/>
   </g>
   <g id="line2d_23">
    <path clip-path="url(#pbdc3c2c0e6)" d="M 174.439621 -1 
L 171.668555 4.227801 
L 170.138017 7.713486 
L 169.276052 9.583641 
L 166.715431 15.314924 
L 164.419766 20.582287 
L 162.921163 24.04503 
L 159.752091 31.771953 
L 158.561394 34.702145 
L 157.587029 37.046121 
L 156.617829 39.270104 
L 155.201924 42.421662 
L 153.769167 45.503842 
L 152.004708 49.359186 
L 151.220269 51.044927 
L 149.883536 53.781652 
L 148.662425 56.19968 
L 147.388432 58.603439 
L 146.216911 60.728744 
L 144.532435 63.768791 
L 142.945535 66.619502 
L 140.925974 70.37717 
L 139.273979 73.441743 
L 137.887144 75.989158 
L 136.826007 77.85073 
L 135.464983 80.175901 
L 133.643551 83.293141 
L 132.020962 86.077888 
L 130.561558 88.53876 
L 129.276388 90.654046 
L 128.064247 92.596994 
L 126.986753 94.279007 
L 125.586354 96.379563 
L 124.463723 98.038175 
L 122.858473 100.332281 
L 121.366745 102.45939 
L 119.984036 104.389856 
L 118.837407 105.955906 
L 117.799341 107.32695 
L 116.474656 109.008226 
L 115.006044 110.822124 
L 113.860669 112.212281 
L 112.344142 114.005604 
L 111.108323 115.442687 
L 109.86368 116.845522 
L 108.556596 118.27822 
L 107.281007 119.635548 
L 106.312001 120.629838 
L 105.124092 121.796105 
L 103.683216 123.178888 
L 102.513496 124.279147 
L 100.963654 125.705137 
L 99.881014 126.67171 
L 98.697825 127.694596 
L 97.283527 128.882453 
L 95.854337 130.065319 
L 94.473955 131.186482 
L 93.249913 132.155564 
L 91.969169 133.139808 
L 90.730904 134.064277 
L 89.315039 135.100775 
L 87.856457 136.146903 
L 86.466037 137.124838 
L 85.142499 138.033695 
L 83.703349 139.002623 
L 82.343183 139.905983 
L 80.983331 140.787654 
L 79.511081 141.724298 
L 77.968025 142.69719 
L 76.134947 143.852808 
L 73.855442 145.329751 
L 61.92 156.419297 
L 61.92 156.419297 
L 61.92 156.419297 
L 61.92 156.419297 
L 61.92 156.419297 
L 61.92 156.419297 
L 61.92 156.419297 
L 61.92 156.419297 
L 61.92 156.419297 
L 61.92 156.419297 
L 61.92 156.419297 
L 61.92 156.419297 
L 61.92 156.419297 
L 61.92 156.419297 
L 61.92 156.419297 
L 61.92 156.419297 
" style="fill:none;stroke:#febd2a;stroke-dasharray:3.7,1.6;stroke-dashoffset:0;"/>
   </g>
   <g id="patch_3">
    <path d="M 61.92 156.419297 
L 61.92 17.819297 
" style="fill:none;stroke:#000000;stroke-linecap:square;stroke-linejoin:miter;stroke-width:0.8;"/>
   </g>
   <g id="patch_4">
    <path d="M 229.32 156.419297 
L 229.32 17.819297 
" style="fill:none;stroke:#000000;stroke-linecap:square;stroke-linejoin:miter;stroke-width:0.8;"/>
   </g>
   <g id="patch_5">
    <path d="M 61.92 156.419297 
L 229.32 156.419297 
" style="fill:none;stroke:#000000;stroke-linecap:square;stroke-linejoin:miter;stroke-width:0.8;"/>
   </g>
   <g id="patch_6">
    <path d="M 61.92 17.819297 
L 229.32 17.819297 
" style="fill:none;stroke:#000000;stroke-linecap:square;stroke-linejoin:miter;stroke-width:0.8;"/>
   </g>
   <g id="legend_1">
    <g id="line2d_24">
     <path d="M 18 202.857891 
L 36 202.857891 
" style="fill:none;stroke:#000000;stroke-dasharray:3.7,1.6;stroke-dashoffset:0;"/>
    </g>
    <g id="line2d_25"/>
    <g id="text_18">
     <!-- wind + solar + storage + natural gas -->
     <defs>
      <path d="M 4.203125 54.6875 
L 13.1875 54.6875 
L 24.421875 12.015625 
L 35.59375 54.6875 
L 46.1875 54.6875 
L 57.421875 12.015625 
L 68.609375 54.6875 
L 77.59375 54.6875 
L 63.28125 0 
L 52.6875 0 
L 40.921875 44.828125 
L 29.109375 0 
L 18.5 0 
z
" id="DejaVuSans-119"/>
      <path d="M 46 62.703125 
L 46 35.5 
L 73.1875 35.5 
L 73.1875 27.203125 
L 46 27.203125 
L 46 0 
L 37.796875 0 
L 37.796875 27.203125 
L 10.59375 27.203125 
L 10.59375 35.5 
L 37.796875 35.5 
L 37.796875 62.703125 
z
" id="DejaVuSans-43"/>
      <path d="M 45.40625 27.984375 
Q 45.40625 37.75 41.375 43.109375 
Q 37.359375 48.484375 30.078125 48.484375 
Q 22.859375 48.484375 18.828125 43.109375 
Q 14.796875 37.75 14.796875 27.984375 
Q 14.796875 18.265625 18.828125 12.890625 
Q 22.859375 7.515625 30.078125 7.515625 
Q 37.359375 7.515625 41.375 12.890625 
Q 45.40625 18.265625 45.40625 27.984375 
z
M 54.390625 6.78125 
Q 54.390625 -7.171875 48.1875 -13.984375 
Q 42 -20.796875 29.203125 -20.796875 
Q 24.46875 -20.796875 20.265625 -20.09375 
Q 16.0625 -19.390625 12.109375 -17.921875 
L 12.109375 -9.1875 
Q 16.0625 -11.328125 19.921875 -12.34375 
Q 23.78125 -13.375 27.78125 -13.375 
Q 36.625 -13.375 41.015625 -8.765625 
Q 45.40625 -4.15625 45.40625 5.171875 
L 45.40625 9.625 
Q 42.625 4.78125 38.28125 2.390625 
Q 33.9375 0 27.875 0 
Q 17.828125 0 11.671875 7.65625 
Q 5.515625 15.328125 5.515625 27.984375 
Q 5.515625 40.671875 11.671875 48.328125 
Q 17.828125 56 27.875 56 
Q 33.9375 56 38.28125 53.609375 
Q 42.625 51.21875 45.40625 46.390625 
L 45.40625 54.6875 
L 54.390625 54.6875 
z
" id="DejaVuSans-103"/>
      <path d="M 8.5 21.578125 
L 8.5 54.6875 
L 17.484375 54.6875 
L 17.484375 21.921875 
Q 17.484375 14.15625 20.5 10.265625 
Q 23.53125 6.390625 29.59375 6.390625 
Q 36.859375 6.390625 41.078125 11.03125 
Q 45.3125 15.671875 45.3125 23.6875 
L 45.3125 54.6875 
L 54.296875 54.6875 
L 54.296875 0 
L 45.3125 0 
L 45.3125 8.40625 
Q 42.046875 3.421875 37.71875 1 
Q 33.40625 -1.421875 27.6875 -1.421875 
Q 18.265625 -1.421875 13.375 4.4375 
Q 8.5 10.296875 8.5 21.578125 
z
M 31.109375 56 
z
" id="DejaVuSans-117"/>
     </defs>
     <g transform="translate(43.2 206.007891)scale(0.09 -0.09)">
      <use xlink:href="#DejaVuSans-119"/>
      <use x="81.787109" xlink:href="#DejaVuSans-105"/>
      <use x="109.570312" xlink:href="#DejaVuSans-110"/>
      <use x="172.949219" xlink:href="#DejaVuSans-100"/>
      <use x="236.425781" xlink:href="#DejaVuSans-32"/>
      <use x="268.212891" xlink:href="#DejaVuSans-43"/>
      <use x="352.001953" xlink:href="#DejaVuSans-32"/>
      <use x="383.789062" xlink:href="#DejaVuSans-115"/>
      <use x="435.888672" xlink:href="#DejaVuSans-111"/>
      <use x="497.070312" xlink:href="#DejaVuSans-108"/>
      <use x="524.853516" xlink:href="#DejaVuSans-97"/>
      <use x="586.132812" xlink:href="#DejaVuSans-114"/>
      <use x="627.246094" xlink:href="#DejaVuSans-32"/>
      <use x="659.033203" xlink:href="#DejaVuSans-43"/>
      <use x="742.822266" xlink:href="#DejaVuSans-32"/>
      <use x="774.609375" xlink:href="#DejaVuSans-115"/>
      <use x="826.708984" xlink:href="#DejaVuSans-116"/>
      <use x="865.917969" xlink:href="#DejaVuSans-111"/>
      <use x="927.099609" xlink:href="#DejaVuSans-114"/>
      <use x="968.212891" xlink:href="#DejaVuSans-97"/>
      <use x="1029.492188" xlink:href="#DejaVuSans-103"/>
      <use x="1092.96875" xlink:href="#DejaVuSans-101"/>
      <use x="1154.492188" xlink:href="#DejaVuSans-32"/>
      <use x="1186.279297" xlink:href="#DejaVuSans-43"/>
      <use x="1270.068359" xlink:href="#DejaVuSans-32"/>
      <use x="1301.855469" xlink:href="#DejaVuSans-110"/>
      <use x="1365.234375" xlink:href="#DejaVuSans-97"/>
      <use x="1426.513672" xlink:href="#DejaVuSans-116"/>
      <use x="1465.722656" xlink:href="#DejaVuSans-117"/>
      <use x="1529.101562" xlink:href="#DejaVuSans-114"/>
      <use x="1570.214844" xlink:href="#DejaVuSans-97"/>
      <use x="1631.494141" xlink:href="#DejaVuSans-108"/>
      <use x="1659.277344" xlink:href="#DejaVuSans-32"/>
      <use x="1691.064453" xlink:href="#DejaVuSans-103"/>
      <use x="1754.541016" xlink:href="#DejaVuSans-97"/>
      <use x="1815.820312" xlink:href="#DejaVuSans-115"/>
     </g>
    </g>
    <g id="line2d_26">
     <path d="M 18 216.069609 
L 36 216.069609 
" style="fill:none;stroke:#0d0887;stroke-dasharray:3.7,1.6;stroke-dashoffset:0;"/>
    </g>
    <g id="line2d_27"/>
    <g id="text_19">
     <!-- wind + solar + storage + natural gas @ \$200/t$\mathregular{CO_2}$ -->
     <defs>
      <path d="M 37.203125 26.21875 
Q 37.203125 19.234375 40.671875 15.25 
Q 44.140625 11.28125 50.203125 11.28125 
Q 56.203125 11.28125 59.640625 15.28125 
Q 63.09375 19.28125 63.09375 26.21875 
Q 63.09375 33.0625 59.578125 37.078125 
Q 56.0625 41.109375 50.09375 41.109375 
Q 44.1875 41.109375 40.6875 37.109375 
Q 37.203125 33.109375 37.203125 26.21875 
z
M 63.8125 11.625 
Q 60.890625 7.859375 57.109375 6.078125 
Q 53.328125 4.296875 48.296875 4.296875 
Q 39.890625 4.296875 34.640625 10.375 
Q 29.390625 16.453125 29.390625 26.21875 
Q 29.390625 35.984375 34.65625 42.078125 
Q 39.9375 48.1875 48.296875 48.1875 
Q 53.328125 48.1875 57.125 46.359375 
Q 60.9375 44.53125 63.8125 40.828125 
L 63.8125 47.21875 
L 70.796875 47.21875 
L 70.796875 11.28125 
Q 77.9375 12.359375 81.953125 17.796875 
Q 85.984375 23.25 85.984375 31.890625 
Q 85.984375 37.109375 84.4375 41.703125 
Q 82.90625 46.296875 79.78125 50.203125 
Q 74.703125 56.59375 67.40625 59.984375 
Q 60.109375 63.375 51.515625 63.375 
Q 45.515625 63.375 39.984375 61.78125 
Q 34.46875 60.203125 29.78125 57.078125 
Q 22.125 52.09375 17.796875 44.015625 
Q 13.484375 35.9375 13.484375 26.515625 
Q 13.484375 18.75 16.28125 11.953125 
Q 19.09375 5.171875 24.421875 0 
Q 29.546875 -5.078125 36.28125 -7.734375 
Q 43.015625 -10.40625 50.6875 -10.40625 
Q 56.984375 -10.40625 63.0625 -8.28125 
Q 69.140625 -6.15625 74.21875 -2.203125 
L 78.609375 -7.625 
Q 72.515625 -12.359375 65.3125 -14.875 
Q 58.109375 -17.390625 50.6875 -17.390625 
Q 41.65625 -17.390625 33.640625 -14.1875 
Q 25.640625 -10.984375 19.390625 -4.890625 
Q 13.140625 1.21875 9.859375 9.25 
Q 6.59375 17.28125 6.59375 26.515625 
Q 6.59375 35.40625 9.90625 43.453125 
Q 13.234375 51.515625 19.390625 57.625 
Q 25.6875 63.8125 33.9375 67.109375 
Q 42.1875 70.40625 51.421875 70.40625 
Q 61.765625 70.40625 70.625 66.15625 
Q 79.5 61.921875 85.5 54.109375 
Q 89.15625 49.3125 91.078125 43.703125 
Q 93.015625 38.09375 93.015625 32.078125 
Q 93.015625 19.234375 85.25 11.8125 
Q 77.484375 4.390625 63.8125 4.109375 
z
" id="DejaVuSans-64"/>
      <path d="M 39.40625 66.21875 
Q 28.65625 66.21875 22.328125 58.203125 
Q 16.015625 50.203125 16.015625 36.375 
Q 16.015625 22.609375 22.328125 14.59375 
Q 28.65625 6.59375 39.40625 6.59375 
Q 50.140625 6.59375 56.421875 14.59375 
Q 62.703125 22.609375 62.703125 36.375 
Q 62.703125 50.203125 56.421875 58.203125 
Q 50.140625 66.21875 39.40625 66.21875 
z
M 39.40625 74.21875 
Q 54.734375 74.21875 63.90625 63.9375 
Q 73.09375 53.65625 73.09375 36.375 
Q 73.09375 19.140625 63.90625 8.859375 
Q 54.734375 -1.421875 39.40625 -1.421875 
Q 24.03125 -1.421875 14.8125 8.828125 
Q 5.609375 19.09375 5.609375 36.375 
Q 5.609375 53.65625 14.8125 63.9375 
Q 24.03125 74.21875 39.40625 74.21875 
z
" id="DejaVuSans-79"/>
     </defs>
     <g transform="translate(43.2 219.219609)scale(0.09 -0.09)">
      <use transform="translate(0 0.015625)" xlink:href="#DejaVuSans-119"/>
      <use transform="translate(81.787109 0.015625)" xlink:href="#DejaVuSans-105"/>
      <use transform="translate(109.570312 0.015625)" xlink:href="#DejaVuSans-110"/>
      <use transform="translate(172.949219 0.015625)" xlink:href="#DejaVuSans-100"/>
      <use transform="translate(236.425781 0.015625)" xlink:href="#DejaVuSans-32"/>
      <use transform="translate(268.212891 0.015625)" xlink:href="#DejaVuSans-43"/>
      <use transform="translate(352.001953 0.015625)" xlink:href="#DejaVuSans-32"/>
      <use transform="translate(383.789062 0.015625)" xlink:href="#DejaVuSans-115"/>
      <use transform="translate(435.888672 0.015625)" xlink:href="#DejaVuSans-111"/>
      <use transform="translate(497.070312 0.015625)" xlink:href="#DejaVuSans-108"/>
      <use transform="translate(524.853516 0.015625)" xlink:href="#DejaVuSans-97"/>
      <use transform="translate(586.132812 0.015625)" xlink:href="#DejaVuSans-114"/>
      <use transform="translate(627.246094 0.015625)" xlink:href="#DejaVuSans-32"/>
      <use transform="translate(659.033203 0.015625)" xlink:href="#DejaVuSans-43"/>
      <use transform="translate(742.822266 0.015625)" xlink:href="#DejaVuSans-32"/>
      <use transform="translate(774.609375 0.015625)" xlink:href="#DejaVuSans-115"/>
      <use transform="translate(826.708984 0.015625)" xlink:href="#DejaVuSans-116"/>
      <use transform="translate(865.917969 0.015625)" xlink:href="#DejaVuSans-111"/>
      <use transform="translate(927.099609 0.015625)" xlink:href="#DejaVuSans-114"/>
      <use transform="translate(968.212891 0.015625)" xlink:href="#DejaVuSans-97"/>
      <use transform="translate(1029.492188 0.015625)" xlink:href="#DejaVuSans-103"/>
      <use transform="translate(1092.96875 0.015625)" xlink:href="#DejaVuSans-101"/>
      <use transform="translate(1154.492188 0.015625)" xlink:href="#DejaVuSans-32"/>
      <use transform="translate(1186.279297 0.015625)" xlink:href="#DejaVuSans-43"/>
      <use transform="translate(1270.068359 0.015625)" xlink:href="#DejaVuSans-32"/>
      <use transform="translate(1301.855469 0.015625)" xlink:href="#DejaVuSans-110"/>
      <use transform="translate(1365.234375 0.015625)" xlink:href="#DejaVuSans-97"/>
      <use transform="translate(1426.513672 0.015625)" xlink:href="#DejaVuSans-116"/>
      <use transform="translate(1465.722656 0.015625)" xlink:href="#DejaVuSans-117"/>
      <use transform="translate(1529.101562 0.015625)" xlink:href="#DejaVuSans-114"/>
      <use transform="translate(1570.214844 0.015625)" xlink:href="#DejaVuSans-97"/>
      <use transform="translate(1631.494141 0.015625)" xlink:href="#DejaVuSans-108"/>
      <use transform="translate(1659.277344 0.015625)" xlink:href="#DejaVuSans-32"/>
      <use transform="translate(1691.064453 0.015625)" xlink:href="#DejaVuSans-103"/>
      <use transform="translate(1754.541016 0.015625)" xlink:href="#DejaVuSans-97"/>
      <use transform="translate(1815.820312 0.015625)" xlink:href="#DejaVuSans-115"/>
      <use transform="translate(1867.919922 0.015625)" xlink:href="#DejaVuSans-32"/>
      <use transform="translate(1899.707031 0.015625)" xlink:href="#DejaVuSans-64"/>
      <use transform="translate(1999.707031 0.015625)" xlink:href="#DejaVuSans-32"/>
      <use transform="translate(2031.494141 0.015625)" xlink:href="#DejaVuSans-36"/>
      <use transform="translate(2095.101562 0.015625)" xlink:href="#DejaVuSans-50"/>
      <use transform="translate(2158.724609 0.015625)" xlink:href="#DejaVuSans-48"/>
      <use transform="translate(2222.347656 0.015625)" xlink:href="#DejaVuSans-48"/>
      <use transform="translate(2285.970703 0.015625)" xlink:href="#DejaVuSans-47"/>
      <use transform="translate(2319.662109 0.015625)" xlink:href="#DejaVuSans-116"/>
      <use transform="translate(2358.871094 0.015625)" xlink:href="#DejaVuSans-67"/>
      <use transform="translate(2428.695312 0.015625)" xlink:href="#DejaVuSans-79"/>
      <use transform="translate(2508.363281 -16.390625)scale(0.7)" xlink:href="#DejaVuSans-50"/>
     </g>
    </g>
    <g id="line2d_28">
     <path d="M 18 229.298203 
L 36 229.298203 
" style="fill:none;stroke:#5302a3;stroke-dasharray:3.7,1.6;stroke-dashoffset:0;"/>
    </g>
    <g id="line2d_29"/>
    <g id="text_20">
     <!-- wind + solar + storage -->
     <g transform="translate(43.2 232.448203)scale(0.09 -0.09)">
      <use xlink:href="#DejaVuSans-119"/>
      <use x="81.787109" xlink:href="#DejaVuSans-105"/>
      <use x="109.570312" xlink:href="#DejaVuSans-110"/>
      <use x="172.949219" xlink:href="#DejaVuSans-100"/>
      <use x="236.425781" xlink:href="#DejaVuSans-32"/>
      <use x="268.212891" xlink:href="#DejaVuSans-43"/>
      <use x="352.001953" xlink:href="#DejaVuSans-32"/>
      <use x="383.789062" xlink:href="#DejaVuSans-115"/>
      <use x="435.888672" xlink:href="#DejaVuSans-111"/>
      <use x="497.070312" xlink:href="#DejaVuSans-108"/>
      <use x="524.853516" xlink:href="#DejaVuSans-97"/>
      <use x="586.132812" xlink:href="#DejaVuSans-114"/>
      <use x="627.246094" xlink:href="#DejaVuSans-32"/>
      <use x="659.033203" xlink:href="#DejaVuSans-43"/>
      <use x="742.822266" xlink:href="#DejaVuSans-32"/>
      <use x="774.609375" xlink:href="#DejaVuSans-115"/>
      <use x="826.708984" xlink:href="#DejaVuSans-116"/>
      <use x="865.917969" xlink:href="#DejaVuSans-111"/>
      <use x="927.099609" xlink:href="#DejaVuSans-114"/>
      <use x="968.212891" xlink:href="#DejaVuSans-97"/>
      <use x="1029.492188" xlink:href="#DejaVuSans-103"/>
      <use x="1092.96875" xlink:href="#DejaVuSans-101"/>
     </g>
    </g>
    <g id="line2d_30">
     <path d="M 18 242.508516 
L 36 242.508516 
" style="fill:none;stroke:#8b0aa5;stroke-dasharray:3.7,1.6;stroke-dashoffset:0;"/>
    </g>
    <g id="line2d_31"/>
    <g id="text_21">
     <!-- wind + storage -->
     <g transform="translate(43.2 245.658516)scale(0.09 -0.09)">
      <use xlink:href="#DejaVuSans-119"/>
      <use x="81.787109" xlink:href="#DejaVuSans-105"/>
      <use x="109.570312" xlink:href="#DejaVuSans-110"/>
      <use x="172.949219" xlink:href="#DejaVuSans-100"/>
      <use x="236.425781" xlink:href="#DejaVuSans-32"/>
      <use x="268.212891" xlink:href="#DejaVuSans-43"/>
      <use x="352.001953" xlink:href="#DejaVuSans-32"/>
      <use x="383.789062" xlink:href="#DejaVuSans-115"/>
      <use x="435.888672" xlink:href="#DejaVuSans-116"/>
      <use x="475.097656" xlink:href="#DejaVuSans-111"/>
      <use x="536.279297" xlink:href="#DejaVuSans-114"/>
      <use x="577.392578" xlink:href="#DejaVuSans-97"/>
      <use x="638.671875" xlink:href="#DejaVuSans-103"/>
      <use x="702.148438" xlink:href="#DejaVuSans-101"/>
     </g>
    </g>
    <g id="line2d_32">
     <path d="M 18 255.718828 
L 36 255.718828 
" style="fill:none;stroke:#b83289;stroke-dasharray:3.7,1.6;stroke-dashoffset:0;"/>
    </g>
    <g id="line2d_33"/>
    <g id="text_22">
     <!-- solar + storage -->
     <g transform="translate(43.2 258.868828)scale(0.09 -0.09)">
      <use xlink:href="#DejaVuSans-115"/>
      <use x="52.099609" xlink:href="#DejaVuSans-111"/>
      <use x="113.28125" xlink:href="#DejaVuSans-108"/>
      <use x="141.064453" xlink:href="#DejaVuSans-97"/>
      <use x="202.34375" xlink:href="#DejaVuSans-114"/>
      <use x="243.457031" xlink:href="#DejaVuSans-32"/>
      <use x="275.244141" xlink:href="#DejaVuSans-43"/>
      <use x="359.033203" xlink:href="#DejaVuSans-32"/>
      <use x="390.820312" xlink:href="#DejaVuSans-115"/>
      <use x="442.919922" xlink:href="#DejaVuSans-116"/>
      <use x="482.128906" xlink:href="#DejaVuSans-111"/>
      <use x="543.310547" xlink:href="#DejaVuSans-114"/>
      <use x="584.423828" xlink:href="#DejaVuSans-97"/>
      <use x="645.703125" xlink:href="#DejaVuSans-103"/>
      <use x="709.179688" xlink:href="#DejaVuSans-101"/>
     </g>
    </g>
    <g id="line2d_34">
     <path d="M 18 268.929141 
L 36 268.929141 
" style="fill:none;stroke:#db5c68;stroke-dasharray:3.7,1.6;stroke-dashoffset:0;"/>
    </g>
    <g id="line2d_35"/>
    <g id="text_23">
     <!-- wind + solar -->
     <g transform="translate(43.2 272.079141)scale(0.09 -0.09)">
      <use xlink:href="#DejaVuSans-119"/>
      <use x="81.787109" xlink:href="#DejaVuSans-105"/>
      <use x="109.570312" xlink:href="#DejaVuSans-110"/>
      <use x="172.949219" xlink:href="#DejaVuSans-100"/>
      <use x="236.425781" xlink:href="#DejaVuSans-32"/>
      <use x="268.212891" xlink:href="#DejaVuSans-43"/>
      <use x="352.001953" xlink:href="#DejaVuSans-32"/>
      <use x="383.789062" xlink:href="#DejaVuSans-115"/>
      <use x="435.888672" xlink:href="#DejaVuSans-111"/>
      <use x="497.070312" xlink:href="#DejaVuSans-108"/>
      <use x="524.853516" xlink:href="#DejaVuSans-97"/>
      <use x="586.132812" xlink:href="#DejaVuSans-114"/>
     </g>
    </g>
    <g id="line2d_36">
     <path d="M 18 282.139453 
L 36 282.139453 
" style="fill:none;stroke:#f48849;stroke-dasharray:3.7,1.6;stroke-dashoffset:0;"/>
    </g>
    <g id="line2d_37"/>
    <g id="text_24">
     <!-- solar only -->
     <g transform="translate(43.2 285.289453)scale(0.09 -0.09)">
      <use xlink:href="#DejaVuSans-115"/>
      <use x="52.099609" xlink:href="#DejaVuSans-111"/>
      <use x="113.28125" xlink:href="#DejaVuSans-108"/>
      <use x="141.064453" xlink:href="#DejaVuSans-97"/>
      <use x="202.34375" xlink:href="#DejaVuSans-114"/>
      <use x="243.457031" xlink:href="#DejaVuSans-32"/>
      <use x="275.244141" xlink:href="#DejaVuSans-111"/>
      <use x="336.425781" xlink:href="#DejaVuSans-110"/>
      <use x="399.804688" xlink:href="#DejaVuSans-108"/>
      <use x="427.587891" xlink:href="#DejaVuSans-121"/>
     </g>
    </g>
    <g id="line2d_38">
     <path d="M 18 295.349766 
L 36 295.349766 
" style="fill:none;stroke:#febd2a;stroke-dasharray:3.7,1.6;stroke-dashoffset:0;"/>
    </g>
    <g id="line2d_39"/>
    <g id="text_25">
     <!-- wind only -->
     <g transform="translate(43.2 298.499766)scale(0.09 -0.09)">
      <use xlink:href="#DejaVuSans-119"/>
      <use x="81.787109" xlink:href="#DejaVuSans-105"/>
      <use x="109.570312" xlink:href="#DejaVuSans-110"/>
      <use x="172.949219" xlink:href="#DejaVuSans-100"/>
      <use x="236.425781" xlink:href="#DejaVuSans-32"/>
      <use x="268.212891" xlink:href="#DejaVuSans-111"/>
      <use x="329.394531" xlink:href="#DejaVuSans-110"/>
      <use x="392.773438" xlink:href="#DejaVuSans-108"/>
      <use x="420.556641" xlink:href="#DejaVuSans-121"/>
     </g>
    </g>
   </g>
  </g>
 </g>
 <defs>
  <clipPath id="pbdc3c2c0e6">
   <rect height="138.6" width="167.4" x="61.92" y="17.819297"/>
  </clipPath>
 </defs>
</svg>
