<?xml version="1.0" encoding="utf-8" standalone="no"?>
<!DOCTYPE svg PUBLIC "-//W3C//DTD SVG 1.1//EN"
  "http://www.w3.org/Graphics/SVG/1.1/DTD/svg11.dtd">
<!-- Created with matplotlib (https://matplotlib.org/) -->
<svg height="180pt" version="1.1" viewBox="0 0 432 180" width="432pt" xmlns="http://www.w3.org/2000/svg" xmlns:xlink="http://www.w3.org/1999/xlink">
 <defs>
  <style type="text/css">
*{stroke-linecap:butt;stroke-linejoin:round;}
  </style>
 </defs>
 <g id="figure_1">
  <g id="patch_1">
   <path d="M 0 180 
L 432 180 
L 432 0 
L 0 0 
z
" style="fill:#ffffff;"/>
  </g>
  <g id="axes_1">
   <g id="patch_2">
    <path d="M 54 160.2 
L 193.5 160.2 
L 193.5 21.6 
L 54 21.6 
z
" style="fill:#ffffff;"/>
   </g>
   <g id="matplotlib.axis_1">
    <g id="xtick_1">
     <g id="line2d_1">
      <defs>
       <path d="M 0 0 
L 0 -2.5 
" id="mc2720b3725" style="stroke:#000000;stroke-width:0.8;"/>
      </defs>
      <g>
       <use style="stroke:#000000;stroke-width:0.8;" x="54" xlink:href="#mc2720b3725" y="160.2"/>
      </g>
     </g>
     <g id="text_1">
      <!-- 0 -->
      <defs>
       <path d="M 31.78125 66.40625 
Q 24.171875 66.40625 20.328125 58.90625 
Q 16.5 51.421875 16.5 36.375 
Q 16.5 21.390625 20.328125 13.890625 
Q 24.171875 6.390625 31.78125 6.390625 
Q 39.453125 6.390625 43.28125 13.890625 
Q 47.125 21.390625 47.125 36.375 
Q 47.125 51.421875 43.28125 58.90625 
Q 39.453125 66.40625 31.78125 66.40625 
z
M 31.78125 74.21875 
Q 44.046875 74.21875 50.515625 64.515625 
Q 56.984375 54.828125 56.984375 36.375 
Q 56.984375 17.96875 50.515625 8.265625 
Q 44.046875 -1.421875 31.78125 -1.421875 
Q 19.53125 -1.421875 13.0625 8.265625 
Q 6.59375 17.96875 6.59375 36.375 
Q 6.59375 54.828125 13.0625 64.515625 
Q 19.53125 74.21875 31.78125 74.21875 
z
" id="DejaVuSans-48"/>
      </defs>
      <g transform="translate(51.136875 170.538594)scale(0.09 -0.09)">
       <use xlink:href="#DejaVuSans-48"/>
      </g>
     </g>
    </g>
    <g id="xtick_2">
     <g id="line2d_2">
      <g>
       <use style="stroke:#000000;stroke-width:0.8;" x="81.9" xlink:href="#mc2720b3725" y="160.2"/>
      </g>
     </g>
     <g id="text_2">
      <!-- 90 -->
      <defs>
       <path d="M 10.984375 1.515625 
L 10.984375 10.5 
Q 14.703125 8.734375 18.5 7.8125 
Q 22.3125 6.890625 25.984375 6.890625 
Q 35.75 6.890625 40.890625 13.453125 
Q 46.046875 20.015625 46.78125 33.40625 
Q 43.953125 29.203125 39.59375 26.953125 
Q 35.25 24.703125 29.984375 24.703125 
Q 19.046875 24.703125 12.671875 31.3125 
Q 6.296875 37.9375 6.296875 49.421875 
Q 6.296875 60.640625 12.9375 67.421875 
Q 19.578125 74.21875 30.609375 74.21875 
Q 43.265625 74.21875 49.921875 64.515625 
Q 56.59375 54.828125 56.59375 36.375 
Q 56.59375 19.140625 48.40625 8.859375 
Q 40.234375 -1.421875 26.421875 -1.421875 
Q 22.703125 -1.421875 18.890625 -0.6875 
Q 15.09375 0.046875 10.984375 1.515625 
z
M 30.609375 32.421875 
Q 37.25 32.421875 41.125 36.953125 
Q 45.015625 41.5 45.015625 49.421875 
Q 45.015625 57.28125 41.125 61.84375 
Q 37.25 66.40625 30.609375 66.40625 
Q 23.96875 66.40625 20.09375 61.84375 
Q 16.21875 57.28125 16.21875 49.421875 
Q 16.21875 41.5 20.09375 36.953125 
Q 23.96875 32.421875 30.609375 32.421875 
z
" id="DejaVuSans-57"/>
      </defs>
      <g transform="translate(76.17375 170.538594)scale(0.09 -0.09)">
       <use xlink:href="#DejaVuSans-57"/>
       <use x="63.623047" xlink:href="#DejaVuSans-48"/>
      </g>
     </g>
    </g>
    <g id="xtick_3">
     <g id="line2d_3">
      <g>
       <use style="stroke:#000000;stroke-width:0.8;" x="109.8" xlink:href="#mc2720b3725" y="160.2"/>
      </g>
     </g>
     <g id="text_3">
      <!-- 99 -->
      <g transform="translate(104.07375 170.538594)scale(0.09 -0.09)">
       <use xlink:href="#DejaVuSans-57"/>
       <use x="63.623047" xlink:href="#DejaVuSans-57"/>
      </g>
     </g>
    </g>
    <g id="xtick_4">
     <g id="line2d_4">
      <g>
       <use style="stroke:#000000;stroke-width:0.8;" x="137.7" xlink:href="#mc2720b3725" y="160.2"/>
      </g>
     </g>
     <g id="text_4">
      <!-- 99.9 -->
      <defs>
       <path d="M 10.6875 12.40625 
L 21 12.40625 
L 21 0 
L 10.6875 0 
z
" id="DejaVuSans-46"/>
      </defs>
      <g transform="translate(127.680469 170.538594)scale(0.09 -0.09)">
       <use xlink:href="#DejaVuSans-57"/>
       <use x="63.623047" xlink:href="#DejaVuSans-57"/>
       <use x="127.246094" xlink:href="#DejaVuSans-46"/>
       <use x="159.033203" xlink:href="#DejaVuSans-57"/>
      </g>
     </g>
    </g>
    <g id="xtick_5">
     <g id="line2d_5">
      <g>
       <use style="stroke:#000000;stroke-width:0.8;" x="165.6" xlink:href="#mc2720b3725" y="160.2"/>
      </g>
     </g>
     <g id="text_5">
      <!-- 99.99 -->
      <g transform="translate(152.717344 170.538594)scale(0.09 -0.09)">
       <use xlink:href="#DejaVuSans-57"/>
       <use x="63.623047" xlink:href="#DejaVuSans-57"/>
       <use x="127.246094" xlink:href="#DejaVuSans-46"/>
       <use x="159.033203" xlink:href="#DejaVuSans-57"/>
       <use x="222.65625" xlink:href="#DejaVuSans-57"/>
      </g>
     </g>
    </g>
    <g id="xtick_6">
     <g id="line2d_6">
      <g>
       <use style="stroke:#000000;stroke-width:0.8;" x="193.5" xlink:href="#mc2720b3725" y="160.2"/>
      </g>
     </g>
     <g id="text_6">
      <!-- 99.999 -->
      <g transform="translate(177.754219 170.538594)scale(0.09 -0.09)">
       <use xlink:href="#DejaVuSans-57"/>
       <use x="63.623047" xlink:href="#DejaVuSans-57"/>
       <use x="127.246094" xlink:href="#DejaVuSans-46"/>
       <use x="159.033203" xlink:href="#DejaVuSans-57"/>
       <use x="222.65625" xlink:href="#DejaVuSans-57"/>
       <use x="286.279297" xlink:href="#DejaVuSans-57"/>
      </g>
     </g>
    </g>
    <g id="text_7">
     <!-- Reliability [% demand met] -->
     <defs>
      <path d="M 44.390625 34.1875 
Q 47.5625 33.109375 50.5625 29.59375 
Q 53.5625 26.078125 56.59375 19.921875 
L 66.609375 0 
L 56 0 
L 46.6875 18.703125 
Q 43.0625 26.03125 39.671875 28.421875 
Q 36.28125 30.8125 30.421875 30.8125 
L 19.671875 30.8125 
L 19.671875 0 
L 9.8125 0 
L 9.8125 72.90625 
L 32.078125 72.90625 
Q 44.578125 72.90625 50.734375 67.671875 
Q 56.890625 62.453125 56.890625 51.90625 
Q 56.890625 45.015625 53.6875 40.46875 
Q 50.484375 35.9375 44.390625 34.1875 
z
M 19.671875 64.796875 
L 19.671875 38.921875 
L 32.078125 38.921875 
Q 39.203125 38.921875 42.84375 42.21875 
Q 46.484375 45.515625 46.484375 51.90625 
Q 46.484375 58.296875 42.84375 61.546875 
Q 39.203125 64.796875 32.078125 64.796875 
z
" id="DejaVuSans-82"/>
      <path d="M 56.203125 29.59375 
L 56.203125 25.203125 
L 14.890625 25.203125 
Q 15.484375 15.921875 20.484375 11.0625 
Q 25.484375 6.203125 34.421875 6.203125 
Q 39.59375 6.203125 44.453125 7.46875 
Q 49.3125 8.734375 54.109375 11.28125 
L 54.109375 2.78125 
Q 49.265625 0.734375 44.1875 -0.34375 
Q 39.109375 -1.421875 33.890625 -1.421875 
Q 20.796875 -1.421875 13.15625 6.1875 
Q 5.515625 13.8125 5.515625 26.8125 
Q 5.515625 40.234375 12.765625 48.109375 
Q 20.015625 56 32.328125 56 
Q 43.359375 56 49.78125 48.890625 
Q 56.203125 41.796875 56.203125 29.59375 
z
M 47.21875 32.234375 
Q 47.125 39.59375 43.09375 43.984375 
Q 39.0625 48.390625 32.421875 48.390625 
Q 24.90625 48.390625 20.390625 44.140625 
Q 15.875 39.890625 15.1875 32.171875 
z
" id="DejaVuSans-101"/>
      <path d="M 9.421875 75.984375 
L 18.40625 75.984375 
L 18.40625 0 
L 9.421875 0 
z
" id="DejaVuSans-108"/>
      <path d="M 9.421875 54.6875 
L 18.40625 54.6875 
L 18.40625 0 
L 9.421875 0 
z
M 9.421875 75.984375 
L 18.40625 75.984375 
L 18.40625 64.59375 
L 9.421875 64.59375 
z
" id="DejaVuSans-105"/>
      <path d="M 34.28125 27.484375 
Q 23.390625 27.484375 19.1875 25 
Q 14.984375 22.515625 14.984375 16.5 
Q 14.984375 11.71875 18.140625 8.90625 
Q 21.296875 6.109375 26.703125 6.109375 
Q 34.1875 6.109375 38.703125 11.40625 
Q 43.21875 16.703125 43.21875 25.484375 
L 43.21875 27.484375 
z
M 52.203125 31.203125 
L 52.203125 0 
L 43.21875 0 
L 43.21875 8.296875 
Q 40.140625 3.328125 35.546875 0.953125 
Q 30.953125 -1.421875 24.3125 -1.421875 
Q 15.921875 -1.421875 10.953125 3.296875 
Q 6 8.015625 6 15.921875 
Q 6 25.140625 12.171875 29.828125 
Q 18.359375 34.515625 30.609375 34.515625 
L 43.21875 34.515625 
L 43.21875 35.40625 
Q 43.21875 41.609375 39.140625 45 
Q 35.0625 48.390625 27.6875 48.390625 
Q 23 48.390625 18.546875 47.265625 
Q 14.109375 46.140625 10.015625 43.890625 
L 10.015625 52.203125 
Q 14.9375 54.109375 19.578125 55.046875 
Q 24.21875 56 28.609375 56 
Q 40.484375 56 46.34375 49.84375 
Q 52.203125 43.703125 52.203125 31.203125 
z
" id="DejaVuSans-97"/>
      <path d="M 48.6875 27.296875 
Q 48.6875 37.203125 44.609375 42.84375 
Q 40.53125 48.484375 33.40625 48.484375 
Q 26.265625 48.484375 22.1875 42.84375 
Q 18.109375 37.203125 18.109375 27.296875 
Q 18.109375 17.390625 22.1875 11.75 
Q 26.265625 6.109375 33.40625 6.109375 
Q 40.53125 6.109375 44.609375 11.75 
Q 48.6875 17.390625 48.6875 27.296875 
z
M 18.109375 46.390625 
Q 20.953125 51.265625 25.265625 53.625 
Q 29.59375 56 35.59375 56 
Q 45.5625 56 51.78125 48.09375 
Q 58.015625 40.1875 58.015625 27.296875 
Q 58.015625 14.40625 51.78125 6.484375 
Q 45.5625 -1.421875 35.59375 -1.421875 
Q 29.59375 -1.421875 25.265625 0.953125 
Q 20.953125 3.328125 18.109375 8.203125 
L 18.109375 0 
L 9.078125 0 
L 9.078125 75.984375 
L 18.109375 75.984375 
z
" id="DejaVuSans-98"/>
      <path d="M 18.3125 70.21875 
L 18.3125 54.6875 
L 36.8125 54.6875 
L 36.8125 47.703125 
L 18.3125 47.703125 
L 18.3125 18.015625 
Q 18.3125 11.328125 20.140625 9.421875 
Q 21.96875 7.515625 27.59375 7.515625 
L 36.8125 7.515625 
L 36.8125 0 
L 27.59375 0 
Q 17.1875 0 13.234375 3.875 
Q 9.28125 7.765625 9.28125 18.015625 
L 9.28125 47.703125 
L 2.6875 47.703125 
L 2.6875 54.6875 
L 9.28125 54.6875 
L 9.28125 70.21875 
z
" id="DejaVuSans-116"/>
      <path d="M 32.171875 -5.078125 
Q 28.375 -14.84375 24.75 -17.8125 
Q 21.140625 -20.796875 15.09375 -20.796875 
L 7.90625 -20.796875 
L 7.90625 -13.28125 
L 13.1875 -13.28125 
Q 16.890625 -13.28125 18.9375 -11.515625 
Q 21 -9.765625 23.484375 -3.21875 
L 25.09375 0.875 
L 2.984375 54.6875 
L 12.5 54.6875 
L 29.59375 11.921875 
L 46.6875 54.6875 
L 56.203125 54.6875 
z
" id="DejaVuSans-121"/>
      <path id="DejaVuSans-32"/>
      <path d="M 8.59375 75.984375 
L 29.296875 75.984375 
L 29.296875 69 
L 17.578125 69 
L 17.578125 -6.203125 
L 29.296875 -6.203125 
L 29.296875 -13.1875 
L 8.59375 -13.1875 
z
" id="DejaVuSans-91"/>
      <path d="M 72.703125 32.078125 
Q 68.453125 32.078125 66.03125 28.46875 
Q 63.625 24.859375 63.625 18.40625 
Q 63.625 12.0625 66.03125 8.421875 
Q 68.453125 4.78125 72.703125 4.78125 
Q 76.859375 4.78125 79.265625 8.421875 
Q 81.6875 12.0625 81.6875 18.40625 
Q 81.6875 24.8125 79.265625 28.4375 
Q 76.859375 32.078125 72.703125 32.078125 
z
M 72.703125 38.28125 
Q 80.421875 38.28125 84.953125 32.90625 
Q 89.5 27.546875 89.5 18.40625 
Q 89.5 9.28125 84.9375 3.921875 
Q 80.375 -1.421875 72.703125 -1.421875 
Q 64.890625 -1.421875 60.34375 3.921875 
Q 55.8125 9.28125 55.8125 18.40625 
Q 55.8125 27.59375 60.375 32.9375 
Q 64.9375 38.28125 72.703125 38.28125 
z
M 22.3125 68.015625 
Q 18.109375 68.015625 15.6875 64.375 
Q 13.28125 60.75 13.28125 54.390625 
Q 13.28125 47.953125 15.671875 44.328125 
Q 18.0625 40.71875 22.3125 40.71875 
Q 26.5625 40.71875 28.96875 44.328125 
Q 31.390625 47.953125 31.390625 54.390625 
Q 31.390625 60.6875 28.953125 64.34375 
Q 26.515625 68.015625 22.3125 68.015625 
z
M 66.40625 74.21875 
L 74.21875 74.21875 
L 28.609375 -1.421875 
L 20.796875 -1.421875 
z
M 22.3125 74.21875 
Q 30.03125 74.21875 34.609375 68.875 
Q 39.203125 63.53125 39.203125 54.390625 
Q 39.203125 45.171875 34.640625 39.84375 
Q 30.078125 34.515625 22.3125 34.515625 
Q 14.546875 34.515625 10.03125 39.859375 
Q 5.515625 45.21875 5.515625 54.390625 
Q 5.515625 63.484375 10.046875 68.84375 
Q 14.59375 74.21875 22.3125 74.21875 
z
" id="DejaVuSans-37"/>
      <path d="M 45.40625 46.390625 
L 45.40625 75.984375 
L 54.390625 75.984375 
L 54.390625 0 
L 45.40625 0 
L 45.40625 8.203125 
Q 42.578125 3.328125 38.25 0.953125 
Q 33.9375 -1.421875 27.875 -1.421875 
Q 17.96875 -1.421875 11.734375 6.484375 
Q 5.515625 14.40625 5.515625 27.296875 
Q 5.515625 40.1875 11.734375 48.09375 
Q 17.96875 56 27.875 56 
Q 33.9375 56 38.25 53.625 
Q 42.578125 51.265625 45.40625 46.390625 
z
M 14.796875 27.296875 
Q 14.796875 17.390625 18.875 11.75 
Q 22.953125 6.109375 30.078125 6.109375 
Q 37.203125 6.109375 41.296875 11.75 
Q 45.40625 17.390625 45.40625 27.296875 
Q 45.40625 37.203125 41.296875 42.84375 
Q 37.203125 48.484375 30.078125 48.484375 
Q 22.953125 48.484375 18.875 42.84375 
Q 14.796875 37.203125 14.796875 27.296875 
z
" id="DejaVuSans-100"/>
      <path d="M 52 44.1875 
Q 55.375 50.25 60.0625 53.125 
Q 64.75 56 71.09375 56 
Q 79.640625 56 84.28125 50.015625 
Q 88.921875 44.046875 88.921875 33.015625 
L 88.921875 0 
L 79.890625 0 
L 79.890625 32.71875 
Q 79.890625 40.578125 77.09375 44.375 
Q 74.3125 48.1875 68.609375 48.1875 
Q 61.625 48.1875 57.5625 43.546875 
Q 53.515625 38.921875 53.515625 30.90625 
L 53.515625 0 
L 44.484375 0 
L 44.484375 32.71875 
Q 44.484375 40.625 41.703125 44.40625 
Q 38.921875 48.1875 33.109375 48.1875 
Q 26.21875 48.1875 22.15625 43.53125 
Q 18.109375 38.875 18.109375 30.90625 
L 18.109375 0 
L 9.078125 0 
L 9.078125 54.6875 
L 18.109375 54.6875 
L 18.109375 46.1875 
Q 21.1875 51.21875 25.484375 53.609375 
Q 29.78125 56 35.6875 56 
Q 41.65625 56 45.828125 52.96875 
Q 50 49.953125 52 44.1875 
z
" id="DejaVuSans-109"/>
      <path d="M 54.890625 33.015625 
L 54.890625 0 
L 45.90625 0 
L 45.90625 32.71875 
Q 45.90625 40.484375 42.875 44.328125 
Q 39.84375 48.1875 33.796875 48.1875 
Q 26.515625 48.1875 22.3125 43.546875 
Q 18.109375 38.921875 18.109375 30.90625 
L 18.109375 0 
L 9.078125 0 
L 9.078125 54.6875 
L 18.109375 54.6875 
L 18.109375 46.1875 
Q 21.34375 51.125 25.703125 53.5625 
Q 30.078125 56 35.796875 56 
Q 45.21875 56 50.046875 50.171875 
Q 54.890625 44.34375 54.890625 33.015625 
z
" id="DejaVuSans-110"/>
      <path d="M 30.421875 75.984375 
L 30.421875 -13.1875 
L 9.71875 -13.1875 
L 9.71875 -6.203125 
L 21.390625 -6.203125 
L 21.390625 69 
L 9.71875 69 
L 9.71875 75.984375 
z
" id="DejaVuSans-93"/>
     </defs>
     <g transform="translate(166.844531 188.588437)scale(0.1 -0.1)">
      <use xlink:href="#DejaVuSans-82"/>
      <use x="69.419922" xlink:href="#DejaVuSans-101"/>
      <use x="130.943359" xlink:href="#DejaVuSans-108"/>
      <use x="158.726562" xlink:href="#DejaVuSans-105"/>
      <use x="186.509766" xlink:href="#DejaVuSans-97"/>
      <use x="247.789062" xlink:href="#DejaVuSans-98"/>
      <use x="311.265625" xlink:href="#DejaVuSans-105"/>
      <use x="339.048828" xlink:href="#DejaVuSans-108"/>
      <use x="366.832031" xlink:href="#DejaVuSans-105"/>
      <use x="394.615234" xlink:href="#DejaVuSans-116"/>
      <use x="433.824219" xlink:href="#DejaVuSans-121"/>
      <use x="493.003906" xlink:href="#DejaVuSans-32"/>
      <use x="524.791016" xlink:href="#DejaVuSans-91"/>
      <use x="563.804688" xlink:href="#DejaVuSans-37"/>
      <use x="658.824219" xlink:href="#DejaVuSans-32"/>
      <use x="690.611328" xlink:href="#DejaVuSans-100"/>
      <use x="754.087891" xlink:href="#DejaVuSans-101"/>
      <use x="815.611328" xlink:href="#DejaVuSans-109"/>
      <use x="913.023438" xlink:href="#DejaVuSans-97"/>
      <use x="974.302734" xlink:href="#DejaVuSans-110"/>
      <use x="1037.681641" xlink:href="#DejaVuSans-100"/>
      <use x="1101.158203" xlink:href="#DejaVuSans-32"/>
      <use x="1132.945312" xlink:href="#DejaVuSans-109"/>
      <use x="1230.357422" xlink:href="#DejaVuSans-101"/>
      <use x="1291.880859" xlink:href="#DejaVuSans-116"/>
      <use x="1331.089844" xlink:href="#DejaVuSans-93"/>
     </g>
    </g>
   </g>
   <g id="matplotlib.axis_2">
    <g id="ytick_1">
     <g id="line2d_7">
      <defs>
       <path d="M 0 0 
L 2.5 0 
" id="mf7228d0587" style="stroke:#000000;stroke-width:0.8;"/>
      </defs>
      <g>
       <use style="stroke:#000000;stroke-width:0.8;" x="54" xlink:href="#mf7228d0587" y="160.2"/>
      </g>
     </g>
     <g id="text_8">
      <!-- 0.01 -->
      <defs>
       <path d="M 12.40625 8.296875 
L 28.515625 8.296875 
L 28.515625 63.921875 
L 10.984375 60.40625 
L 10.984375 69.390625 
L 28.421875 72.90625 
L 38.28125 72.90625 
L 38.28125 8.296875 
L 54.390625 8.296875 
L 54.390625 0 
L 12.40625 0 
z
" id="DejaVuSans-49"/>
      </defs>
      <g transform="translate(30.460938 163.619297)scale(0.09 -0.09)">
       <use xlink:href="#DejaVuSans-48"/>
       <use x="63.623047" xlink:href="#DejaVuSans-46"/>
       <use x="95.410156" xlink:href="#DejaVuSans-48"/>
       <use x="159.033203" xlink:href="#DejaVuSans-49"/>
      </g>
     </g>
    </g>
    <g id="ytick_2">
     <g id="line2d_8">
      <g>
       <use style="stroke:#000000;stroke-width:0.8;" x="54" xlink:href="#mf7228d0587" y="132.48"/>
      </g>
     </g>
     <g id="text_9">
      <!-- 0.1 -->
      <g transform="translate(36.187188 135.899297)scale(0.09 -0.09)">
       <use xlink:href="#DejaVuSans-48"/>
       <use x="63.623047" xlink:href="#DejaVuSans-46"/>
       <use x="95.410156" xlink:href="#DejaVuSans-49"/>
      </g>
     </g>
    </g>
    <g id="ytick_3">
     <g id="line2d_9">
      <g>
       <use style="stroke:#000000;stroke-width:0.8;" x="54" xlink:href="#mf7228d0587" y="104.76"/>
      </g>
     </g>
     <g id="text_10">
      <!-- 1 -->
      <g transform="translate(44.77375 108.179297)scale(0.09 -0.09)">
       <use xlink:href="#DejaVuSans-49"/>
      </g>
     </g>
    </g>
    <g id="ytick_4">
     <g id="line2d_10">
      <g>
       <use style="stroke:#000000;stroke-width:0.8;" x="54" xlink:href="#mf7228d0587" y="77.04"/>
      </g>
     </g>
     <g id="text_11">
      <!-- 10 -->
      <g transform="translate(39.0475 80.459297)scale(0.09 -0.09)">
       <use xlink:href="#DejaVuSans-49"/>
       <use x="63.623047" xlink:href="#DejaVuSans-48"/>
      </g>
     </g>
    </g>
    <g id="ytick_5">
     <g id="line2d_11">
      <g>
       <use style="stroke:#000000;stroke-width:0.8;" x="54" xlink:href="#mf7228d0587" y="49.32"/>
      </g>
     </g>
     <g id="text_12">
      <!-- 100 -->
      <g transform="translate(33.32125 52.739297)scale(0.09 -0.09)">
       <use xlink:href="#DejaVuSans-49"/>
       <use x="63.623047" xlink:href="#DejaVuSans-48"/>
       <use x="127.246094" xlink:href="#DejaVuSans-48"/>
      </g>
     </g>
    </g>
    <g id="ytick_6">
     <g id="line2d_12">
      <g>
       <use style="stroke:#000000;stroke-width:0.8;" x="54" xlink:href="#mf7228d0587" y="21.6"/>
      </g>
     </g>
     <g id="text_13">
      <!-- 1000 -->
      <g transform="translate(27.595 25.019297)scale(0.09 -0.09)">
       <use xlink:href="#DejaVuSans-49"/>
       <use x="63.623047" xlink:href="#DejaVuSans-48"/>
       <use x="127.246094" xlink:href="#DejaVuSans-48"/>
       <use x="190.869141" xlink:href="#DejaVuSans-48"/>
      </g>
     </g>
    </g>
    <g id="text_14">
     <!-- Cost of Unmet Demand [$/kWh] -->
     <defs>
      <path d="M 64.40625 67.28125 
L 64.40625 56.890625 
Q 59.421875 61.53125 53.78125 63.8125 
Q 48.140625 66.109375 41.796875 66.109375 
Q 29.296875 66.109375 22.65625 58.46875 
Q 16.015625 50.828125 16.015625 36.375 
Q 16.015625 21.96875 22.65625 14.328125 
Q 29.296875 6.6875 41.796875 6.6875 
Q 48.140625 6.6875 53.78125 8.984375 
Q 59.421875 11.28125 64.40625 15.921875 
L 64.40625 5.609375 
Q 59.234375 2.09375 53.4375 0.328125 
Q 47.65625 -1.421875 41.21875 -1.421875 
Q 24.65625 -1.421875 15.125 8.703125 
Q 5.609375 18.84375 5.609375 36.375 
Q 5.609375 53.953125 15.125 64.078125 
Q 24.65625 74.21875 41.21875 74.21875 
Q 47.75 74.21875 53.53125 72.484375 
Q 59.328125 70.75 64.40625 67.28125 
z
" id="DejaVuSans-67"/>
      <path d="M 30.609375 48.390625 
Q 23.390625 48.390625 19.1875 42.75 
Q 14.984375 37.109375 14.984375 27.296875 
Q 14.984375 17.484375 19.15625 11.84375 
Q 23.34375 6.203125 30.609375 6.203125 
Q 37.796875 6.203125 41.984375 11.859375 
Q 46.1875 17.53125 46.1875 27.296875 
Q 46.1875 37.015625 41.984375 42.703125 
Q 37.796875 48.390625 30.609375 48.390625 
z
M 30.609375 56 
Q 42.328125 56 49.015625 48.375 
Q 55.71875 40.765625 55.71875 27.296875 
Q 55.71875 13.875 49.015625 6.21875 
Q 42.328125 -1.421875 30.609375 -1.421875 
Q 18.84375 -1.421875 12.171875 6.21875 
Q 5.515625 13.875 5.515625 27.296875 
Q 5.515625 40.765625 12.171875 48.375 
Q 18.84375 56 30.609375 56 
z
" id="DejaVuSans-111"/>
      <path d="M 44.28125 53.078125 
L 44.28125 44.578125 
Q 40.484375 46.53125 36.375 47.5 
Q 32.28125 48.484375 27.875 48.484375 
Q 21.1875 48.484375 17.84375 46.4375 
Q 14.5 44.390625 14.5 40.28125 
Q 14.5 37.15625 16.890625 35.375 
Q 19.28125 33.59375 26.515625 31.984375 
L 29.59375 31.296875 
Q 39.15625 29.25 43.1875 25.515625 
Q 47.21875 21.78125 47.21875 15.09375 
Q 47.21875 7.46875 41.1875 3.015625 
Q 35.15625 -1.421875 24.609375 -1.421875 
Q 20.21875 -1.421875 15.453125 -0.5625 
Q 10.6875 0.296875 5.421875 2 
L 5.421875 11.28125 
Q 10.40625 8.6875 15.234375 7.390625 
Q 20.0625 6.109375 24.8125 6.109375 
Q 31.15625 6.109375 34.5625 8.28125 
Q 37.984375 10.453125 37.984375 14.40625 
Q 37.984375 18.0625 35.515625 20.015625 
Q 33.0625 21.96875 24.703125 23.78125 
L 21.578125 24.515625 
Q 13.234375 26.265625 9.515625 29.90625 
Q 5.8125 33.546875 5.8125 39.890625 
Q 5.8125 47.609375 11.28125 51.796875 
Q 16.75 56 26.8125 56 
Q 31.78125 56 36.171875 55.265625 
Q 40.578125 54.546875 44.28125 53.078125 
z
" id="DejaVuSans-115"/>
      <path d="M 37.109375 75.984375 
L 37.109375 68.5 
L 28.515625 68.5 
Q 23.6875 68.5 21.796875 66.546875 
Q 19.921875 64.59375 19.921875 59.515625 
L 19.921875 54.6875 
L 34.71875 54.6875 
L 34.71875 47.703125 
L 19.921875 47.703125 
L 19.921875 0 
L 10.890625 0 
L 10.890625 47.703125 
L 2.296875 47.703125 
L 2.296875 54.6875 
L 10.890625 54.6875 
L 10.890625 58.5 
Q 10.890625 67.625 15.140625 71.796875 
Q 19.390625 75.984375 28.609375 75.984375 
z
" id="DejaVuSans-102"/>
      <path d="M 8.6875 72.90625 
L 18.609375 72.90625 
L 18.609375 28.609375 
Q 18.609375 16.890625 22.84375 11.734375 
Q 27.09375 6.59375 36.625 6.59375 
Q 46.09375 6.59375 50.34375 11.734375 
Q 54.59375 16.890625 54.59375 28.609375 
L 54.59375 72.90625 
L 64.5 72.90625 
L 64.5 27.390625 
Q 64.5 13.140625 57.4375 5.859375 
Q 50.390625 -1.421875 36.625 -1.421875 
Q 22.796875 -1.421875 15.734375 5.859375 
Q 8.6875 13.140625 8.6875 27.390625 
z
" id="DejaVuSans-85"/>
      <path d="M 19.671875 64.796875 
L 19.671875 8.109375 
L 31.59375 8.109375 
Q 46.6875 8.109375 53.6875 14.9375 
Q 60.6875 21.78125 60.6875 36.53125 
Q 60.6875 51.171875 53.6875 57.984375 
Q 46.6875 64.796875 31.59375 64.796875 
z
M 9.8125 72.90625 
L 30.078125 72.90625 
Q 51.265625 72.90625 61.171875 64.09375 
Q 71.09375 55.28125 71.09375 36.53125 
Q 71.09375 17.671875 61.125 8.828125 
Q 51.171875 0 30.078125 0 
L 9.8125 0 
z
" id="DejaVuSans-68"/>
      <path d="M 33.796875 -14.703125 
L 28.90625 -14.703125 
L 28.859375 0 
Q 23.734375 0.09375 18.609375 1.1875 
Q 13.484375 2.296875 8.296875 4.5 
L 8.296875 13.28125 
Q 13.28125 10.15625 18.375 8.5625 
Q 23.484375 6.984375 28.90625 6.9375 
L 28.90625 29.203125 
Q 18.109375 30.953125 13.203125 35.15625 
Q 8.296875 39.359375 8.296875 46.6875 
Q 8.296875 54.640625 13.625 59.21875 
Q 18.953125 63.8125 28.90625 64.5 
L 28.90625 75.984375 
L 33.796875 75.984375 
L 33.796875 64.65625 
Q 38.328125 64.453125 42.578125 63.6875 
Q 46.828125 62.9375 50.875 61.625 
L 50.875 53.078125 
Q 46.828125 55.125 42.546875 56.25 
Q 38.28125 57.375 33.796875 57.5625 
L 33.796875 36.71875 
Q 44.875 35.015625 50.09375 30.609375 
Q 55.328125 26.21875 55.328125 18.609375 
Q 55.328125 10.359375 49.78125 5.59375 
Q 44.234375 0.828125 33.796875 0.09375 
z
M 28.90625 37.59375 
L 28.90625 57.625 
Q 23.25 56.984375 20.265625 54.390625 
Q 17.28125 51.8125 17.28125 47.515625 
Q 17.28125 43.3125 20.03125 40.96875 
Q 22.796875 38.625 28.90625 37.59375 
z
M 33.796875 28.21875 
L 33.796875 7.078125 
Q 39.984375 7.90625 43.140625 10.59375 
Q 46.296875 13.28125 46.296875 17.671875 
Q 46.296875 21.96875 43.28125 24.5 
Q 40.28125 27.046875 33.796875 28.21875 
z
" id="DejaVuSans-36"/>
      <path d="M 25.390625 72.90625 
L 33.6875 72.90625 
L 8.296875 -9.28125 
L 0 -9.28125 
z
" id="DejaVuSans-47"/>
      <path d="M 9.078125 75.984375 
L 18.109375 75.984375 
L 18.109375 31.109375 
L 44.921875 54.6875 
L 56.390625 54.6875 
L 27.390625 29.109375 
L 57.625 0 
L 45.90625 0 
L 18.109375 26.703125 
L 18.109375 0 
L 9.078125 0 
z
" id="DejaVuSans-107"/>
      <path d="M 3.328125 72.90625 
L 13.28125 72.90625 
L 28.609375 11.28125 
L 43.890625 72.90625 
L 54.984375 72.90625 
L 70.3125 11.28125 
L 85.59375 72.90625 
L 95.609375 72.90625 
L 77.296875 0 
L 64.890625 0 
L 49.515625 63.28125 
L 33.984375 0 
L 21.578125 0 
z
" id="DejaVuSans-87"/>
      <path d="M 54.890625 33.015625 
L 54.890625 0 
L 45.90625 0 
L 45.90625 32.71875 
Q 45.90625 40.484375 42.875 44.328125 
Q 39.84375 48.1875 33.796875 48.1875 
Q 26.515625 48.1875 22.3125 43.546875 
Q 18.109375 38.921875 18.109375 30.90625 
L 18.109375 0 
L 9.078125 0 
L 9.078125 75.984375 
L 18.109375 75.984375 
L 18.109375 46.1875 
Q 21.34375 51.125 25.703125 53.5625 
Q 30.078125 56 35.796875 56 
Q 45.21875 56 50.046875 50.171875 
Q 54.890625 44.34375 54.890625 33.015625 
z
" id="DejaVuSans-104"/>
     </defs>
     <g transform="translate(21.515312 170.905469)rotate(-90)scale(0.1 -0.1)">
      <use xlink:href="#DejaVuSans-67"/>
      <use x="69.824219" xlink:href="#DejaVuSans-111"/>
      <use x="131.005859" xlink:href="#DejaVuSans-115"/>
      <use x="183.105469" xlink:href="#DejaVuSans-116"/>
      <use x="222.314453" xlink:href="#DejaVuSans-32"/>
      <use x="254.101562" xlink:href="#DejaVuSans-111"/>
      <use x="315.283203" xlink:href="#DejaVuSans-102"/>
      <use x="350.488281" xlink:href="#DejaVuSans-32"/>
      <use x="382.275391" xlink:href="#DejaVuSans-85"/>
      <use x="455.46875" xlink:href="#DejaVuSans-110"/>
      <use x="518.847656" xlink:href="#DejaVuSans-109"/>
      <use x="616.259766" xlink:href="#DejaVuSans-101"/>
      <use x="677.783203" xlink:href="#DejaVuSans-116"/>
      <use x="716.992188" xlink:href="#DejaVuSans-32"/>
      <use x="748.779297" xlink:href="#DejaVuSans-68"/>
      <use x="825.78125" xlink:href="#DejaVuSans-101"/>
      <use x="887.304688" xlink:href="#DejaVuSans-109"/>
      <use x="984.716797" xlink:href="#DejaVuSans-97"/>
      <use x="1045.996094" xlink:href="#DejaVuSans-110"/>
      <use x="1109.375" xlink:href="#DejaVuSans-100"/>
      <use x="1172.851562" xlink:href="#DejaVuSans-32"/>
      <use x="1204.638672" xlink:href="#DejaVuSans-91"/>
      <use x="1243.652344" xlink:href="#DejaVuSans-36"/>
      <use x="1307.275391" xlink:href="#DejaVuSans-47"/>
      <use x="1340.966797" xlink:href="#DejaVuSans-107"/>
      <use x="1398.876953" xlink:href="#DejaVuSans-87"/>
      <use x="1497.753906" xlink:href="#DejaVuSans-104"/>
      <use x="1561.132812" xlink:href="#DejaVuSans-93"/>
     </g>
    </g>
   </g>
   <g id="line2d_13">
    <path clip-path="url(#pbbd28f41d6)" d="M 433 146.321201 
L 54 146.339991 
L 54 147.726013 
L 54 149.111983 
L 54 150.498006 
L 54 151.884014 
L 54 153.269996 
L 54 154.656024 
L 54 156.041979 
L 54 157.427956 
L 54 158.813983 
L 54 160.2 
" style="fill:none;stroke:#000000;stroke-dasharray:3.7,1.6;stroke-dashoffset:0;"/>
   </g>
   <g id="line2d_14">
    <path clip-path="url(#pbbd28f41d6)" d="M 433 49.309677 
L 226.071912 49.32 
L 225.922336 50.705999 
L 225.798235 52.092004 
L 225.72754 53.477996 
L 225.6605 54.864007 
L 225.589818 56.250007 
L 197.818863 57.636006 
L 197.805372 59.021989 
L 197.79857 60.408005 
L 197.786061 61.794013 
L 195.713459 63.179991 
L 195.707458 64.566013 
L 191.304492 65.951983 
L 191.204165 67.338006 
L 190.472266 68.724014 
L 190.442384 70.109996 
L 183.1909 71.496024 
L 178.835684 72.881979 
L 178.616919 74.267956 
L 178.562985 75.653983 
L 174.435686 77.04 
L 172.031659 78.425999 
L 171.17278 79.812004 
L 170.734153 81.197996 
L 169.635569 82.584007 
L 168.387569 83.970007 
L 167.11115 85.356006 
L 166.80813 86.741989 
L 166.196395 88.128005 
L 165.35997 89.514013 
L 163.253167 90.899991 
L 161.307587 92.286013 
L 157.898731 93.671983 
L 155.481538 95.058006 
L 154.094157 96.444014 
L 150.781109 97.829996 
L 148.266126 99.216024 
L 146.270864 100.601979 
L 142.889207 101.987956 
L 141.80892 103.373983 
L 140.40195 104.76 
L 137.972533 106.145999 
L 135.815481 107.532004 
L 133.29206 108.917996 
L 131.401402 110.304007 
L 128.977239 111.690007 
L 126.728762 113.076006 
L 124.310111 114.461989 
L 122.341806 115.848005 
L 119.562941 117.234013 
L 117.248782 118.619991 
L 114.640844 120.006013 
L 111.266138 121.391983 
L 107.347194 122.778006 
L 103.214352 124.164014 
L 97.682704 125.549996 
L 90.09101 126.936024 
L 78.316242 128.321979 
L 76.801185 129.707956 
L 75.253573 131.093983 
L 73.267312 132.48 
L 70.927361 133.865999 
L 67.932433 135.252004 
L 65.817561 136.637996 
L 63.915955 138.024007 
L 54 139.410007 
L 54 140.796006 
L 54 142.181989 
L 54 143.568005 
L 54 144.954013 
L 54 146.339991 
L 54 147.726013 
L 54 149.111983 
L 54 150.498006 
L 54 151.884014 
L 54 153.269996 
L 54 154.656024 
L 54 156.041979 
L 54 157.427956 
L 54 158.813983 
L 54 160.2 
" style="fill:none;stroke:#0d0887;stroke-dasharray:3.7,1.6;stroke-dashoffset:0;"/>
   </g>
   <g id="line2d_15">
    <path clip-path="url(#pbbd28f41d6)" d="M 433 63.175714 
L 175.522318 63.188674 
L 168.1678 64.559095 
L 159.319795 65.961044 
L 159.319795 67.331125 
L 159.319795 68.695449 
L 158.215345 70.098358 
L 158.215345 71.533226 
L 158.215345 72.903646 
L 153.70249 74.257728 
L 153.70249 75.675676 
L 146.392575 77.04 
L 139.754306 78.42939 
L 138.668095 79.816976 
L 138.621805 81.197078 
L 134.58748 82.583186 
L 134.374439 83.977309 
L 133.792156 85.360498 
L 132.028481 86.733475 
L 131.681192 88.131241 
L 131.320973 89.50767 
L 126.414074 90.908674 
L 124.337313 92.279095 
L 122.653039 93.681044 
L 121.402864 95.051125 
L 120.007438 96.415449 
L 118.784171 97.818358 
L 115.83405 99.253226 
L 113.522928 100.623646 
L 111.294878 101.977728 
L 109.651896 103.395676 
L 106.951891 104.76 
L 105.732276 106.14939 
L 103.37495 107.536976 
L 102.158226 108.917078 
L 100.336396 110.303186 
L 98.706925 111.697309 
L 97.083725 113.080498 
L 95.592693 114.453475 
L 93.969232 115.851241 
L 92.000447 117.22767 
L 89.809162 118.628674 
L 87.80138 119.999095 
L 86.157368 121.401044 
L 84.365578 122.771125 
L 82.977804 124.135449 
L 81.344247 125.538358 
L 79.739999 126.973226 
L 78.324448 128.343646 
L 76.84451 129.697728 
L 75.246611 131.115676 
L 73.333414 132.48 
L 70.961188 133.86939 
L 67.971203 135.256976 
L 65.845789 136.637078 
L 63.946202 138.023186 
L 54 139.417309 
L 54 140.800498 
L 54 142.173475 
L 54 143.571241 
L 54 144.94767 
L 54 146.348674 
L 54 147.719095 
L 54 149.121044 
L 54 150.491125 
L 54 151.855449 
L 54 153.258358 
L 54 154.693226 
L 54 156.063646 
L 54 157.417728 
L 54 158.835676 
L 54 160.2 
" style="fill:none;stroke:#5302a3;stroke-dasharray:3.7,1.6;stroke-dashoffset:0;"/>
   </g>
   <g id="line2d_16">
    <path clip-path="url(#pbbd28f41d6)" d="M 433 61.773499 
L 146.134213 61.78767 
L 146.134213 63.188674 
L 146.134213 64.559095 
L 144.993309 65.961044 
L 144.993309 67.331125 
L 144.993309 68.695449 
L 143.634358 70.098358 
L 136.795323 71.533226 
L 132.537822 72.903646 
L 130.518638 74.257728 
L 129.070376 75.675676 
L 129.070376 77.04 
L 124.185375 78.42939 
L 124.185375 79.816976 
L 122.979311 81.197078 
L 122.979311 82.583186 
L 122.525966 83.977309 
L 119.393754 85.360498 
L 119.083359 86.733475 
L 114.605682 88.131241 
L 113.71709 89.50767 
L 112.403074 90.908674 
L 111.347141 92.279095 
L 110.617063 93.681044 
L 110.211003 95.051125 
L 109.145487 96.415449 
L 106.460908 97.818358 
L 104.467505 99.253226 
L 103.358309 100.623646 
L 102.298851 101.977728 
L 101.545516 103.395676 
L 99.648064 104.76 
L 97.430001 106.14939 
L 96.224736 107.536976 
L 94.912944 108.917078 
L 93.012653 110.303186 
L 92.217775 111.697309 
L 90.720866 113.080498 
L 89.395374 114.453475 
L 87.942422 115.851241 
L 86.418717 117.22767 
L 84.479032 118.628674 
L 83.68027 119.999095 
L 81.962521 121.401044 
L 79.730832 122.771125 
L 77.794393 124.135449 
L 75.636221 125.538358 
L 74.455031 126.973226 
L 73.352083 128.343646 
L 72.152791 129.697728 
L 71.019319 131.115676 
L 69.886109 132.48 
L 68.659234 133.86939 
L 67.373354 135.256976 
L 65.845789 136.637078 
L 63.946202 138.023186 
L 54 139.417309 
L 54 140.800498 
L 54 142.173475 
L 54 143.571241 
L 54 144.94767 
L 54 146.348674 
L 54 147.719095 
L 54 149.121044 
L 54 150.491125 
L 54 151.855449 
L 54 153.258358 
L 54 154.693226 
L 54 156.063646 
L 54 157.417728 
L 54 158.835676 
L 54 160.2 
" style="fill:none;stroke:#8b0aa5;stroke-dasharray:3.7,1.6;stroke-dashoffset:0;"/>
   </g>
   <g id="line2d_17">
    <path clip-path="url(#pbbd28f41d6)" d="M 433 65.948661 
L 187.238278 65.961044 
L 187.238278 67.331125 
L 187.238278 68.695449 
L 187.238278 70.098358 
L 187.238278 71.533226 
L 150.781138 72.903646 
L 150.781138 74.257728 
L 142.790615 75.675676 
L 142.790615 77.04 
L 132.459027 78.42939 
L 129.207624 79.816976 
L 127.908135 81.197078 
L 127.908135 82.583186 
L 125.618411 83.977309 
L 124.857076 85.360498 
L 121.701416 86.733475 
L 121.605168 88.131241 
L 121.156992 89.50767 
L 120.164551 90.908674 
L 116.54495 92.279095 
L 114.557037 93.681044 
L 112.676771 95.051125 
L 110.048904 96.415449 
L 109.101667 97.818358 
L 106.360599 99.253226 
L 104.844693 100.623646 
L 103.902472 101.977728 
L 101.171677 103.395676 
L 100.227275 104.76 
L 98.124922 106.14939 
L 96.640775 107.536976 
L 95.46978 108.917078 
L 93.783381 110.303186 
L 91.225565 111.697309 
L 89.039833 113.080498 
L 86.873892 114.453475 
L 85.188484 115.851241 
L 83.074026 117.22767 
L 80.886393 118.628674 
L 79.379288 119.999095 
L 77.878496 121.401044 
L 76.186349 122.771125 
L 74.868617 124.135449 
L 61.563829 125.538358 
L 60.120214 126.973226 
L 59.994463 128.343646 
L 59.846108 129.697728 
L 59.681248 131.115676 
L 59.508378 132.48 
L 59.285929 133.86939 
L 58.989439 135.256976 
L 54 136.637078 
L 54 138.023186 
L 54 139.417309 
L 54 140.800498 
L 54 142.173475 
L 54 143.571241 
L 54 144.94767 
L 54 146.348674 
L 54 147.719095 
L 54 149.121044 
L 54 150.491125 
L 54 151.855449 
L 54 153.258358 
L 54 154.693226 
L 54 156.063646 
L 54 157.417728 
L 54 158.835676 
L 54 160.2 
" style="fill:none;stroke:#b83289;stroke-dasharray:3.7,1.6;stroke-dashoffset:0;"/>
   </g>
   <g id="line2d_18">
    <path clip-path="url(#pbbd28f41d6)" d="M 181.45625 21.6 
L 181.45625 22.98939 
L 176.624183 24.376976 
L 176.624183 25.757078 
L 169.340455 27.143186 
L 169.340455 28.537309 
L 169.340455 29.920498 
L 167.746112 31.293475 
L 167.746112 32.691241 
L 163.21904 34.06767 
L 163.002879 35.468674 
L 163.002879 36.839095 
L 162.724432 38.241044 
L 161.565314 39.611125 
L 161.238739 40.975449 
L 157.08916 42.378358 
L 155.153565 43.813226 
L 154.686552 45.183646 
L 154.5373 46.537728 
L 153.882106 47.955676 
L 152.977735 49.32 
L 151.622869 50.70939 
L 151.127467 52.096976 
L 150.692247 53.477078 
L 150.234153 54.863186 
L 148.662802 56.257309 
L 147.287473 57.640498 
L 144.863952 59.013475 
L 142.616809 60.411241 
L 140.830489 61.78767 
L 138.634043 63.188674 
L 137.701378 64.559095 
L 136.592349 65.961044 
L 135.228461 67.331125 
L 133.392342 68.695449 
L 131.37717 70.098358 
L 130.016568 71.533226 
L 128.761002 72.903646 
L 128.247074 74.257728 
L 127.028482 75.675676 
L 125.881117 77.04 
L 124.637629 78.42939 
L 122.669156 79.816976 
L 121.630372 81.197078 
L 120.216447 82.583186 
L 119.195016 83.977309 
L 118.210435 85.360498 
L 116.806019 86.733475 
L 115.428675 88.131241 
L 114.47647 89.50767 
L 113.525075 90.908674 
L 112.235527 92.279095 
L 110.905799 93.681044 
L 110.097138 95.051125 
L 109.083986 96.415449 
L 107.941095 97.818358 
L 106.428972 99.253226 
L 105.182755 100.623646 
L 103.981778 101.977728 
L 102.656669 103.395676 
L 101.419408 104.76 
L 100.224398 106.14939 
L 98.975294 107.536976 
L 97.7682 108.917078 
L 96.574439 110.303186 
L 95.18394 111.697309 
L 93.874962 113.080498 
L 92.53942 114.453475 
L 91.32728 115.851241 
L 89.926687 117.22767 
L 88.464471 118.628674 
L 86.912062 119.999095 
L 85.506043 121.401044 
L 84.195101 122.771125 
L 82.977804 124.135449 
L 81.344247 125.538358 
L 79.739999 126.973226 
L 78.324448 128.343646 
L 76.84451 129.697728 
L 75.246611 131.115676 
L 73.333414 132.48 
L 70.961188 133.86939 
L 67.971203 135.256976 
L 65.845789 136.637078 
L 63.946202 138.023186 
L 54 139.417309 
L 54 140.800498 
L 54 142.173475 
L 54 143.571241 
L 54 144.94767 
L 54 146.348674 
L 54 147.719095 
L 54 149.121044 
L 54 150.491125 
L 54 151.855449 
L 54 153.258358 
L 54 154.693226 
L 54 156.063646 
L 54 157.417728 
L 54 158.835676 
L 54 160.2 
" style="fill:none;stroke:#db5c68;stroke-dasharray:3.7,1.6;stroke-dashoffset:0;"/>
   </g>
   <g id="line2d_19">
    <path clip-path="url(#pbbd28f41d6)" d="M 63.375484 21.6 
L 63.365207 22.98939 
L 63.352735 24.376976 
L 63.323706 25.757078 
L 63.299435 27.143186 
L 63.282774 28.537309 
L 63.265561 29.920498 
L 63.255342 31.293475 
L 63.235726 32.691241 
L 63.21359 34.06767 
L 63.193539 35.468674 
L 63.172998 36.839095 
L 63.147244 38.241044 
L 63.125945 39.611125 
L 63.112599 40.975449 
L 63.076814 42.378358 
L 63.054611 43.813226 
L 63.043221 45.183646 
L 63.021548 46.537728 
L 62.994958 47.955676 
L 62.979693 49.32 
L 62.950324 50.70939 
L 62.928504 52.096976 
L 62.912377 53.477078 
L 62.883193 54.863186 
L 62.856538 56.257309 
L 62.838189 57.640498 
L 62.818588 59.013475 
L 62.795496 60.411241 
L 62.763188 61.78767 
L 62.740645 63.188674 
L 62.715351 64.559095 
L 62.697596 65.961044 
L 62.666986 67.331125 
L 62.64982 68.695449 
L 62.617891 70.098358 
L 62.578778 71.533226 
L 62.550503 72.903646 
L 62.501029 74.257728 
L 62.469984 75.675676 
L 62.4308 77.04 
L 62.378905 78.42939 
L 62.339795 79.816976 
L 62.29363 81.197078 
L 62.249948 82.583186 
L 62.203085 83.977309 
L 62.163305 85.360498 
L 62.128611 86.733475 
L 62.067684 88.131241 
L 62.016879 89.50767 
L 61.950942 90.908674 
L 61.886824 92.279095 
L 61.827211 93.681044 
L 61.742965 95.051125 
L 61.674114 96.415449 
L 61.597113 97.818358 
L 61.523468 99.253226 
L 61.466204 100.623646 
L 61.408288 101.977728 
L 61.366448 103.395676 
L 61.324025 104.76 
L 61.267014 106.14939 
L 61.205928 107.536976 
L 61.137067 108.917078 
L 61.084648 110.303186 
L 61.017201 111.697309 
L 60.960392 113.080498 
L 60.901325 114.453475 
L 60.826438 115.851241 
L 60.757945 117.22767 
L 60.682884 118.628674 
L 60.618536 119.999095 
L 60.537811 121.401044 
L 60.439644 122.771125 
L 60.345533 124.135449 
L 60.234798 125.538358 
L 60.120214 126.973226 
L 59.994463 128.343646 
L 59.846108 129.697728 
L 59.681248 131.115676 
L 59.508378 132.48 
L 59.285929 133.86939 
L 58.989439 135.256976 
L 54 136.637078 
L 54 138.023186 
L 54 139.417309 
L 54 140.800498 
L 54 142.173475 
L 54 143.571241 
L 54 144.94767 
L 54 146.348674 
L 54 147.719095 
L 54 149.121044 
L 54 150.491125 
L 54 151.855449 
L 54 153.258358 
L 54 154.693226 
L 54 156.063646 
L 54 157.417728 
L 54 158.835676 
L 54 160.2 
" style="fill:none;stroke:#f48849;stroke-dasharray:3.7,1.6;stroke-dashoffset:0;"/>
   </g>
   <g id="line2d_20">
    <path clip-path="url(#pbbd28f41d6)" d="M 176.811509 21.6 
L 173.44545 22.98939 
L 173.44545 24.376976 
L 168.62083 25.757078 
L 168.311345 27.143186 
L 167.800607 28.537309 
L 165.460646 29.920498 
L 163.985974 31.293475 
L 163.555102 32.691241 
L 159.578028 34.06767 
L 158.229997 35.468674 
L 154.654086 36.839095 
L 152.989037 38.241044 
L 151.129555 39.611125 
L 150.883256 40.975449 
L 145.457129 42.378358 
L 144.181681 43.813226 
L 143.463376 45.183646 
L 141.329526 46.537728 
L 139.416471 47.955676 
L 138.167636 49.32 
L 135.526742 50.70939 
L 134.534495 52.096976 
L 133.722524 53.477078 
L 132.914857 54.863186 
L 131.734937 56.257309 
L 130.540972 57.640498 
L 129.07059 59.013475 
L 128.416891 60.411241 
L 127.302946 61.78767 
L 126.285354 63.188674 
L 125.223693 64.559095 
L 124.247426 65.961044 
L 122.843696 67.331125 
L 121.521279 68.695449 
L 119.838312 70.098358 
L 118.461649 71.533226 
L 117.305953 72.903646 
L 116.421673 74.257728 
L 115.287485 75.675676 
L 113.769626 77.04 
L 112.417468 78.42939 
L 111.201298 79.816976 
L 110.130324 81.197078 
L 109.120206 82.583186 
L 108.222294 83.977309 
L 107.055295 85.360498 
L 106.119769 86.733475 
L 104.782061 88.131241 
L 103.538954 89.50767 
L 102.386697 90.908674 
L 101.431172 92.279095 
L 100.566118 93.681044 
L 99.462214 95.051125 
L 98.23837 96.415449 
L 97.283891 97.818358 
L 96.020118 99.253226 
L 94.990269 100.623646 
L 93.953067 101.977728 
L 92.86383 103.395676 
L 91.800839 104.76 
L 90.993334 106.14939 
L 90.00341 107.536976 
L 88.80268 108.917078 
L 87.827913 110.303186 
L 86.536378 111.697309 
L 85.634178 113.080498 
L 84.648187 114.453475 
L 83.469606 115.851241 
L 82.278614 117.22767 
L 81.128296 118.628674 
L 80.108261 119.999095 
L 79.040974 121.401044 
L 78.009087 122.771125 
L 76.829199 124.135449 
L 75.613715 125.538358 
L 74.455031 126.973226 
L 73.352083 128.343646 
L 72.152791 129.697728 
L 71.019319 131.115676 
L 69.886109 132.48 
L 68.659234 133.86939 
L 67.373354 135.256976 
L 65.845789 136.637078 
L 63.946202 138.023186 
L 54 139.417309 
L 54 140.800498 
L 54 142.173475 
L 54 143.571241 
L 54 144.94767 
L 54 146.348674 
L 54 147.719095 
L 54 149.121044 
L 54 150.491125 
L 54 151.855449 
L 54 153.258358 
L 54 154.693226 
L 54 156.063646 
L 54 157.417728 
L 54 158.835676 
L 54 160.2 
" style="fill:none;stroke:#febd2a;stroke-dasharray:3.7,1.6;stroke-dashoffset:0;"/>
   </g>
   <g id="patch_3">
    <path d="M 54 160.2 
L 54 21.6 
" style="fill:none;stroke:#000000;stroke-linecap:square;stroke-linejoin:miter;stroke-width:0.8;"/>
   </g>
   <g id="patch_4">
    <path d="M 193.5 160.2 
L 193.5 21.6 
" style="fill:none;stroke:#000000;stroke-linecap:square;stroke-linejoin:miter;stroke-width:0.8;"/>
   </g>
   <g id="patch_5">
    <path d="M 54 160.2 
L 193.5 160.2 
" style="fill:none;stroke:#000000;stroke-linecap:square;stroke-linejoin:miter;stroke-width:0.8;"/>
   </g>
   <g id="patch_6">
    <path d="M 54 21.6 
L 193.5 21.6 
" style="fill:none;stroke:#000000;stroke-linecap:square;stroke-linejoin:miter;stroke-width:0.8;"/>
   </g>
   <g id="text_15">
    <!-- natural gas + solar + wind -->
    <defs>
     <path d="M 8.5 21.578125 
L 8.5 54.6875 
L 17.484375 54.6875 
L 17.484375 21.921875 
Q 17.484375 14.15625 20.5 10.265625 
Q 23.53125 6.390625 29.59375 6.390625 
Q 36.859375 6.390625 41.078125 11.03125 
Q 45.3125 15.671875 45.3125 23.6875 
L 45.3125 54.6875 
L 54.296875 54.6875 
L 54.296875 0 
L 45.3125 0 
L 45.3125 8.40625 
Q 42.046875 3.421875 37.71875 1 
Q 33.40625 -1.421875 27.6875 -1.421875 
Q 18.265625 -1.421875 13.375 4.4375 
Q 8.5 10.296875 8.5 21.578125 
z
M 31.109375 56 
z
" id="DejaVuSans-117"/>
     <path d="M 41.109375 46.296875 
Q 39.59375 47.171875 37.8125 47.578125 
Q 36.03125 48 33.890625 48 
Q 26.265625 48 22.1875 43.046875 
Q 18.109375 38.09375 18.109375 28.8125 
L 18.109375 0 
L 9.078125 0 
L 9.078125 54.6875 
L 18.109375 54.6875 
L 18.109375 46.1875 
Q 20.953125 51.171875 25.484375 53.578125 
Q 30.03125 56 36.53125 56 
Q 37.453125 56 38.578125 55.875 
Q 39.703125 55.765625 41.0625 55.515625 
z
" id="DejaVuSans-114"/>
     <path d="M 45.40625 27.984375 
Q 45.40625 37.75 41.375 43.109375 
Q 37.359375 48.484375 30.078125 48.484375 
Q 22.859375 48.484375 18.828125 43.109375 
Q 14.796875 37.75 14.796875 27.984375 
Q 14.796875 18.265625 18.828125 12.890625 
Q 22.859375 7.515625 30.078125 7.515625 
Q 37.359375 7.515625 41.375 12.890625 
Q 45.40625 18.265625 45.40625 27.984375 
z
M 54.390625 6.78125 
Q 54.390625 -7.171875 48.1875 -13.984375 
Q 42 -20.796875 29.203125 -20.796875 
Q 24.46875 -20.796875 20.265625 -20.09375 
Q 16.0625 -19.390625 12.109375 -17.921875 
L 12.109375 -9.1875 
Q 16.0625 -11.328125 19.921875 -12.34375 
Q 23.78125 -13.375 27.78125 -13.375 
Q 36.625 -13.375 41.015625 -8.765625 
Q 45.40625 -4.15625 45.40625 5.171875 
L 45.40625 9.625 
Q 42.625 4.78125 38.28125 2.390625 
Q 33.9375 0 27.875 0 
Q 17.828125 0 11.671875 7.65625 
Q 5.515625 15.328125 5.515625 27.984375 
Q 5.515625 40.671875 11.671875 48.328125 
Q 17.828125 56 27.875 56 
Q 33.9375 56 38.28125 53.609375 
Q 42.625 51.21875 45.40625 46.390625 
L 45.40625 54.6875 
L 54.390625 54.6875 
z
" id="DejaVuSans-103"/>
     <path d="M 46 62.703125 
L 46 35.5 
L 73.1875 35.5 
L 73.1875 27.203125 
L 46 27.203125 
L 46 0 
L 37.796875 0 
L 37.796875 27.203125 
L 10.59375 27.203125 
L 10.59375 35.5 
L 37.796875 35.5 
L 37.796875 62.703125 
z
" id="DejaVuSans-43"/>
     <path d="M 4.203125 54.6875 
L 13.1875 54.6875 
L 24.421875 12.015625 
L 35.59375 54.6875 
L 46.1875 54.6875 
L 57.421875 12.015625 
L 68.609375 54.6875 
L 77.59375 54.6875 
L 63.28125 0 
L 52.6875 0 
L 40.921875 44.828125 
L 29.109375 0 
L 18.5 0 
z
" id="DejaVuSans-119"/>
    </defs>
    <g transform="translate(111.076634 143.510897)scale(0.06 -0.06)">
     <use xlink:href="#DejaVuSans-110"/>
     <use x="63.378906" xlink:href="#DejaVuSans-97"/>
     <use x="124.658203" xlink:href="#DejaVuSans-116"/>
     <use x="163.867188" xlink:href="#DejaVuSans-117"/>
     <use x="227.246094" xlink:href="#DejaVuSans-114"/>
     <use x="268.359375" xlink:href="#DejaVuSans-97"/>
     <use x="329.638672" xlink:href="#DejaVuSans-108"/>
     <use x="357.421875" xlink:href="#DejaVuSans-32"/>
     <use x="389.208984" xlink:href="#DejaVuSans-103"/>
     <use x="452.685547" xlink:href="#DejaVuSans-97"/>
     <use x="513.964844" xlink:href="#DejaVuSans-115"/>
     <use x="566.064453" xlink:href="#DejaVuSans-32"/>
     <use x="597.851562" xlink:href="#DejaVuSans-43"/>
     <use x="681.640625" xlink:href="#DejaVuSans-32"/>
     <use x="713.427734" xlink:href="#DejaVuSans-115"/>
     <use x="765.527344" xlink:href="#DejaVuSans-111"/>
     <use x="826.708984" xlink:href="#DejaVuSans-108"/>
     <use x="854.492188" xlink:href="#DejaVuSans-97"/>
     <use x="915.771484" xlink:href="#DejaVuSans-114"/>
     <use x="956.884766" xlink:href="#DejaVuSans-32"/>
     <use x="988.671875" xlink:href="#DejaVuSans-43"/>
     <use x="1072.460938" xlink:href="#DejaVuSans-32"/>
     <use x="1104.248047" xlink:href="#DejaVuSans-119"/>
     <use x="1186.035156" xlink:href="#DejaVuSans-105"/>
     <use x="1213.818359" xlink:href="#DejaVuSans-110"/>
     <use x="1277.197266" xlink:href="#DejaVuSans-100"/>
    </g>
   </g>
   <g id="text_16">
    <!-- NG with carbon price -->
    <defs>
     <path d="M 9.8125 72.90625 
L 23.09375 72.90625 
L 55.421875 11.921875 
L 55.421875 72.90625 
L 64.984375 72.90625 
L 64.984375 0 
L 51.703125 0 
L 19.390625 60.984375 
L 19.390625 0 
L 9.8125 0 
z
" id="DejaVuSans-78"/>
     <path d="M 59.515625 10.40625 
L 59.515625 29.984375 
L 43.40625 29.984375 
L 43.40625 38.09375 
L 69.28125 38.09375 
L 69.28125 6.78125 
Q 63.578125 2.734375 56.6875 0.65625 
Q 49.8125 -1.421875 42 -1.421875 
Q 24.90625 -1.421875 15.25 8.5625 
Q 5.609375 18.5625 5.609375 36.375 
Q 5.609375 54.25 15.25 64.234375 
Q 24.90625 74.21875 42 74.21875 
Q 49.125 74.21875 55.546875 72.453125 
Q 61.96875 70.703125 67.390625 67.28125 
L 67.390625 56.78125 
Q 61.921875 61.421875 55.765625 63.765625 
Q 49.609375 66.109375 42.828125 66.109375 
Q 29.4375 66.109375 22.71875 58.640625 
Q 16.015625 51.171875 16.015625 36.375 
Q 16.015625 21.625 22.71875 14.15625 
Q 29.4375 6.6875 42.828125 6.6875 
Q 48.046875 6.6875 52.140625 7.59375 
Q 56.25 8.5 59.515625 10.40625 
z
" id="DejaVuSans-71"/>
     <path d="M 48.78125 52.59375 
L 48.78125 44.1875 
Q 44.96875 46.296875 41.140625 47.34375 
Q 37.3125 48.390625 33.40625 48.390625 
Q 24.65625 48.390625 19.8125 42.84375 
Q 14.984375 37.3125 14.984375 27.296875 
Q 14.984375 17.28125 19.8125 11.734375 
Q 24.65625 6.203125 33.40625 6.203125 
Q 37.3125 6.203125 41.140625 7.25 
Q 44.96875 8.296875 48.78125 10.40625 
L 48.78125 2.09375 
Q 45.015625 0.34375 40.984375 -0.53125 
Q 36.96875 -1.421875 32.421875 -1.421875 
Q 20.0625 -1.421875 12.78125 6.34375 
Q 5.515625 14.109375 5.515625 27.296875 
Q 5.515625 40.671875 12.859375 48.328125 
Q 20.21875 56 33.015625 56 
Q 37.15625 56 41.109375 55.140625 
Q 45.0625 54.296875 48.78125 52.59375 
z
" id="DejaVuSans-99"/>
     <path d="M 18.109375 8.203125 
L 18.109375 -20.796875 
L 9.078125 -20.796875 
L 9.078125 54.6875 
L 18.109375 54.6875 
L 18.109375 46.390625 
Q 20.953125 51.265625 25.265625 53.625 
Q 29.59375 56 35.59375 56 
Q 45.5625 56 51.78125 48.09375 
Q 58.015625 40.1875 58.015625 27.296875 
Q 58.015625 14.40625 51.78125 6.484375 
Q 45.5625 -1.421875 35.59375 -1.421875 
Q 29.59375 -1.421875 25.265625 0.953125 
Q 20.953125 3.328125 18.109375 8.203125 
z
M 48.6875 27.296875 
Q 48.6875 37.203125 44.609375 42.84375 
Q 40.53125 48.484375 33.40625 48.484375 
Q 26.265625 48.484375 22.1875 42.84375 
Q 18.109375 37.203125 18.109375 27.296875 
Q 18.109375 17.390625 22.1875 11.75 
Q 26.265625 6.109375 33.40625 6.109375 
Q 40.53125 6.109375 44.609375 11.75 
Q 48.6875 17.390625 48.6875 27.296875 
z
" id="DejaVuSans-112"/>
    </defs>
    <g style="fill:#0d0887;" transform="translate(120.68178 128.314941)rotate(-33)scale(0.06 -0.06)">
     <use xlink:href="#DejaVuSans-78"/>
     <use x="74.804688" xlink:href="#DejaVuSans-71"/>
     <use x="152.294922" xlink:href="#DejaVuSans-32"/>
     <use x="184.082031" xlink:href="#DejaVuSans-119"/>
     <use x="265.869141" xlink:href="#DejaVuSans-105"/>
     <use x="293.652344" xlink:href="#DejaVuSans-116"/>
     <use x="332.861328" xlink:href="#DejaVuSans-104"/>
     <use x="396.240234" xlink:href="#DejaVuSans-32"/>
     <use x="428.027344" xlink:href="#DejaVuSans-99"/>
     <use x="483.007812" xlink:href="#DejaVuSans-97"/>
     <use x="544.287109" xlink:href="#DejaVuSans-114"/>
     <use x="585.400391" xlink:href="#DejaVuSans-98"/>
     <use x="648.876953" xlink:href="#DejaVuSans-111"/>
     <use x="710.058594" xlink:href="#DejaVuSans-110"/>
     <use x="773.4375" xlink:href="#DejaVuSans-32"/>
     <use x="805.224609" xlink:href="#DejaVuSans-112"/>
     <use x="868.701172" xlink:href="#DejaVuSans-114"/>
     <use x="909.814453" xlink:href="#DejaVuSans-105"/>
     <use x="937.597656" xlink:href="#DejaVuSans-99"/>
     <use x="992.578125" xlink:href="#DejaVuSans-101"/>
    </g>
    <!-- + solar + wind -->
    <g style="fill:#0d0887;" transform="translate(124.34104 133.949707)rotate(-33)scale(0.06 -0.06)">
     <use xlink:href="#DejaVuSans-43"/>
     <use x="83.789062" xlink:href="#DejaVuSans-32"/>
     <use x="115.576172" xlink:href="#DejaVuSans-115"/>
     <use x="167.675781" xlink:href="#DejaVuSans-111"/>
     <use x="228.857422" xlink:href="#DejaVuSans-108"/>
     <use x="256.640625" xlink:href="#DejaVuSans-97"/>
     <use x="317.919922" xlink:href="#DejaVuSans-114"/>
     <use x="359.033203" xlink:href="#DejaVuSans-32"/>
     <use x="390.820312" xlink:href="#DejaVuSans-43"/>
     <use x="474.609375" xlink:href="#DejaVuSans-32"/>
     <use x="506.396484" xlink:href="#DejaVuSans-119"/>
     <use x="588.183594" xlink:href="#DejaVuSans-105"/>
     <use x="615.966797" xlink:href="#DejaVuSans-110"/>
     <use x="679.345703" xlink:href="#DejaVuSans-100"/>
    </g>
   </g>
   <g id="text_17">
    <!-- solar + wind + storage -->
    <g style="fill:#5302a3;" transform="translate(92.978487 124.37376)rotate(-36)scale(0.06 -0.06)">
     <use xlink:href="#DejaVuSans-115"/>
     <use x="52.099609" xlink:href="#DejaVuSans-111"/>
     <use x="113.28125" xlink:href="#DejaVuSans-108"/>
     <use x="141.064453" xlink:href="#DejaVuSans-97"/>
     <use x="202.34375" xlink:href="#DejaVuSans-114"/>
     <use x="243.457031" xlink:href="#DejaVuSans-32"/>
     <use x="275.244141" xlink:href="#DejaVuSans-43"/>
     <use x="359.033203" xlink:href="#DejaVuSans-32"/>
     <use x="390.820312" xlink:href="#DejaVuSans-119"/>
     <use x="472.607422" xlink:href="#DejaVuSans-105"/>
     <use x="500.390625" xlink:href="#DejaVuSans-110"/>
     <use x="563.769531" xlink:href="#DejaVuSans-100"/>
     <use x="627.246094" xlink:href="#DejaVuSans-32"/>
     <use x="659.033203" xlink:href="#DejaVuSans-43"/>
     <use x="742.822266" xlink:href="#DejaVuSans-32"/>
     <use x="774.609375" xlink:href="#DejaVuSans-115"/>
     <use x="826.708984" xlink:href="#DejaVuSans-116"/>
     <use x="865.917969" xlink:href="#DejaVuSans-111"/>
     <use x="927.099609" xlink:href="#DejaVuSans-114"/>
     <use x="968.212891" xlink:href="#DejaVuSans-97"/>
     <use x="1029.492188" xlink:href="#DejaVuSans-103"/>
     <use x="1092.96875" xlink:href="#DejaVuSans-101"/>
    </g>
   </g>
   <g id="text_18">
    <!-- wind +  -->
    <g style="fill:#8b0aa5;" transform="translate(165.6 52.484804)scale(0.06 -0.06)">
     <use xlink:href="#DejaVuSans-119"/>
     <use x="81.787109" xlink:href="#DejaVuSans-105"/>
     <use x="109.570312" xlink:href="#DejaVuSans-110"/>
     <use x="172.949219" xlink:href="#DejaVuSans-100"/>
     <use x="236.425781" xlink:href="#DejaVuSans-32"/>
     <use x="268.212891" xlink:href="#DejaVuSans-43"/>
     <use x="352.001953" xlink:href="#DejaVuSans-32"/>
    </g>
    <!-- storage -->
    <g style="fill:#8b0aa5;" transform="translate(165.6 59.203492)scale(0.06 -0.06)">
     <use xlink:href="#DejaVuSans-115"/>
     <use x="52.099609" xlink:href="#DejaVuSans-116"/>
     <use x="91.308594" xlink:href="#DejaVuSans-111"/>
     <use x="152.490234" xlink:href="#DejaVuSans-114"/>
     <use x="193.603516" xlink:href="#DejaVuSans-97"/>
     <use x="254.882812" xlink:href="#DejaVuSans-103"/>
     <use x="318.359375" xlink:href="#DejaVuSans-101"/>
    </g>
   </g>
   <g id="text_19">
    <!-- solar +  -->
    <g style="fill:#b83289;" transform="translate(81.9 70.321312)scale(0.06 -0.06)">
     <use xlink:href="#DejaVuSans-115"/>
     <use x="52.099609" xlink:href="#DejaVuSans-111"/>
     <use x="113.28125" xlink:href="#DejaVuSans-108"/>
     <use x="141.064453" xlink:href="#DejaVuSans-97"/>
     <use x="202.34375" xlink:href="#DejaVuSans-114"/>
     <use x="243.457031" xlink:href="#DejaVuSans-32"/>
     <use x="275.244141" xlink:href="#DejaVuSans-43"/>
     <use x="359.033203" xlink:href="#DejaVuSans-32"/>
    </g>
    <!-- storage -->
    <g style="fill:#b83289;" transform="translate(81.9 77.04)scale(0.06 -0.06)">
     <use xlink:href="#DejaVuSans-115"/>
     <use x="52.099609" xlink:href="#DejaVuSans-116"/>
     <use x="91.308594" xlink:href="#DejaVuSans-111"/>
     <use x="152.490234" xlink:href="#DejaVuSans-114"/>
     <use x="193.603516" xlink:href="#DejaVuSans-97"/>
     <use x="254.882812" xlink:href="#DejaVuSans-103"/>
     <use x="318.359375" xlink:href="#DejaVuSans-101"/>
    </g>
   </g>
   <g id="patch_7">
    <path d="M 96.765518 81.710563 
Q 99.01522 89.315153 118.964066 89.652421 
" style="fill:none;stroke:#b83289;stroke-linecap:round;stroke-width:0.5;"/>
    <path d="M 115.395008 87.791823 
L 118.964066 89.652421 
L 115.334153 91.391308 
" style="fill:none;stroke:#b83289;stroke-linecap:round;stroke-width:0.5;"/>
   </g>
   <g id="text_20">
    <!-- wind + solar -->
    <g style="fill:#db5c68;" transform="translate(81.9 57.664551)scale(0.06 -0.06)">
     <use xlink:href="#DejaVuSans-119"/>
     <use x="81.787109" xlink:href="#DejaVuSans-105"/>
     <use x="109.570312" xlink:href="#DejaVuSans-110"/>
     <use x="172.949219" xlink:href="#DejaVuSans-100"/>
     <use x="236.425781" xlink:href="#DejaVuSans-32"/>
     <use x="268.212891" xlink:href="#DejaVuSans-43"/>
     <use x="352.001953" xlink:href="#DejaVuSans-32"/>
     <use x="383.789062" xlink:href="#DejaVuSans-115"/>
     <use x="435.888672" xlink:href="#DejaVuSans-111"/>
     <use x="497.070312" xlink:href="#DejaVuSans-108"/>
     <use x="524.853516" xlink:href="#DejaVuSans-97"/>
     <use x="586.132812" xlink:href="#DejaVuSans-114"/>
    </g>
   </g>
   <g id="patch_8">
    <path d="M 109.86434 62.352738 
Q 110.77566 76.077224 124.037245 76.940572 
" style="fill:none;stroke:#db5c68;stroke-linecap:round;stroke-width:0.5;"/>
    <path d="M 120.561785 74.910505 
L 124.037245 76.940572 
L 120.327915 78.5029 
" style="fill:none;stroke:#db5c68;stroke-linecap:round;stroke-width:0.5;"/>
   </g>
   <g id="text_21">
    <!-- solar only -->
    <g style="fill:#db5c68;" transform="translate(65.102526 29.944551)scale(0.06 -0.06)">
     <use xlink:href="#DejaVuSans-115"/>
     <use x="52.099609" xlink:href="#DejaVuSans-111"/>
     <use x="113.28125" xlink:href="#DejaVuSans-108"/>
     <use x="141.064453" xlink:href="#DejaVuSans-97"/>
     <use x="202.34375" xlink:href="#DejaVuSans-114"/>
     <use x="243.457031" xlink:href="#DejaVuSans-32"/>
     <use x="275.244141" xlink:href="#DejaVuSans-111"/>
     <use x="336.425781" xlink:href="#DejaVuSans-110"/>
     <use x="399.804688" xlink:href="#DejaVuSans-108"/>
     <use x="427.587891" xlink:href="#DejaVuSans-121"/>
    </g>
   </g>
   <g id="text_22">
    <!-- wind only -->
    <g style="fill:#febd2a;" transform="translate(140.630509 44.730683)rotate(-40)scale(0.06 -0.06)">
     <use xlink:href="#DejaVuSans-119"/>
     <use x="81.787109" xlink:href="#DejaVuSans-105"/>
     <use x="109.570312" xlink:href="#DejaVuSans-110"/>
     <use x="172.949219" xlink:href="#DejaVuSans-100"/>
     <use x="236.425781" xlink:href="#DejaVuSans-32"/>
     <use x="268.212891" xlink:href="#DejaVuSans-111"/>
     <use x="329.394531" xlink:href="#DejaVuSans-110"/>
     <use x="392.773438" xlink:href="#DejaVuSans-108"/>
     <use x="420.556641" xlink:href="#DejaVuSans-121"/>
    </g>
   </g>
  </g>
  <g id="axes_2">
   <g id="patch_9">
    <path d="M 249.3 160.2 
L 388.8 160.2 
L 388.8 21.6 
L 249.3 21.6 
z
" style="fill:#ffffff;"/>
   </g>
   <g id="matplotlib.axis_3">
    <g id="xtick_7">
     <g id="line2d_21">
      <g>
       <use style="stroke:#000000;stroke-width:0.8;" x="249.3" xlink:href="#mc2720b3725" y="160.2"/>
      </g>
     </g>
     <g id="text_23">
      <!-- 0 -->
      <g transform="translate(246.436875 170.538594)scale(0.09 -0.09)">
       <use xlink:href="#DejaVuSans-48"/>
      </g>
     </g>
    </g>
    <g id="xtick_8">
     <g id="line2d_22">
      <g>
       <use style="stroke:#000000;stroke-width:0.8;" x="277.2" xlink:href="#mc2720b3725" y="160.2"/>
      </g>
     </g>
     <g id="text_24">
      <!-- 90 -->
      <g transform="translate(271.47375 170.538594)scale(0.09 -0.09)">
       <use xlink:href="#DejaVuSans-57"/>
       <use x="63.623047" xlink:href="#DejaVuSans-48"/>
      </g>
     </g>
    </g>
    <g id="xtick_9">
     <g id="line2d_23">
      <g>
       <use style="stroke:#000000;stroke-width:0.8;" x="305.1" xlink:href="#mc2720b3725" y="160.2"/>
      </g>
     </g>
     <g id="text_25">
      <!-- 99 -->
      <g transform="translate(299.37375 170.538594)scale(0.09 -0.09)">
       <use xlink:href="#DejaVuSans-57"/>
       <use x="63.623047" xlink:href="#DejaVuSans-57"/>
      </g>
     </g>
    </g>
    <g id="xtick_10">
     <g id="line2d_24">
      <g>
       <use style="stroke:#000000;stroke-width:0.8;" x="333" xlink:href="#mc2720b3725" y="160.2"/>
      </g>
     </g>
     <g id="text_26">
      <!-- 99.9 -->
      <g transform="translate(322.980469 170.538594)scale(0.09 -0.09)">
       <use xlink:href="#DejaVuSans-57"/>
       <use x="63.623047" xlink:href="#DejaVuSans-57"/>
       <use x="127.246094" xlink:href="#DejaVuSans-46"/>
       <use x="159.033203" xlink:href="#DejaVuSans-57"/>
      </g>
     </g>
    </g>
    <g id="xtick_11">
     <g id="line2d_25">
      <g>
       <use style="stroke:#000000;stroke-width:0.8;" x="360.9" xlink:href="#mc2720b3725" y="160.2"/>
      </g>
     </g>
     <g id="text_27">
      <!-- 99.99 -->
      <g transform="translate(348.017344 170.538594)scale(0.09 -0.09)">
       <use xlink:href="#DejaVuSans-57"/>
       <use x="63.623047" xlink:href="#DejaVuSans-57"/>
       <use x="127.246094" xlink:href="#DejaVuSans-46"/>
       <use x="159.033203" xlink:href="#DejaVuSans-57"/>
       <use x="222.65625" xlink:href="#DejaVuSans-57"/>
      </g>
     </g>
    </g>
    <g id="xtick_12">
     <g id="line2d_26">
      <g>
       <use style="stroke:#000000;stroke-width:0.8;" x="388.8" xlink:href="#mc2720b3725" y="160.2"/>
      </g>
     </g>
     <g id="text_28">
      <!-- 99.999 -->
      <g transform="translate(373.054219 170.538594)scale(0.09 -0.09)">
       <use xlink:href="#DejaVuSans-57"/>
       <use x="63.623047" xlink:href="#DejaVuSans-57"/>
       <use x="127.246094" xlink:href="#DejaVuSans-46"/>
       <use x="159.033203" xlink:href="#DejaVuSans-57"/>
       <use x="222.65625" xlink:href="#DejaVuSans-57"/>
       <use x="286.279297" xlink:href="#DejaVuSans-57"/>
      </g>
     </g>
    </g>
   </g>
   <g id="matplotlib.axis_4">
    <g id="ytick_7">
     <g id="line2d_27">
      <g>
       <use style="stroke:#000000;stroke-width:0.8;" x="249.3" xlink:href="#mf7228d0587" y="160.2"/>
      </g>
     </g>
     <g id="text_29">
      <!-- 0.00 -->
      <g transform="translate(225.760938 163.619297)scale(0.09 -0.09)">
       <use xlink:href="#DejaVuSans-48"/>
       <use x="63.623047" xlink:href="#DejaVuSans-46"/>
       <use x="95.410156" xlink:href="#DejaVuSans-48"/>
       <use x="159.033203" xlink:href="#DejaVuSans-48"/>
      </g>
     </g>
    </g>
    <g id="ytick_8">
     <g id="line2d_28">
      <g>
       <use style="stroke:#000000;stroke-width:0.8;" x="249.3" xlink:href="#mf7228d0587" y="142.875"/>
      </g>
     </g>
     <g id="text_30">
      <!-- 0.05 -->
      <defs>
       <path d="M 10.796875 72.90625 
L 49.515625 72.90625 
L 49.515625 64.59375 
L 19.828125 64.59375 
L 19.828125 46.734375 
Q 21.96875 47.46875 24.109375 47.828125 
Q 26.265625 48.1875 28.421875 48.1875 
Q 40.625 48.1875 47.75 41.5 
Q 54.890625 34.8125 54.890625 23.390625 
Q 54.890625 11.625 47.5625 5.09375 
Q 40.234375 -1.421875 26.90625 -1.421875 
Q 22.3125 -1.421875 17.546875 -0.640625 
Q 12.796875 0.140625 7.71875 1.703125 
L 7.71875 11.625 
Q 12.109375 9.234375 16.796875 8.0625 
Q 21.484375 6.890625 26.703125 6.890625 
Q 35.15625 6.890625 40.078125 11.328125 
Q 45.015625 15.765625 45.015625 23.390625 
Q 45.015625 31 40.078125 35.4375 
Q 35.15625 39.890625 26.703125 39.890625 
Q 22.75 39.890625 18.8125 39.015625 
Q 14.890625 38.140625 10.796875 36.28125 
z
" id="DejaVuSans-53"/>
      </defs>
      <g transform="translate(225.760938 146.294297)scale(0.09 -0.09)">
       <use xlink:href="#DejaVuSans-48"/>
       <use x="63.623047" xlink:href="#DejaVuSans-46"/>
       <use x="95.410156" xlink:href="#DejaVuSans-48"/>
       <use x="159.033203" xlink:href="#DejaVuSans-53"/>
      </g>
     </g>
    </g>
    <g id="ytick_9">
     <g id="line2d_29">
      <g>
       <use style="stroke:#000000;stroke-width:0.8;" x="249.3" xlink:href="#mf7228d0587" y="125.55"/>
      </g>
     </g>
     <g id="text_31">
      <!-- 0.10 -->
      <g transform="translate(225.760938 128.969297)scale(0.09 -0.09)">
       <use xlink:href="#DejaVuSans-48"/>
       <use x="63.623047" xlink:href="#DejaVuSans-46"/>
       <use x="95.410156" xlink:href="#DejaVuSans-49"/>
       <use x="159.033203" xlink:href="#DejaVuSans-48"/>
      </g>
     </g>
    </g>
    <g id="ytick_10">
     <g id="line2d_30">
      <g>
       <use style="stroke:#000000;stroke-width:0.8;" x="249.3" xlink:href="#mf7228d0587" y="108.225"/>
      </g>
     </g>
     <g id="text_32">
      <!-- 0.15 -->
      <g transform="translate(225.760938 111.644297)scale(0.09 -0.09)">
       <use xlink:href="#DejaVuSans-48"/>
       <use x="63.623047" xlink:href="#DejaVuSans-46"/>
       <use x="95.410156" xlink:href="#DejaVuSans-49"/>
       <use x="159.033203" xlink:href="#DejaVuSans-53"/>
      </g>
     </g>
    </g>
    <g id="ytick_11">
     <g id="line2d_31">
      <g>
       <use style="stroke:#000000;stroke-width:0.8;" x="249.3" xlink:href="#mf7228d0587" y="90.9"/>
      </g>
     </g>
     <g id="text_33">
      <!-- 0.20 -->
      <defs>
       <path d="M 19.1875 8.296875 
L 53.609375 8.296875 
L 53.609375 0 
L 7.328125 0 
L 7.328125 8.296875 
Q 12.9375 14.109375 22.625 23.890625 
Q 32.328125 33.6875 34.8125 36.53125 
Q 39.546875 41.84375 41.421875 45.53125 
Q 43.3125 49.21875 43.3125 52.78125 
Q 43.3125 58.59375 39.234375 62.25 
Q 35.15625 65.921875 28.609375 65.921875 
Q 23.96875 65.921875 18.8125 64.3125 
Q 13.671875 62.703125 7.8125 59.421875 
L 7.8125 69.390625 
Q 13.765625 71.78125 18.9375 73 
Q 24.125 74.21875 28.421875 74.21875 
Q 39.75 74.21875 46.484375 68.546875 
Q 53.21875 62.890625 53.21875 53.421875 
Q 53.21875 48.921875 51.53125 44.890625 
Q 49.859375 40.875 45.40625 35.40625 
Q 44.1875 33.984375 37.640625 27.21875 
Q 31.109375 20.453125 19.1875 8.296875 
z
" id="DejaVuSans-50"/>
      </defs>
      <g transform="translate(225.760938 94.319297)scale(0.09 -0.09)">
       <use xlink:href="#DejaVuSans-48"/>
       <use x="63.623047" xlink:href="#DejaVuSans-46"/>
       <use x="95.410156" xlink:href="#DejaVuSans-50"/>
       <use x="159.033203" xlink:href="#DejaVuSans-48"/>
      </g>
     </g>
    </g>
    <g id="ytick_12">
     <g id="line2d_32">
      <g>
       <use style="stroke:#000000;stroke-width:0.8;" x="249.3" xlink:href="#mf7228d0587" y="73.575"/>
      </g>
     </g>
     <g id="text_34">
      <!-- 0.25 -->
      <g transform="translate(225.760938 76.994297)scale(0.09 -0.09)">
       <use xlink:href="#DejaVuSans-48"/>
       <use x="63.623047" xlink:href="#DejaVuSans-46"/>
       <use x="95.410156" xlink:href="#DejaVuSans-50"/>
       <use x="159.033203" xlink:href="#DejaVuSans-53"/>
      </g>
     </g>
    </g>
    <g id="ytick_13">
     <g id="line2d_33">
      <g>
       <use style="stroke:#000000;stroke-width:0.8;" x="249.3" xlink:href="#mf7228d0587" y="56.25"/>
      </g>
     </g>
     <g id="text_35">
      <!-- 0.30 -->
      <defs>
       <path d="M 40.578125 39.3125 
Q 47.65625 37.796875 51.625 33 
Q 55.609375 28.21875 55.609375 21.1875 
Q 55.609375 10.40625 48.1875 4.484375 
Q 40.765625 -1.421875 27.09375 -1.421875 
Q 22.515625 -1.421875 17.65625 -0.515625 
Q 12.796875 0.390625 7.625 2.203125 
L 7.625 11.71875 
Q 11.71875 9.328125 16.59375 8.109375 
Q 21.484375 6.890625 26.8125 6.890625 
Q 36.078125 6.890625 40.9375 10.546875 
Q 45.796875 14.203125 45.796875 21.1875 
Q 45.796875 27.640625 41.28125 31.265625 
Q 36.765625 34.90625 28.71875 34.90625 
L 20.21875 34.90625 
L 20.21875 43.015625 
L 29.109375 43.015625 
Q 36.375 43.015625 40.234375 45.921875 
Q 44.09375 48.828125 44.09375 54.296875 
Q 44.09375 59.90625 40.109375 62.90625 
Q 36.140625 65.921875 28.71875 65.921875 
Q 24.65625 65.921875 20.015625 65.03125 
Q 15.375 64.15625 9.8125 62.3125 
L 9.8125 71.09375 
Q 15.4375 72.65625 20.34375 73.4375 
Q 25.25 74.21875 29.59375 74.21875 
Q 40.828125 74.21875 47.359375 69.109375 
Q 53.90625 64.015625 53.90625 55.328125 
Q 53.90625 49.265625 50.4375 45.09375 
Q 46.96875 40.921875 40.578125 39.3125 
z
" id="DejaVuSans-51"/>
      </defs>
      <g transform="translate(225.760938 59.669297)scale(0.09 -0.09)">
       <use xlink:href="#DejaVuSans-48"/>
       <use x="63.623047" xlink:href="#DejaVuSans-46"/>
       <use x="95.410156" xlink:href="#DejaVuSans-51"/>
       <use x="159.033203" xlink:href="#DejaVuSans-48"/>
      </g>
     </g>
    </g>
    <g id="ytick_14">
     <g id="line2d_34">
      <g>
       <use style="stroke:#000000;stroke-width:0.8;" x="249.3" xlink:href="#mf7228d0587" y="38.925"/>
      </g>
     </g>
     <g id="text_36">
      <!-- 0.35 -->
      <g transform="translate(225.760938 42.344297)scale(0.09 -0.09)">
       <use xlink:href="#DejaVuSans-48"/>
       <use x="63.623047" xlink:href="#DejaVuSans-46"/>
       <use x="95.410156" xlink:href="#DejaVuSans-51"/>
       <use x="159.033203" xlink:href="#DejaVuSans-53"/>
      </g>
     </g>
    </g>
    <g id="ytick_15">
     <g id="line2d_35">
      <g>
       <use style="stroke:#000000;stroke-width:0.8;" x="249.3" xlink:href="#mf7228d0587" y="21.6"/>
      </g>
     </g>
     <g id="text_37">
      <!-- 0.40 -->
      <defs>
       <path d="M 37.796875 64.3125 
L 12.890625 25.390625 
L 37.796875 25.390625 
z
M 35.203125 72.90625 
L 47.609375 72.90625 
L 47.609375 25.390625 
L 58.015625 25.390625 
L 58.015625 17.1875 
L 47.609375 17.1875 
L 47.609375 0 
L 37.796875 0 
L 37.796875 17.1875 
L 4.890625 17.1875 
L 4.890625 26.703125 
z
" id="DejaVuSans-52"/>
      </defs>
      <g transform="translate(225.760938 25.019297)scale(0.09 -0.09)">
       <use xlink:href="#DejaVuSans-48"/>
       <use x="63.623047" xlink:href="#DejaVuSans-46"/>
       <use x="95.410156" xlink:href="#DejaVuSans-52"/>
       <use x="159.033203" xlink:href="#DejaVuSans-48"/>
      </g>
     </g>
    </g>
    <g id="text_38">
     <!-- Cost of electricity [$/kWh] -->
     <g transform="translate(219.68125 156.13125)rotate(-90)scale(0.1 -0.1)">
      <use xlink:href="#DejaVuSans-67"/>
      <use x="69.824219" xlink:href="#DejaVuSans-111"/>
      <use x="131.005859" xlink:href="#DejaVuSans-115"/>
      <use x="183.105469" xlink:href="#DejaVuSans-116"/>
      <use x="222.314453" xlink:href="#DejaVuSans-32"/>
      <use x="254.101562" xlink:href="#DejaVuSans-111"/>
      <use x="315.283203" xlink:href="#DejaVuSans-102"/>
      <use x="350.488281" xlink:href="#DejaVuSans-32"/>
      <use x="382.275391" xlink:href="#DejaVuSans-101"/>
      <use x="443.798828" xlink:href="#DejaVuSans-108"/>
      <use x="471.582031" xlink:href="#DejaVuSans-101"/>
      <use x="533.105469" xlink:href="#DejaVuSans-99"/>
      <use x="588.085938" xlink:href="#DejaVuSans-116"/>
      <use x="627.294922" xlink:href="#DejaVuSans-114"/>
      <use x="668.408203" xlink:href="#DejaVuSans-105"/>
      <use x="696.191406" xlink:href="#DejaVuSans-99"/>
      <use x="751.171875" xlink:href="#DejaVuSans-105"/>
      <use x="778.955078" xlink:href="#DejaVuSans-116"/>
      <use x="818.164062" xlink:href="#DejaVuSans-121"/>
      <use x="877.34375" xlink:href="#DejaVuSans-32"/>
      <use x="909.130859" xlink:href="#DejaVuSans-91"/>
      <use x="948.144531" xlink:href="#DejaVuSans-36"/>
      <use x="1011.767578" xlink:href="#DejaVuSans-47"/>
      <use x="1045.458984" xlink:href="#DejaVuSans-107"/>
      <use x="1103.369141" xlink:href="#DejaVuSans-87"/>
      <use x="1202.246094" xlink:href="#DejaVuSans-104"/>
      <use x="1265.625" xlink:href="#DejaVuSans-93"/>
     </g>
    </g>
   </g>
   <g id="line2d_36">
    <path clip-path="url(#p75801d75ae)" d="M 433 160.121603 
L 249.3 160.2 
L 249.3 160.2 
L 249.3 160.2 
L 249.3 160.2 
L 249.3 160.2 
L 249.3 160.2 
L 249.3 160.2 
L 249.3 160.2 
L 249.3 160.2 
L 249.3 160.2 
L 249.3 160.2 
" style="fill:none;stroke:#000000;stroke-dasharray:3.7,1.6;stroke-dashoffset:0;"/>
   </g>
   <g id="line2d_37">
    <path clip-path="url(#p75801d75ae)" d="M 433 130.890745 
L 421.371912 130.890756 
L 421.222336 130.891028 
L 421.098235 130.891234 
L 421.02754 130.891341 
L 420.9605 130.891431 
L 420.889818 130.891518 
L 393.118863 131.004899 
L 393.105372 131.005027 
L 393.09857 131.005085 
L 393.086061 131.005177 
L 391.013459 131.020924 
L 391.007458 131.020966 
L 386.604492 131.053927 
L 386.504165 131.054743 
L 385.772266 131.060197 
L 385.742384 131.060408 
L 378.4909 131.123951 
L 374.135684 131.176387 
L 373.916919 131.179158 
L 373.862985 131.179785 
L 369.735686 131.230405 
L 367.331659 131.265434 
L 366.47278 131.277643 
L 366.034153 131.283733 
L 364.935569 131.298877 
L 363.687569 131.315194 
L 362.41115 131.331608 
L 362.10813 131.335243 
L 361.496395 131.34221 
L 360.65997 131.35133 
L 358.553167 131.373165 
L 356.607587 131.394795 
L 353.198731 131.438212 
L 350.781538 131.472709 
L 349.394157 131.493268 
L 346.081109 131.545638 
L 343.566126 131.590951 
L 341.570864 131.629838 
L 338.189207 131.701292 
L 337.10892 131.72631 
L 335.70195 131.757988 
L 333.272533 131.815932 
L 331.115481 131.871394 
L 328.59206 131.941839 
L 326.701402 131.997936 
L 324.277239 132.074894 
L 322.028762 132.151383 
L 319.610111 132.240964 
L 317.641806 132.318583 
L 314.862941 132.437564 
L 312.548782 132.546778 
L 309.940844 132.680088 
L 306.566138 132.878915 
L 302.647194 133.155605 
L 298.514352 133.518149 
L 292.982704 134.164406 
L 285.39101 135.526657 
L 273.616242 139.81114 
L 272.101185 140.637143 
L 270.553573 141.487181 
L 268.567312 142.612975 
L 266.227361 144.031631 
L 263.232433 146.039586 
L 261.117561 147.625414 
L 259.215955 149.108363 
L 249.3 160.2 
L 249.3 160.2 
L 249.3 160.2 
L 249.3 160.2 
L 249.3 160.2 
L 249.3 160.2 
L 249.3 160.2 
L 249.3 160.2 
L 249.3 160.2 
L 249.3 160.2 
L 249.3 160.2 
L 249.3 160.2 
L 249.3 160.2 
L 249.3 160.2 
L 249.3 160.2 
L 249.3 160.2 
" style="fill:none;stroke:#0d0887;stroke-dasharray:3.7,1.6;stroke-dashoffset:0;"/>
   </g>
   <g id="line2d_38">
    <path clip-path="url(#p75801d75ae)" d="M 433 115.154291 
L 370.822318 115.155376 
L 363.4678 115.542388 
L 354.619795 116.374809 
L 354.619795 116.374809 
L 354.619795 116.374809 
L 353.515345 116.477946 
L 353.515345 116.477946 
L 353.515345 116.477946 
L 349.00249 116.880543 
L 349.00249 116.880543 
L 341.692575 117.687118 
L 335.054306 118.830888 
L 333.968095 119.067559 
L 333.921805 119.077163 
L 329.88748 119.944299 
L 329.674439 119.989779 
L 329.092156 120.109956 
L 327.328481 120.477259 
L 326.981192 120.542962 
L 326.620973 120.607361 
L 321.714074 121.577856 
L 319.637313 122.048912 
L 317.953039 122.474387 
L 316.702864 122.791951 
L 315.307438 123.133597 
L 314.084171 123.444891 
L 311.13405 124.193363 
L 308.822928 124.855673 
L 306.594878 125.550469 
L 304.951896 126.080863 
L 302.251891 126.999061 
L 301.032276 127.430505 
L 298.67495 128.308175 
L 297.458226 128.777494 
L 295.636396 129.48153 
L 294.006925 130.134367 
L 292.383725 130.793411 
L 290.892693 131.40829 
L 289.269232 132.089942 
L 287.300447 132.928473 
L 285.109162 133.92489 
L 283.10138 134.888686 
L 281.457368 135.714155 
L 279.665578 136.634142 
L 278.277804 137.362625 
L 276.644247 138.224853 
L 275.039999 139.085534 
L 273.624448 139.850857 
L 272.14451 140.655905 
L 270.546611 141.531766 
L 268.633414 142.613166 
L 266.261188 144.046433 
L 263.271203 146.044565 
L 261.145789 147.633511 
L 259.246202 149.110454 
L 249.3 160.2 
L 249.3 160.2 
L 249.3 160.2 
L 249.3 160.2 
L 249.3 160.2 
L 249.3 160.2 
L 249.3 160.2 
L 249.3 160.2 
L 249.3 160.2 
L 249.3 160.2 
L 249.3 160.2 
L 249.3 160.2 
L 249.3 160.2 
L 249.3 160.2 
L 249.3 160.2 
L 249.3 160.2 
" style="fill:none;stroke:#5302a3;stroke-dasharray:3.7,1.6;stroke-dashoffset:0;"/>
   </g>
   <g id="line2d_39">
    <path clip-path="url(#p75801d75ae)" d="M 433 94.732048 
L 341.434213 94.753141 
L 341.434213 94.753141 
L 341.434213 94.753141 
L 340.293309 95.221945 
L 340.293309 95.221945 
L 340.293309 95.221945 
L 338.934358 95.63941 
L 332.095323 98.502547 
L 327.837822 100.84247 
L 325.818638 102.069068 
L 324.370376 103.05451 
L 324.370376 103.05451 
L 319.485375 106.47454 
L 319.485375 106.47454 
L 318.279311 107.317862 
L 318.279311 107.317862 
L 317.825966 107.59352 
L 314.693754 109.504024 
L 314.383359 109.693233 
L 309.905682 112.676958 
L 309.01709 113.339159 
L 307.703074 114.295772 
L 306.647141 115.055829 
L 305.917063 115.545684 
L 305.511003 115.804658 
L 304.445487 116.437073 
L 301.760908 118.13811 
L 299.767505 119.471222 
L 298.658309 120.23935 
L 297.598851 120.96555 
L 296.845516 121.452657 
L 294.948064 122.654445 
L 292.730001 124.168407 
L 291.524736 125.004293 
L 290.212944 125.890385 
L 288.312653 127.236111 
L 287.517775 127.791725 
L 286.020866 128.828973 
L 284.695374 129.738704 
L 283.242422 130.744988 
L 281.718717 131.797019 
L 279.779032 133.192049 
L 278.98027 133.763634 
L 277.262521 134.959756 
L 275.030832 136.60592 
L 273.094393 138.119136 
L 270.936221 139.908386 
L 269.755031 140.905541 
L 268.652083 141.814398 
L 267.452791 142.783326 
L 266.319319 143.686686 
L 265.186109 144.568357 
L 263.959234 145.505001 
L 262.673354 146.477893 
L 261.145789 147.633511 
L 259.246202 149.110454 
L 249.3 160.2 
L 249.3 160.2 
L 249.3 160.2 
L 249.3 160.2 
L 249.3 160.2 
L 249.3 160.2 
L 249.3 160.2 
L 249.3 160.2 
L 249.3 160.2 
L 249.3 160.2 
L 249.3 160.2 
L 249.3 160.2 
L 249.3 160.2 
L 249.3 160.2 
L 249.3 160.2 
L 249.3 160.2 
" style="fill:none;stroke:#8b0aa5;stroke-dasharray:3.7,1.6;stroke-dashoffset:0;"/>
   </g>
   <g id="line2d_40">
    <path clip-path="url(#p75801d75ae)" d="M 433 78.943072 
L 382.538278 78.943363 
L 382.538278 78.943363 
L 382.538278 78.943363 
L 382.538278 78.943363 
L 382.538278 78.943363 
L 346.081138 80.689611 
L 346.081138 80.689611 
L 338.090615 82.051491 
L 338.090615 82.051491 
L 327.759027 84.843603 
L 324.507624 86.253131 
L 323.208135 86.840747 
L 323.208135 86.840747 
L 320.918411 87.819745 
L 320.157076 88.143065 
L 317.001416 89.525058 
L 316.905168 89.567787 
L 316.456992 89.750932 
L 315.464551 90.141066 
L 311.84495 91.733284 
L 309.857037 92.669131 
L 307.976771 93.594054 
L 305.348904 95.005412 
L 304.401667 95.531298 
L 301.660599 97.156926 
L 300.144693 98.060769 
L 299.202472 98.628812 
L 296.471677 100.307202 
L 295.527275 100.90818 
L 293.424922 102.307409 
L 291.940775 103.295805 
L 290.76978 104.070515 
L 289.083381 105.209288 
L 286.525565 107.0198 
L 284.339833 108.679029 
L 282.173892 110.448758 
L 280.488484 111.884614 
L 278.374026 113.767167 
L 276.186393 115.86464 
L 274.679288 117.356071 
L 273.178496 118.845358 
L 271.486349 120.552204 
L 270.168617 121.910097 
L 256.863829 145.677346 
L 255.420214 149.68232 
L 255.294463 150.00801 
L 255.146108 150.355597 
L 254.981248 150.70304 
L 254.808378 151.032423 
L 254.585929 151.416044 
L 254.289439 151.881183 
L 249.3 160.2 
L 249.3 160.2 
L 249.3 160.2 
L 249.3 160.2 
L 249.3 160.2 
L 249.3 160.2 
L 249.3 160.2 
L 249.3 160.2 
L 249.3 160.2 
L 249.3 160.2 
L 249.3 160.2 
L 249.3 160.2 
L 249.3 160.2 
L 249.3 160.2 
L 249.3 160.2 
L 249.3 160.2 
L 249.3 160.2 
L 249.3 160.2 
" style="fill:none;stroke:#b83289;stroke-dasharray:3.7,1.6;stroke-dashoffset:0;"/>
   </g>
   <g id="line2d_41">
    <path clip-path="url(#p75801d75ae)" d="M 376.75625 62.287633 
L 376.75625 62.287633 
L 371.924183 66.371143 
L 371.924183 66.371143 
L 364.640455 73.797795 
L 364.640455 73.797795 
L 364.640455 73.797795 
L 363.046112 75.523524 
L 363.046112 75.523524 
L 358.51904 80.457527 
L 358.302879 80.698809 
L 358.302879 80.698809 
L 358.024432 80.960699 
L 356.865314 81.980623 
L 356.538739 82.269186 
L 352.38916 86.207126 
L 350.453565 88.284356 
L 349.986552 88.774159 
L 349.8373 88.918014 
L 349.182106 89.474289 
L 348.277735 90.225006 
L 346.922869 91.31093 
L 346.427467 91.691967 
L 345.992247 91.995043 
L 345.534153 92.292668 
L 343.962802 93.324373 
L 342.587473 94.209596 
L 340.163952 95.840737 
L 337.916809 97.49189 
L 336.130489 98.88293 
L 333.934043 100.64158 
L 333.001378 101.392752 
L 331.892349 102.260924 
L 330.528461 103.335906 
L 328.692342 104.825882 
L 326.67717 106.516953 
L 325.316568 107.689552 
L 324.061002 108.760317 
L 323.547074 109.181284 
L 322.328482 110.119962 
L 321.181117 110.990339 
L 319.937629 111.934456 
L 317.969156 113.467949 
L 316.930372 114.273847 
L 315.516447 115.35151 
L 314.495016 116.105685 
L 313.510435 116.81963 
L 312.106019 117.816127 
L 310.728675 118.800661 
L 309.77647 119.468059 
L 308.825075 120.112199 
L 307.535527 120.956247 
L 306.205799 121.830157 
L 305.397138 122.348872 
L 304.383986 122.975784 
L 303.241095 123.664113 
L 301.728972 124.562531 
L 300.482755 125.303394 
L 299.281778 126.004508 
L 297.956669 126.768473 
L 296.719408 127.479145 
L 295.524398 128.155095 
L 294.275294 128.849244 
L 293.0682 129.511762 
L 291.874439 130.157716 
L 290.48394 130.906194 
L 289.174962 131.608148 
L 287.83942 132.320069 
L 286.62728 132.957271 
L 285.226687 133.685042 
L 283.764471 134.45347 
L 282.212062 135.27307 
L 280.806043 136.026058 
L 279.495101 136.721909 
L 278.277804 137.362625 
L 276.644247 138.224853 
L 275.039999 139.085534 
L 273.624448 139.850857 
L 272.14451 140.655905 
L 270.546611 141.531766 
L 268.633414 142.613166 
L 266.261188 144.046433 
L 263.271203 146.044565 
L 261.145789 147.633511 
L 259.246202 149.110454 
L 249.3 160.2 
L 249.3 160.2 
L 249.3 160.2 
L 249.3 160.2 
L 249.3 160.2 
L 249.3 160.2 
L 249.3 160.2 
L 249.3 160.2 
L 249.3 160.2 
L 249.3 160.2 
L 249.3 160.2 
L 249.3 160.2 
L 249.3 160.2 
L 249.3 160.2 
L 249.3 160.2 
L 249.3 160.2 
" style="fill:none;stroke:#db5c68;stroke-dasharray:3.7,1.6;stroke-dashoffset:0;"/>
   </g>
   <g id="line2d_42">
    <path clip-path="url(#p75801d75ae)" d="M 258.055408 -1 
L 258.040645 5.987862 
L 258.015351 16.529725 
L 257.997596 23.140477 
L 257.966986 33.313625 
L 257.94982 38.398519 
L 257.917891 46.840649 
L 257.878778 56.254055 
L 257.850503 62.169661 
L 257.801029 71.559223 
L 257.769984 76.786282 
L 257.7308 82.764594 
L 257.678905 89.732177 
L 257.639795 94.468177 
L 257.59363 99.522849 
L 257.549948 103.730745 
L 257.503085 107.840485 
L 257.463305 110.943502 
L 257.428611 113.358433 
L 257.367684 117.113399 
L 257.316879 119.92464 
L 257.250942 123.163133 
L 257.186824 126.023379 
L 257.127211 128.391498 
L 257.042965 131.357441 
L 256.974114 133.544121 
L 256.897113 135.761917 
L 256.823468 137.683598 
L 256.766204 138.999935 
L 256.708288 140.187132 
L 256.666448 140.955215 
L 256.624025 141.654927 
L 256.567014 142.496035 
L 256.505928 143.302504 
L 256.437067 144.114787 
L 256.384648 144.670888 
L 256.317201 145.313803 
L 256.260392 145.799035 
L 256.201325 146.250305 
L 256.126438 146.762571 
L 256.057945 147.183255 
L 255.982884 147.596031 
L 255.918536 147.91366 
L 255.837811 148.270949 
L 255.739644 148.66008 
L 255.645533 148.995294 
L 255.534798 149.351192 
L 255.420214 149.68232 
L 255.294463 150.00801 
L 255.146108 150.355597 
L 254.981248 150.70304 
L 254.808378 151.032423 
L 254.585929 151.416044 
L 254.289439 151.881183 
L 249.3 160.2 
L 249.3 160.2 
L 249.3 160.2 
L 249.3 160.2 
L 249.3 160.2 
L 249.3 160.2 
L 249.3 160.2 
L 249.3 160.2 
L 249.3 160.2 
L 249.3 160.2 
L 249.3 160.2 
L 249.3 160.2 
L 249.3 160.2 
L 249.3 160.2 
L 249.3 160.2 
L 249.3 160.2 
L 249.3 160.2 
L 249.3 160.2 
" style="fill:none;stroke:#f48849;stroke-dasharray:3.7,1.6;stroke-dashoffset:0;"/>
   </g>
   <g id="line2d_43">
    <path clip-path="url(#p75801d75ae)" d="M 344.736362 -1 
L 340.757129 8.008504 
L 339.481681 11.494189 
L 338.763376 13.364344 
L 336.629526 19.095627 
L 334.716471 24.36299 
L 333.467636 27.825733 
L 330.826742 35.552657 
L 329.834495 38.482848 
L 329.022524 40.826824 
L 328.214857 43.050807 
L 327.034937 46.202365 
L 325.840972 49.284545 
L 324.37059 53.139889 
L 323.716891 54.825631 
L 322.602946 57.562355 
L 321.585354 59.980383 
L 320.523693 62.384142 
L 319.547426 64.509447 
L 318.143696 67.549495 
L 316.821279 70.400205 
L 315.138312 74.157873 
L 313.761649 77.222446 
L 312.605953 79.769861 
L 311.721673 81.631433 
L 310.587485 83.956604 
L 309.069626 87.073844 
L 307.717468 89.858591 
L 306.501298 92.319463 
L 305.430324 94.434749 
L 304.420206 96.377697 
L 303.522294 98.05971 
L 302.355295 100.160266 
L 301.419769 101.818878 
L 300.082061 104.112984 
L 298.838954 106.240093 
L 297.686697 108.170559 
L 296.731172 109.736609 
L 295.866118 111.107653 
L 294.762214 112.788929 
L 293.53837 114.602827 
L 292.583891 115.992984 
L 291.320118 117.786307 
L 290.290269 119.223391 
L 289.253067 120.626225 
L 288.16383 122.058924 
L 287.100839 123.416251 
L 286.293334 124.410541 
L 285.30341 125.576808 
L 284.10268 126.959591 
L 283.127913 128.05985 
L 281.836378 129.48584 
L 280.934178 130.452413 
L 279.948187 131.475299 
L 278.769606 132.663156 
L 277.578614 133.846022 
L 276.428296 134.967185 
L 275.408261 135.936267 
L 274.340974 136.920511 
L 273.309087 137.84498 
L 272.129199 138.881478 
L 270.913715 139.927606 
L 269.755031 140.905541 
L 268.652083 141.814398 
L 267.452791 142.783326 
L 266.319319 143.686686 
L 265.186109 144.568357 
L 263.959234 145.505001 
L 262.673354 146.477893 
L 261.145789 147.633511 
L 259.246202 149.110454 
L 249.3 160.2 
L 249.3 160.2 
L 249.3 160.2 
L 249.3 160.2 
L 249.3 160.2 
L 249.3 160.2 
L 249.3 160.2 
L 249.3 160.2 
L 249.3 160.2 
L 249.3 160.2 
L 249.3 160.2 
L 249.3 160.2 
L 249.3 160.2 
L 249.3 160.2 
L 249.3 160.2 
L 249.3 160.2 
" style="fill:none;stroke:#febd2a;stroke-dasharray:3.7,1.6;stroke-dashoffset:0;"/>
   </g>
   <g id="patch_10">
    <path d="M 249.3 160.2 
L 249.3 21.6 
" style="fill:none;stroke:#000000;stroke-linecap:square;stroke-linejoin:miter;stroke-width:0.8;"/>
   </g>
   <g id="patch_11">
    <path d="M 388.8 160.2 
L 388.8 21.6 
" style="fill:none;stroke:#000000;stroke-linecap:square;stroke-linejoin:miter;stroke-width:0.8;"/>
   </g>
   <g id="patch_12">
    <path d="M 249.3 160.2 
L 388.8 160.2 
" style="fill:none;stroke:#000000;stroke-linecap:square;stroke-linejoin:miter;stroke-width:0.8;"/>
   </g>
   <g id="patch_13">
    <path d="M 249.3 21.6 
L 388.8 21.6 
" style="fill:none;stroke:#000000;stroke-linecap:square;stroke-linejoin:miter;stroke-width:0.8;"/>
   </g>
   <g id="text_39">
    <!-- natural gas + solar + wind -->
    <g transform="translate(306.376634 156.735)scale(0.06 -0.06)">
     <use xlink:href="#DejaVuSans-110"/>
     <use x="63.378906" xlink:href="#DejaVuSans-97"/>
     <use x="124.658203" xlink:href="#DejaVuSans-116"/>
     <use x="163.867188" xlink:href="#DejaVuSans-117"/>
     <use x="227.246094" xlink:href="#DejaVuSans-114"/>
     <use x="268.359375" xlink:href="#DejaVuSans-97"/>
     <use x="329.638672" xlink:href="#DejaVuSans-108"/>
     <use x="357.421875" xlink:href="#DejaVuSans-32"/>
     <use x="389.208984" xlink:href="#DejaVuSans-103"/>
     <use x="452.685547" xlink:href="#DejaVuSans-97"/>
     <use x="513.964844" xlink:href="#DejaVuSans-115"/>
     <use x="566.064453" xlink:href="#DejaVuSans-32"/>
     <use x="597.851562" xlink:href="#DejaVuSans-43"/>
     <use x="681.640625" xlink:href="#DejaVuSans-32"/>
     <use x="713.427734" xlink:href="#DejaVuSans-115"/>
     <use x="765.527344" xlink:href="#DejaVuSans-111"/>
     <use x="826.708984" xlink:href="#DejaVuSans-108"/>
     <use x="854.492188" xlink:href="#DejaVuSans-97"/>
     <use x="915.771484" xlink:href="#DejaVuSans-114"/>
     <use x="956.884766" xlink:href="#DejaVuSans-32"/>
     <use x="988.671875" xlink:href="#DejaVuSans-43"/>
     <use x="1072.460938" xlink:href="#DejaVuSans-32"/>
     <use x="1104.248047" xlink:href="#DejaVuSans-119"/>
     <use x="1186.035156" xlink:href="#DejaVuSans-105"/>
     <use x="1213.818359" xlink:href="#DejaVuSans-110"/>
     <use x="1277.197266" xlink:href="#DejaVuSans-100"/>
    </g>
   </g>
   <g id="text_40">
    <!-- NG with carbon price -->
    <g style="fill:#0d0887;" transform="translate(324.399519 130.265812)scale(0.06 -0.06)">
     <use xlink:href="#DejaVuSans-78"/>
     <use x="74.804688" xlink:href="#DejaVuSans-71"/>
     <use x="152.294922" xlink:href="#DejaVuSans-32"/>
     <use x="184.082031" xlink:href="#DejaVuSans-119"/>
     <use x="265.869141" xlink:href="#DejaVuSans-105"/>
     <use x="293.652344" xlink:href="#DejaVuSans-116"/>
     <use x="332.861328" xlink:href="#DejaVuSans-104"/>
     <use x="396.240234" xlink:href="#DejaVuSans-32"/>
     <use x="428.027344" xlink:href="#DejaVuSans-99"/>
     <use x="483.007812" xlink:href="#DejaVuSans-97"/>
     <use x="544.287109" xlink:href="#DejaVuSans-114"/>
     <use x="585.400391" xlink:href="#DejaVuSans-98"/>
     <use x="648.876953" xlink:href="#DejaVuSans-111"/>
     <use x="710.058594" xlink:href="#DejaVuSans-110"/>
     <use x="773.4375" xlink:href="#DejaVuSans-32"/>
     <use x="805.224609" xlink:href="#DejaVuSans-112"/>
     <use x="868.701172" xlink:href="#DejaVuSans-114"/>
     <use x="909.814453" xlink:href="#DejaVuSans-105"/>
     <use x="937.597656" xlink:href="#DejaVuSans-99"/>
     <use x="992.578125" xlink:href="#DejaVuSans-101"/>
    </g>
    <!-- + solar + wind -->
    <g style="fill:#0d0887;" transform="translate(343.076394 136.9845)scale(0.06 -0.06)">
     <use xlink:href="#DejaVuSans-43"/>
     <use x="83.789062" xlink:href="#DejaVuSans-32"/>
     <use x="115.576172" xlink:href="#DejaVuSans-115"/>
     <use x="167.675781" xlink:href="#DejaVuSans-111"/>
     <use x="228.857422" xlink:href="#DejaVuSans-108"/>
     <use x="256.640625" xlink:href="#DejaVuSans-97"/>
     <use x="317.919922" xlink:href="#DejaVuSans-114"/>
     <use x="359.033203" xlink:href="#DejaVuSans-32"/>
     <use x="390.820312" xlink:href="#DejaVuSans-43"/>
     <use x="474.609375" xlink:href="#DejaVuSans-32"/>
     <use x="506.396484" xlink:href="#DejaVuSans-119"/>
     <use x="588.183594" xlink:href="#DejaVuSans-105"/>
     <use x="615.966797" xlink:href="#DejaVuSans-110"/>
     <use x="679.345703" xlink:href="#DejaVuSans-100"/>
    </g>
   </g>
   <g id="text_41">
    <!-- solar + wind + storage -->
    <g style="fill:#5302a3;" transform="translate(319.303664 116.892248)rotate(-5)scale(0.06 -0.06)">
     <use xlink:href="#DejaVuSans-115"/>
     <use x="52.099609" xlink:href="#DejaVuSans-111"/>
     <use x="113.28125" xlink:href="#DejaVuSans-108"/>
     <use x="141.064453" xlink:href="#DejaVuSans-97"/>
     <use x="202.34375" xlink:href="#DejaVuSans-114"/>
     <use x="243.457031" xlink:href="#DejaVuSans-32"/>
     <use x="275.244141" xlink:href="#DejaVuSans-43"/>
     <use x="359.033203" xlink:href="#DejaVuSans-32"/>
     <use x="390.820312" xlink:href="#DejaVuSans-119"/>
     <use x="472.607422" xlink:href="#DejaVuSans-105"/>
     <use x="500.390625" xlink:href="#DejaVuSans-110"/>
     <use x="563.769531" xlink:href="#DejaVuSans-100"/>
     <use x="627.246094" xlink:href="#DejaVuSans-32"/>
     <use x="659.033203" xlink:href="#DejaVuSans-43"/>
     <use x="742.822266" xlink:href="#DejaVuSans-32"/>
     <use x="774.609375" xlink:href="#DejaVuSans-115"/>
     <use x="826.708984" xlink:href="#DejaVuSans-116"/>
     <use x="865.917969" xlink:href="#DejaVuSans-111"/>
     <use x="927.099609" xlink:href="#DejaVuSans-114"/>
     <use x="968.212891" xlink:href="#DejaVuSans-97"/>
     <use x="1029.492188" xlink:href="#DejaVuSans-103"/>
     <use x="1092.96875" xlink:href="#DejaVuSans-101"/>
    </g>
   </g>
   <g id="text_42">
    <!-- wind +  -->
    <g style="fill:#8b0aa5;" transform="translate(360.9 93.536812)scale(0.06 -0.06)">
     <use xlink:href="#DejaVuSans-119"/>
     <use x="81.787109" xlink:href="#DejaVuSans-105"/>
     <use x="109.570312" xlink:href="#DejaVuSans-110"/>
     <use x="172.949219" xlink:href="#DejaVuSans-100"/>
     <use x="236.425781" xlink:href="#DejaVuSans-32"/>
     <use x="268.212891" xlink:href="#DejaVuSans-43"/>
     <use x="352.001953" xlink:href="#DejaVuSans-32"/>
    </g>
    <!-- storage -->
    <g style="fill:#8b0aa5;" transform="translate(360.9 100.2555)scale(0.06 -0.06)">
     <use xlink:href="#DejaVuSans-115"/>
     <use x="52.099609" xlink:href="#DejaVuSans-116"/>
     <use x="91.308594" xlink:href="#DejaVuSans-111"/>
     <use x="152.490234" xlink:href="#DejaVuSans-114"/>
     <use x="193.603516" xlink:href="#DejaVuSans-97"/>
     <use x="254.882812" xlink:href="#DejaVuSans-103"/>
     <use x="318.359375" xlink:href="#DejaVuSans-101"/>
    </g>
   </g>
   <g id="text_43">
    <!-- solar + storage -->
    <g style="fill:#b83289;" transform="translate(266.503288 115.380664)rotate(-35)scale(0.06 -0.06)">
     <use xlink:href="#DejaVuSans-115"/>
     <use x="52.099609" xlink:href="#DejaVuSans-111"/>
     <use x="113.28125" xlink:href="#DejaVuSans-108"/>
     <use x="141.064453" xlink:href="#DejaVuSans-97"/>
     <use x="202.34375" xlink:href="#DejaVuSans-114"/>
     <use x="243.457031" xlink:href="#DejaVuSans-32"/>
     <use x="275.244141" xlink:href="#DejaVuSans-43"/>
     <use x="359.033203" xlink:href="#DejaVuSans-32"/>
     <use x="390.820312" xlink:href="#DejaVuSans-115"/>
     <use x="442.919922" xlink:href="#DejaVuSans-116"/>
     <use x="482.128906" xlink:href="#DejaVuSans-111"/>
     <use x="543.310547" xlink:href="#DejaVuSans-114"/>
     <use x="584.423828" xlink:href="#DejaVuSans-97"/>
     <use x="645.703125" xlink:href="#DejaVuSans-103"/>
     <use x="709.179688" xlink:href="#DejaVuSans-101"/>
    </g>
   </g>
   <g id="text_44">
    <!-- wind + solar -->
    <g style="fill:#db5c68;" transform="translate(347.588317 59.715)scale(0.06 -0.06)">
     <use xlink:href="#DejaVuSans-119"/>
     <use x="81.787109" xlink:href="#DejaVuSans-105"/>
     <use x="109.570312" xlink:href="#DejaVuSans-110"/>
     <use x="172.949219" xlink:href="#DejaVuSans-100"/>
     <use x="236.425781" xlink:href="#DejaVuSans-32"/>
     <use x="268.212891" xlink:href="#DejaVuSans-43"/>
     <use x="352.001953" xlink:href="#DejaVuSans-32"/>
     <use x="383.789062" xlink:href="#DejaVuSans-115"/>
     <use x="435.888672" xlink:href="#DejaVuSans-111"/>
     <use x="497.070312" xlink:href="#DejaVuSans-108"/>
     <use x="524.853516" xlink:href="#DejaVuSans-97"/>
     <use x="586.132812" xlink:href="#DejaVuSans-114"/>
    </g>
   </g>
   <g id="text_45">
    <!-- solar only -->
    <g style="fill:#db5c68;" transform="translate(260.402526 31.995)scale(0.06 -0.06)">
     <use xlink:href="#DejaVuSans-115"/>
     <use x="52.099609" xlink:href="#DejaVuSans-111"/>
     <use x="113.28125" xlink:href="#DejaVuSans-108"/>
     <use x="141.064453" xlink:href="#DejaVuSans-97"/>
     <use x="202.34375" xlink:href="#DejaVuSans-114"/>
     <use x="243.457031" xlink:href="#DejaVuSans-32"/>
     <use x="275.244141" xlink:href="#DejaVuSans-111"/>
     <use x="336.425781" xlink:href="#DejaVuSans-110"/>
     <use x="399.804688" xlink:href="#DejaVuSans-108"/>
     <use x="427.587891" xlink:href="#DejaVuSans-121"/>
    </g>
   </g>
   <g id="text_46">
    <!-- wind only -->
    <g style="fill:#febd2a;" transform="translate(333 42.39)scale(0.06 -0.06)">
     <use xlink:href="#DejaVuSans-119"/>
     <use x="81.787109" xlink:href="#DejaVuSans-105"/>
     <use x="109.570312" xlink:href="#DejaVuSans-110"/>
     <use x="172.949219" xlink:href="#DejaVuSans-100"/>
     <use x="236.425781" xlink:href="#DejaVuSans-32"/>
     <use x="268.212891" xlink:href="#DejaVuSans-111"/>
     <use x="329.394531" xlink:href="#DejaVuSans-110"/>
     <use x="392.773438" xlink:href="#DejaVuSans-108"/>
     <use x="420.556641" xlink:href="#DejaVuSans-121"/>
    </g>
   </g>
  </g>
 </g>
 <defs>
  <clipPath id="pbbd28f41d6">
   <rect height="138.6" width="139.5" x="54" y="21.6"/>
  </clipPath>
  <clipPath id="p75801d75ae">
   <rect height="138.6" width="139.5" x="249.3" y="21.6"/>
  </clipPath>
 </defs>
</svg>
